<?xml version="1.0" encoding="utf-8"?>
<!-- Generator: Adobe Illustrator 18.1.1, SVG Export Plug-In . SVG Version: 6.00 Build 0)  -->
<svg version="1.1" id="Layer_1" xmlns="http://www.w3.org/2000/svg" xmlns:xlink="http://www.w3.org/1999/xlink" x="0px" y="0px"
	 viewBox="0 0 174.5 92.7" enable-background="new 0 0 174.5 92.7" xml:space="preserve">
<g id="Medium_purple">
	<rect x="92.7" y="10.9" fill="#5A3A5E" width="27.3" height="5.5"/>
	<rect x="120" y="5.5" fill="#5A3A5E" width="21.8" height="5.5"/>
	<rect x="163.6" y="5.5" fill="#5A3A5E" width="5.5" height="5.5"/>
	<rect x="169.1" y="10.9" fill="#5A3A5E" width="5.5" height="5.5"/>
	<rect x="120" y="16.4" fill="#5A3A5E" width="54.5" height="5.5"/>
	<rect x="76.4" y="32.7" fill="#5A3A5E" width="32.7" height="5.5"/>
	<rect x="54.5" y="38.2" fill="#5A3A5E" width="21.8" height="5.5"/>
	<rect x="32.7" y="43.6" fill="#5A3A5E" width="21.8" height="5.5"/>
	<rect x="54.5" y="49.1" fill="#5A3A5E" width="54.5" height="5.5"/>
	<rect x="60" y="70.9" fill="#5A3A5E" width="32.7" height="5.5"/>
	<rect x="92.7" y="76.4" fill="#5A3A5E" width="5.5" height="5.5"/>
	<rect x="98.2" y="81.8" fill="#5A3A5E" width="5.5" height="5.5"/>
	<rect x="81.8" y="87.3" fill="#5A3A5E" width="16.4" height="5.5"/>
	<rect x="27.3" y="87.3" fill="#5A3A5E" width="54.5" height="5.5"/>
	<rect x="27.3" y="76.4" fill="#5A3A5E" width="32.7" height="5.5"/>
	<rect x="0" y="81.8" fill="#5A3A5E" width="27.3" height="5.5"/>
	<rect x="109.1" y="38.2" fill="#5A3A5E" width="5.5" height="10.9"/>
	<line fill="none" x1="0" y1="84.5" x2="0" y2="90"/>
	<rect x="141.8" y="0" fill="#5A3A5E" width="21.8" height="5.5"/>
	<rect x="103.6" y="38.2" fill="#5A3A5E" width="5.5" height="5.5"/>
</g>
<polygon fill="#FFFFFF" points="27.3,87.3 27.3,81.8 60,81.8 60,76.4 92.7,76.4 92.7,81.8 98.2,81.8 98.2,87.3 "/>
<polygon fill="#FFFFFF" points="120,10.9 120,16.4 169.1,16.4 169.1,10.9 163.6,10.9 163.6,5.5 141.8,5.5 141.8,10.9 "/>
<path fill="#FFFFFF" d="M109.1,38.2H76.4v5.5c0,0-21.5,0-21.8,0v5.5h54.5v-5.5l0,0V38.2z"/>
</svg>
