<?xml version="1.0" encoding="utf-8"?>
<!-- Generator: Adobe Illustrator 18.1.1, SVG Export Plug-In . SVG Version: 6.00 Build 0)  -->
<svg version="1.1" id="Layer_1" xmlns="http://www.w3.org/2000/svg" xmlns:xlink="http://www.w3.org/1999/xlink" x="0px" y="0px"
	 viewBox="76.5 640.3 1200.1 332.7" enable-background="new 76.5 640.3 1200.1 332.7" xml:space="preserve">
<g id="Dark_purple">
	<g>
		<path fill="#59395E" d="M1270.5,861.2L1270.5,861.2C1271.1,861.2,1271.4,861.2,1270.5,861.2z"/>
		<path fill="#59395E" d="M661.5,876.2v24.1h6.1v12h6.1v6.1h12v6.1h18.1v-6.1h12v-6.1h6.1v-12h6.1V761.7v-6.1v-42.2H722v-12h-6.1v-6
			h-12v-6.1h-18.1v6.1h-12v6.1h-6.1v12h-6.1v138.7V876.2z M667.5,719.5h6.1v-12h6.1v-6.1h12v-6h6.1v6.1h11.9v6.1h6.1v12h6.1v174.8
			h-6.1v12h-6.1v6.1h-12v6.1h-6.1v-6.1h-12v-6.1h-6.1v-12h-6.1V719.5H667.5z"/>
		<path fill="#59395E" d="M1270.5,773.7v-6.1h6.1v-60.2h-6.1v-18.1h-6.1v-12h-6.1v-6.1h-6.1v-6.1h-6.1V659h-6.1v-6.1h-12v-6.1h-12
			v-6.1h-42v6.1h-12v6.1h-12v6.1h-6.1v6.1h-6.1v6.1h-6.1v6.1h-6.1v12h-6.1V647h-6.1V641h-42.2v6.1h-6.1v247.3h-6.1v12h-6.1v6.1
			h-11.6v6.1h-6.1v-6.1h-12v-6.1h-6.1v-12h-6.1v-48.2h-6.1v-6.1h-42.2v6.1h-6.1v66.3h-30.2V647.2h-6.1v-6.1h-42.2v6.1h-6.1v144.7
			H866v-18.1H860v-18.1h-6.1v-18.1h-6.1v-18.1h-5.4v-18.1h-6.1v-18.1h-6.1V665h-6.1v-18.1h-6.1v-6.1h-42v6.1H770V683h-6.1v-6.1h-6.1
			v-6.1h-6.1v-6.1h-6.1v-6.1h-6.1v-6.1h-12v-6.1h-12v-6.1h-42.2v6.1h-12v6.1h-12v6.1h-5.7v6.1h-6.1v6.1h-6.1v6.1h-6.1v12h-6.1v12
			H613v205.1h6.1v-30.2v-24.1V707.4h6.1v-12h6.1v-12h6.1v-6.1h6.1v-6.1h6.1v-6.1h6.1V659h12v-6.1h12v-6.1h30.1v6.1h12v6.1h12v6.1
			h6.1v6.1h6.1v6.1h6.1v6.1h6.1v12h6.1v12h6.1v48.2v6.1v144.7h-6.1v12h-6.1v12h-6.1v6.1H746v6.1h-6.1v6.1h-6.1v6.1h-12v6.1h-12v6.1
			h-30.2v-6.3h-12v-6.1h-12v-6.1h-6.1v-6.1h-6v-6.1h-6.1v-6.1h-6.1v-12h-6.1v-12h-6.1v6.1h-60.2V646.9h-6.1v-6.1h-42v6.1h-6.1V671
			h-6.1V665h-6.1v-6.1h-6.1v-6.1h-6.1v-6.1h-12v-6.1h-96.5v6.1h-6.1v36.1h-6.1v-6.1h-6.1v-6.1h-6.1v-6.1h-6.1v-6.1h-6.1v-6.1h-12
			v-6.1h-11.5v-6.1h-42.2v6.1h-12v6.1h-12v6.1h-6.1v6.1h-6.1v6.1h-6.1v-6.1v-18.1h-6.1v-6.1h-42v6.1H173v36.1h-6.1v36.1h-6.1V749
			h-6.1v36.1h-6.1V749h-6.1v-30.2h-6.1v-36.1h-6.1v-36.1h-6.1v-6.1H82.6v6.1h-6.1v48.9h6.1v30.2h6.1v36.1h6.1v36.1h6.1V834h6.1v36.1
			h5.9v30.2h6.1v30.2h6.1v36.1h6.1v6.1h42.2v-6.1h6.1v-36.1h6.1v-30.2h6.1v-30.2h6.1V834h6.1v-36.1h6.1v108.6h6.1v-30.2v-24.1V719.5
			h-6.1v36.1h-6.1v36.1h-6.1V828h-6.1v36.1h-6.1v30.2h-6.3v30.2H173v36.1h-6.1v6.1h-30.2v-6.1h-6.1v-36.1h-6.1v-30.2h-6.1v-30.2
			h-5.7V828h-6.1v-36.1h-6.1v-36.1h-6.1v-36.1h-6.1v-30.2h-6.1v-36.1h6.1v-6.1h30.2v6.1h6.1v36.1h6.1v36.1h6.1v30.2h6.1v36.1h6.1
			V828h6.1v-36.1h6.1v-36.1h6.1v-30.2h6.1v-36.1h6.1v-36.1h6.1v-6.1h30.2v6.1h6.1v36.1h-6.1v18.1h6.1v-12.2h6.1v-12h6.1v-6.1h6.1
			v-6.1h6.1v-6.1h6.1V659h12v-6.1h12v-6.1h30.2v6.1h12v6.1h12v6.1h6.1v6.1h6.1v6.1h6.1v6.1h6.1v12h6.1v12h6.1v48.2v6.1v144.7H361v12
			h-6.1v12h-6.1v6.1h-6.1v6.1h-6.1v6.1h-6.1v6.1h-12v6.1h-12v6.1h-30.2v-6.3h-12v-6.1h-12v-6.1h-6.7v-6.1h-6.1v-6.1h-6.1v-6.1h-6.1
			v-12h-6.1v-12H215v18.1h6.1v12h6.1v6.1h6.1v6.1h6.1v6.1h6.1v6.1h12v6.1h12v6.1h42.2v-6.1h12v-6.1h12v-6.1h6.1v-6.1h6.1v-6.1h6.1
			v-6.1h6.1v-12h6.1v36.4h6.1v6.1h42.2v-6.1h6.1V846.1h6.1v18.1h6.1v18.1h6.1v24.1h6.1v18.1h6.1v18.1h6.1v17.9h6.1v6.1h42.2v-6.1
			h6.1v6.1H626v-6.1h6.1v-18.1h6.1v6.1h6.1v6.1h6.1v6.1h12v6.1h12v6.1h42.2v-6.1h12v-6.2h12v-6.1h6.1v-6.1h6.1v-6.1h6.1v-6.1h6.1
			v-12h6.1v36.4h6.1v6.1h42.2v-6.1h6.1V834.1h6.1v18.1h6.1v18.1h6.1v18.1h6.1v18.1h6.1v18.1h6.1v18.1h6.1v17.8h6.1v6.1h48.2v-6.1
			h6.1v6.1h36.1v-6.1h6.1v-24.1h6.1v6.1h6.1v6.1h6.1v6.1h6.1v6.1h12v6.1h12v6.1h42.2V967h12v-6.3h12v-6.1h6.1v-6.1h6.1v-6.1h6.1
			v-6.1h6.1v-12h6.1v-6.1h6.1v6.1h6.1v12h6.1v6.1h6.1v6.1h6.1v6.1h6.1v6.1h12v6.1h12v6.1h42.2v-6.1h12v-6.1h12v-6.1h6.1v-6.1h6.1
			v-6.1h6.1v-6.1h6.1v-12h6.1v-63c-1.5,0-6.1-0.3-6.1-0.3v-9.1h-6.1v-12h-6.1V828h-6.1v-12h-6.1v-6.1h-6.1v-6.1h-6.1v-6.1h-6.1v-6.1
			h-6.1v-6.1h-6.1v-6.1h-6.1v-6.1h-6.1v-6.1h-6.1v-12h-6.1v-12h-6.1v-12h-6.1v-24.1h6.1V701h12v-5.6h6.1v6.1h12v6.1h6.1v12h6.1v48.2
			h6.1v6.1h40.1V773.7z M504.7,954.6h-6.1v6.1h-30.2v-6.1h-6.1v-18.1h-6.1v-18.1h-6.1v-18.1h-5.7v-24.1h-6.1V858h-6.1v-18.1h-6.1
			v-18.1h-12v132.7H408v6.1h-30v-6.1H372V653.1h6.1V647h84.5v6.1h12v6.1h6.1v6.1h6.1v6.1h6.1v6.1h6.1v12h6.1V786h-6.1v12h-6.1v6.1
			h-6.1v6.1h-6.1v6.1h-12v30.2h6.1v18.1h6.1v18.1h6.1v18.1h6.1V919h6.1v18.1h6.1v17.5H504.7z M498.7,909.4v-15h-6.1v-18.1h-6.1
			v-18.1h-6.1V840h-6.1v-18.1h12v-6.1h6.1v-6.1h6.1v-6.1h6.1v105.6C507.8,910,498.7,909.4,498.7,909.4z M625.3,954.6h-6.1v6.1H516.7
			v-6.1h-6V653.1h6.1V647H547v6.1h6.1v265.3h66.3v6.1h6.1v30.1H625.3z M920.8,954.6h-6.1v6.1h-36.1v-6.1h-6.1v-18.1h-6.1v-18.1h-6.1
			v-18.1h-6.1v-18.1h-6.1v-18.1h-5.7v-18.1h-6.1V828h-6.1v-18.1h-6.1v-18.1h-6.1v162.8H812v6.1h-30.2v-6.1h-5.7V653.1h6.1V647h30.2
			v6.1h6.1v18.1h6.1v18.1h6.1v18.1h6.1v18.1h6.1v18.1h6.1v17.9h6.1v18.1h6.1v18.1h6.1v18.1h6.1v18.1h6.1V653.1h6.1V647h30.2v6.1h6.1
			v301.5H920.8z M963,954.6h-6.1v6.1h-24.1v-6.1h-6.1v-30.2h6.1v-6.1h24.1v6.1h6.1V954.6z M1113.8,906.4h-6.1v12h-6.1v12h-6.1v6.1
			h-6.1v6.1h-6.1v6.1h-6.1v6.1h-12v6.1h-12v6.1H1023v-6.3h-12v-6.1h-12v-6.1h-6.1v-6.1h-6.1v-6.1h-6.1v-6.1H975v-12H969v-12h-6.1
			v-54.3h6.1v-6.1h30.2v6.1h6.1v48.2h6.1v12h6.1v6.1h12v6.1h18.1v-6.1h12v-6.1h6.1v-12h6.1v-247h6.1V647h29.8v6.1h6.1V906.4z
			 M1119.8,749.6h6.1v12h6.1v12h6.1v12h6.1v12h6.1v6.1h6.1v6.1h6.1v6.1h6.1v6.1h6.1c3,0,0,6.1,0,6.1h6.1v6.1h6.1v6.1h6.1v6.1h6.1v12
			h6.1v12h6.1v12h6.1v24.1h-6.1v6.1h-12v6.1h-6.1v-6.1h-12v-6.1h-6.1v-12.4h-6.1v-48.2h-6.1v-6.1h-42.2v-90.4H1119.8z M1222.2,713.5
			v-12h-6.1v-6.1h-12v-6.1H1186v6.1H1174v6.1h-6.1v36.1h6.1v12h6.1v12h6.1v12h6.1v6.1h6.1v6.1h6.1v6.1h6.1v6.1h6.1v6.1h6.1v6.1h6.1
			v6.1h6.1v6.1h6.1v12h6.1v12h6.1v12h6.1v12h6.1v48.2h-6.1v12h-6.1v6.1h-6.1v6.1h-6.1v6.1h-6.1v6.1h-12v6.1h-12v6.1h-30.2v-6.6h-12
			v-6.1h-12v-6.1h-6.1v-6.1h-6.1v-6.1h-6.1v-6.1h-6.1v-12h-6.1v-18.1h-6.1v-48.2h6.1v-6.1h30.2v6.1h6.1v48.2h6.1v12h6.1v6.1h12v6.1
			h18.1v-6.1h12v-6.1h6.1V876h-6.1v-12h-6.1v-12h-6.1v-12h-6.1v-6.1h-6.1V828h-6.1v-6.1h-6.1v-6.1h-6.1v-6.1h-6.1v-6.1h-6.1v-6.1
			h-6.1v-6.1h-6.1v-12h-6.1v-12h-6.1v-12h-6.1v-12h-6.1v-48h6.1v-12h6.1v-6.1h6.1v-6.1h6.1v-6.1h6.1V659h12v-6.1h12v-6.1h30.2v6.1
			h12v6.1h12v6.1h6.1v6.1h6.1v6.1h6.1v6.1h6.1v12h6.1v18.1h6.1v48.2h-6.1v6.1h-30.2v-6.1h-6.1v-48.2H1222.2z"/>
		<path fill="#59395E" d="M462.5,779.8v-84.5h-12v-6.1h-36.1v96.5h36.1v-6.1h12V779.8z M444.4,773.7v6.1h-24.1v-84.5h24.1v6.1h12
			v72.4h-12V773.7z"/>
		<path fill="#59395E" d="M257.5,876.2v24.1h6.1v12h6.1v6.1h12v6.1h18.1v-6.1h11.9v-6.1h6.1v-12h6.1V761.7v-6.1v-42.2h-6.1v-12h-6.1
			v-6h-12v-6.1h-18.1v6.1h-12v6.1h-6.1v12h-6.1v138.7v24H257.5z M263.6,719.5h6.1v-12h6.1v-6.1h12v-6h6.1v6.1h12v6.1h6.1v12h6.1
			v174.8h-6.3v12h-6.1v6.1h-12v6.1h-6.1v-6.1h-12v-6.1h-6.1v-12h-6.1V719.5H263.6z"/>
	</g>
	<g>
		<rect x="1180.1" y="647.2" fill="#3C1942" width="30.2" height="6.1"/>
		<rect x="1210.2" y="653.1" fill="#3C1942" width="12" height="6.1"/>
		<rect x="1222.2" y="659.2" fill="#3C1942" width="12" height="6.1"/>
		<rect x="1246.4" y="677.2" fill="#3C1942" width="6.1" height="6.1"/>
		<rect x="1240.4" y="671.3" fill="#3C1942" width="6.1" height="6.1"/>
		<rect x="1234.3" y="665.2" fill="#3C1942" width="6.1" height="6.1"/>
		<rect x="1252.4" y="683.3" fill="#3C1942" width="6.1" height="12"/>
		<rect x="1258.5" y="695.4" fill="#3C1942" width="6.1" height="18.1"/>
		<rect x="1264.5" y="713.5" fill="#3C1942" width="6.1" height="48.2"/>
		<rect x="1234.3" y="761.7" fill="#3C1942" width="30.2" height="6.1"/>
		<rect x="1228.3" y="713.5" fill="#3C1942" width="6.1" height="48.2"/>
		<rect x="1222.2" y="701.4" fill="#3C1942" width="6.1" height="12"/>
		<rect x="1216.3" y="695.4" fill="#3C1942" width="6.1" height="6.1"/>
		<rect x="1204.2" y="689.3" fill="#3C1942" width="12" height="6.1"/>
		<rect x="1186.1" y="683.3" fill="#3C1942" width="18.1" height="6.1"/>
		<rect x="1174" y="689.3" fill="#3C1942" width="12" height="6.1"/>
		<rect x="1168" y="695.4" fill="#3C1942" width="6.1" height="6.1"/>
		<rect x="1162" y="701.4" fill="#3C1942" width="6.1" height="36.1"/>
		<rect x="1168" y="737.6" fill="#3C1942" width="6.1" height="12"/>
		<rect x="1174" y="749.6" fill="#3C1942" width="6.1" height="12"/>
		<rect x="1180.1" y="761.7" fill="#3C1942" width="6.1" height="12"/>
		<rect x="1186.1" y="773.7" fill="#3C1942" width="6.1" height="6.1"/>
		<rect x="1192.2" y="779.8" fill="#3C1942" width="6.1" height="6.1"/>
		<rect x="1198.1" y="785.8" fill="#3C1942" width="6.1" height="6.1"/>
		<rect x="1204.2" y="791.9" fill="#3C1942" width="6.1" height="6.1"/>
		<rect x="1210.2" y="797.8" fill="#3C1942" width="6.1" height="6.1"/>
		<rect x="1234.3" y="821.9" fill="#3C1942" width="6.1" height="12"/>
		<rect x="1228.3" y="816" fill="#3C1942" width="6.1" height="6.1"/>
		<rect x="1222.2" y="809.9" fill="#3C1942" width="6.1" height="6.1"/>
		<rect x="1216.3" y="803.9" fill="#3C1942" width="6.1" height="6.1"/>
		<rect x="1240.4" y="834.1" fill="#3C1942" width="6.1" height="12"/>
		<rect x="1246.4" y="846.1" fill="#3C1942" width="6.1" height="12"/>
		<rect x="1252.4" y="858.2" fill="#3C1942" width="6.1" height="12"/>
		<rect x="1258.5" y="870.2" fill="#3C1942" width="6.1" height="48.2"/>
		<rect x="1252.4" y="918.4" fill="#3C1942" width="6.1" height="12"/>
		<rect x="1246.4" y="930.5" fill="#3C1942" width="6.1" height="6.1"/>
		<rect x="1240.4" y="936.6" fill="#3C1942" width="6.1" height="6.1"/>
		<rect x="1234.3" y="942.5" fill="#3C1942" width="6.1" height="6.1"/>
		<rect x="1216.3" y="912.5" fill="#3C1942" width="6.1" height="6.1"/>
		<rect x="1168" y="912.5" fill="#3C1942" width="6.1" height="6.1"/>
		<rect x="1174" y="918.4" fill="#3C1942" width="12" height="6.1"/>
		<rect x="1186.1" y="924.5" fill="#3C1942" width="18.1" height="6.1"/>
		<rect x="1204.2" y="918.4" fill="#3C1942" width="12" height="6.1"/>
		<rect x="1162" y="900.4" fill="#3C1942" width="6.1" height="12"/>
		<rect x="1155.9" y="852.1" fill="#3C1942" width="6.1" height="48.2"/>
		<rect x="1125.8" y="846.1" fill="#3C1942" width="30.2" height="6.1"/>
		<rect x="1119.8" y="852.1" fill="#3C1942" width="6.1" height="48.2"/>
		<rect x="1125.8" y="900.4" fill="#3C1942" width="6.1" height="18.1"/>
		<rect x="1131.8" y="918.4" fill="#3C1942" width="6.1" height="12"/>
		<rect x="1137.9" y="930.5" fill="#3C1942" width="6.1" height="6.1"/>
		<rect x="1143.9" y="936.6" fill="#3C1942" width="6.1" height="6.1"/>
		<rect x="1149.9" y="942.5" fill="#3C1942" width="6.1" height="6.1"/>
		<rect x="1155.9" y="948.6" fill="#3C1942" width="12" height="6.1"/>
		<rect x="1168" y="954.6" fill="#3C1942" width="12" height="6.1"/>
		<rect x="1210.2" y="954.6" fill="#3C1942" width="12" height="6.1"/>
		<rect x="1222.2" y="948.6" fill="#3C1942" width="12" height="6.1"/>
		<rect x="1180.1" y="960.7" fill="#3C1942" width="30.2" height="6.1"/>
		<rect x="1222.2" y="876.2" fill="#3C1942" width="6.1" height="36.1"/>
		<rect x="1216.3" y="864.2" fill="#3C1942" width="6.1" height="12"/>
		<rect x="1210.2" y="852.1" fill="#3C1942" width="6.1" height="12"/>
		<rect x="1204.2" y="840.1" fill="#3C1942" width="6.1" height="12"/>
		<rect x="1198.1" y="834.1" fill="#3C1942" width="6.1" height="6.1"/>
		<rect x="1192.2" y="828" fill="#3C1942" width="6.1" height="6.1"/>
		<rect x="1186.1" y="821.9" fill="#3C1942" width="6.1" height="6.1"/>
		<rect x="1180.1" y="816" fill="#3C1942" width="6.1" height="6.1"/>
		<rect x="1174" y="809.9" fill="#3C1942" width="6.1" height="6.1"/>
		<rect x="1168" y="803.9" fill="#3C1942" width="6.1" height="6.1"/>
		<rect x="1162" y="797.8" fill="#3C1942" width="6.1" height="6.1"/>
		<rect x="1155.9" y="791.9" fill="#3C1942" width="6.1" height="6.1"/>
		<rect x="1149.9" y="779.8" fill="#3C1942" width="6.1" height="12"/>
		<rect x="1143.9" y="767.8" fill="#3C1942" width="6.1" height="12"/>
		<rect x="1137.9" y="755.6" fill="#3C1942" width="6.1" height="12"/>
		<rect x="1131.8" y="743.6" fill="#3C1942" width="6.1" height="12"/>
		<rect x="1125.8" y="695.4" fill="#3C1942" width="6.1" height="48.2"/>
		<rect x="1131.8" y="683.3" fill="#3C1942" width="6.1" height="12"/>
		<rect x="1137.9" y="677.2" fill="#3C1942" width="6.1" height="6.1"/>
		<rect x="1143.9" y="671.3" fill="#3C1942" width="6.1" height="6.1"/>
		<rect x="1149.9" y="665.2" fill="#3C1942" width="6.1" height="6.1"/>
		<rect x="1155.9" y="659.2" fill="#3C1942" width="12" height="6.1"/>
		<rect x="1168" y="653.1" fill="#3C1942" width="12" height="6.1"/>
		<rect x="956.9" y="924.5" fill="#3C1942" width="6.1" height="30.2"/>
		<rect x="932.8" y="954.6" fill="#3C1942" width="24.1" height="6.1"/>
		<rect x="932.8" y="918.4" fill="#3C1942" width="24.1" height="6.1"/>
		<rect x="926.9" y="924.5" fill="#3C1942" width="6.1" height="30.2"/>
		<rect x="82.6" y="653.1" fill="#3C1942" width="6.1" height="36.1"/>
		<rect x="118.9" y="653.1" fill="#3C1942" width="6.1" height="36.1"/>
		<rect x="179.1" y="653.1" fill="#3C1942" width="6.1" height="36.1"/>
		<rect x="215.3" y="653.1" fill="#3C1942" width="6.1" height="36.1"/>
		<rect x="173" y="689.3" fill="#3C1942" width="6.1" height="36.1"/>
		<rect x="124.8" y="689.3" fill="#3C1942" width="6.1" height="36.1"/>
		<rect x="88.7" y="689.3" fill="#3C1942" width="6.1" height="30.2"/>
		<rect x="167.1" y="725.5" fill="#3C1942" width="6.1" height="30.2"/>
		<rect x="130.9" y="725.5" fill="#3C1942" width="6.1" height="30.2"/>
		<rect x="203.2" y="719.5" fill="#3C1942" width="6.1" height="36.1"/>
		<rect x="94.6" y="719.5" fill="#3C1942" width="6.1" height="36.1"/>
		<rect x="161" y="755.6" fill="#3C1942" width="6.1" height="36.1"/>
		<rect x="197.2" y="755.6" fill="#3C1942" width="6.1" height="36.1"/>
		<rect x="100.7" y="755.6" fill="#3C1942" width="6.1" height="36.1"/>
		<rect x="136.9" y="755.6" fill="#3C1942" width="6.1" height="36.1"/>
		<rect x="155" y="791.9" fill="#3C1942" width="6.1" height="36.1"/>
		<rect x="143" y="791.9" fill="#3C1942" width="6.1" height="36.1"/>
		<rect x="191.2" y="791.9" fill="#3C1942" width="6.1" height="36.1"/>
		<rect x="106.7" y="791.9" fill="#3C1942" width="6.1" height="36.1"/>
		<rect x="148.9" y="828" fill="#3C1942" width="6.1" height="30.2"/>
		<rect x="185.2" y="828" fill="#3C1942" width="6.1" height="36.1"/>
		<rect x="112.8" y="828" fill="#3C1942" width="6.1" height="36.1"/>
		<rect x="167.1" y="924.5" fill="#3C1942" width="6.1" height="36.1"/>
		<rect x="130.9" y="924.5" fill="#3C1942" width="6.1" height="36.1"/>
		<rect x="173" y="894.3" fill="#3C1942" width="6.1" height="30.2"/>
		<rect x="124.8" y="894.3" fill="#3C1942" width="6.1" height="30.2"/>
		<rect x="179.1" y="864.2" fill="#3C1942" width="6.1" height="30.2"/>
		<rect x="118.9" y="864.2" fill="#3C1942" width="6.1" height="30.2"/>
		<rect x="136.9" y="960.7" fill="#3C1942" width="30.2" height="6.1"/>
		<rect x="88.7" y="647.2" fill="#3C1942" width="30.2" height="6.1"/>
		<rect x="185.2" y="647.2" fill="#3C1942" width="30.2" height="6.1"/>
		<rect x="619.3" y="924.5" fill="#3C1942" width="6.1" height="30.2"/>
		<rect x="516.8" y="954.6" fill="#3C1942" width="102.5" height="6.1"/>
		<rect x="516.8" y="647.2" fill="#3C1942" width="30.2" height="6.1"/>
		<polygon fill="#3C1942" points="546.9,924.5 553,924.5 619.3,924.5 619.3,918.4 553,918.4 553,653.1 546.9,653.1 546.9,918.4 		
			"/>
		<rect x="510.7" y="653.1" fill="#3C1942" width="6.1" height="301.5"/>
		<rect x="378.1" y="954.6" fill="#3C1942" width="30.2" height="6.1"/>
		<polygon fill="#3C1942" points="432.4,816 426.3,816 414.2,816 408.3,816 408.3,821.9 408.3,954.6 414.2,954.6 414.2,821.9 
			426.3,821.9 426.3,840.1 432.4,840.1 432.4,821.9 		"/>
		<rect x="450.5" y="779.8" fill="#3C1942" width="12" height="6.1"/>
		<rect x="462.5" y="695.4" fill="#3C1942" width="6.1" height="84.5"/>
		<rect x="450.5" y="689.3" fill="#3C1942" width="12" height="6.1"/>
		<rect x="372" y="653.1" fill="#3C1942" width="6.1" height="301.5"/>
		<rect x="378.1" y="647.2" fill="#3C1942" width="84.5" height="6.1"/>
		<rect x="462.5" y="653.1" fill="#3C1942" width="12" height="6.1"/>
		<rect x="474.6" y="659.2" fill="#3C1942" width="6.1" height="6.1"/>
		<rect x="480.6" y="665.2" fill="#3C1942" width="6.1" height="6.1"/>
		<rect x="486.6" y="671.3" fill="#3C1942" width="6.1" height="6.1"/>
		<rect x="492.6" y="677.2" fill="#3C1942" width="6.1" height="12"/>
		<rect x="498.7" y="689.3" fill="#3C1942" width="6.1" height="96.5"/>
		<rect x="492.6" y="785.8" fill="#3C1942" width="6.1" height="12"/>
		<rect x="486.6" y="797.8" fill="#3C1942" width="6.1" height="6.1"/>
		<rect x="480.6" y="803.9" fill="#3C1942" width="6.1" height="6.1"/>
		<rect x="468.5" y="809.9" fill="#3C1942" width="12" height="6.1"/>
		<rect x="462.5" y="816" fill="#3C1942" width="6.1" height="30.2"/>
		<rect x="468.5" y="846.1" fill="#3C1942" width="6.1" height="18.1"/>
		<rect x="474.6" y="864.2" fill="#3C1942" width="6.1" height="18.1"/>
		<rect x="480.6" y="882.3" fill="#3C1942" width="6.1" height="18.1"/>
		<rect x="486.6" y="900.4" fill="#3C1942" width="6.1" height="18.1"/>
		<rect x="468.5" y="954.6" fill="#3C1942" width="30.2" height="6.1"/>
		<rect x="498.7" y="936.6" fill="#3C1942" width="6.1" height="18.1"/>
		<rect x="492.6" y="918.4" fill="#3C1942" width="6.1" height="18.1"/>
		<rect x="462.5" y="936.6" fill="#3C1942" width="6.1" height="18.1"/>
		<rect x="456.5" y="918.4" fill="#3C1942" width="6.1" height="18.1"/>
		<rect x="450.5" y="900.4" fill="#3C1942" width="6.1" height="18.1"/>
		<rect x="444.4" y="876.2" fill="#3C1942" width="6.1" height="24.1"/>
		<rect x="438.3" y="858.2" fill="#3C1942" width="6.1" height="18.1"/>
		<rect x="432.4" y="840.1" fill="#3C1942" width="6.1" height="18.1"/>
		<rect x="884.6" y="647.2" fill="#3C1942" width="30.2" height="6.1"/>
		<rect x="860.5" y="797.8" fill="#3C1942" width="6.1" height="18.1"/>
		<rect x="830.3" y="809.9" fill="#3C1942" width="6.1" height="18.1"/>
		<rect x="824.3" y="791.9" fill="#3C1942" width="6.1" height="18.1"/>
		<rect x="782.1" y="647.2" fill="#3C1942" width="30.2" height="6.1"/>
		<rect x="776.1" y="653.1" fill="#3C1942" width="6.1" height="301.5"/>
		<polygon fill="#3C1942" points="818.3,773.7 818.3,755.6 812.2,755.6 812.2,954.6 818.3,954.6 818.3,791.9 824.3,791.9 
			824.3,773.7 		"/>
		<polygon fill="#3C1942" points="878.5,852.1 878.5,870.2 884.6,870.2 884.6,852.1 884.6,834.1 884.6,653.1 878.5,653.1 
			878.5,834.1 872.6,834.1 872.6,852.1 		"/>
		<rect x="866.5" y="816" fill="#3C1942" width="6.1" height="18.1"/>
		<rect x="878.5" y="954.6" fill="#3C1942" width="36.1" height="6.1"/>
		<rect x="914.8" y="653.1" fill="#3C1942" width="6.1" height="301.5"/>
		<rect x="872.6" y="936.6" fill="#3C1942" width="6.1" height="18.1"/>
		<rect x="866.5" y="918.4" fill="#3C1942" width="6.1" height="18.1"/>
		<rect x="854.4" y="779.8" fill="#3C1942" width="6.1" height="18.1"/>
		<rect x="848.5" y="761.7" fill="#3C1942" width="6.1" height="18.1"/>
		<rect x="842.4" y="743.6" fill="#3C1942" width="6.1" height="18.1"/>
		<rect x="836.3" y="725.5" fill="#3C1942" width="6.1" height="18.1"/>
		<rect x="830.3" y="707.4" fill="#3C1942" width="6.1" height="18.1"/>
		<rect x="824.3" y="689.3" fill="#3C1942" width="6.1" height="18.1"/>
		<rect x="818.3" y="671.3" fill="#3C1942" width="6.1" height="18.1"/>
		<rect x="812.2" y="653.1" fill="#3C1942" width="6.1" height="18.1"/>
		<rect x="782.1" y="954.6" fill="#3C1942" width="30.2" height="6.1"/>
		<rect x="860.5" y="900.4" fill="#3C1942" width="6.1" height="18.1"/>
		<rect x="854.4" y="882.3" fill="#3C1942" width="6.1" height="18.1"/>
		<rect x="848.5" y="864.2" fill="#3C1942" width="6.1" height="18.1"/>
		<rect x="842.4" y="846.1" fill="#3C1942" width="6.1" height="18.1"/>
		<rect x="836.3" y="828" fill="#3C1942" width="6.1" height="18.1"/>
		<polygon fill="#3C1942" points="414.2,689.3 450.5,689.3 450.5,683.3 414.2,683.3 408.3,683.3 408.3,689.3 408.3,785.8 
			408.3,791.9 450.5,791.9 450.5,785.8 414.2,785.8 		"/>
		<rect x="1017.3" y="918.4" fill="#3C1942" width="12" height="6.1"/>
		<rect x="1011.2" y="912.5" fill="#3C1942" width="6.1" height="6.1"/>
		<rect x="1005.2" y="900.4" fill="#3C1942" width="6.1" height="12"/>
		<rect x="1065.5" y="900.4" fill="#3C1942" width="6.1" height="12"/>
		<rect x="1101.6" y="906.4" fill="#3C1942" width="6.1" height="12"/>
		<rect x="969" y="906.4" fill="#3C1942" width="6.1" height="12"/>
		<rect x="975" y="918.4" fill="#3C1942" width="6.1" height="12"/>
		<rect x="981.1" y="930.5" fill="#3C1942" width="6.1" height="6.1"/>
		<rect x="987.1" y="936.6" fill="#3C1942" width="6.1" height="6.1"/>
		<rect x="993.2" y="942.5" fill="#3C1942" width="6.1" height="6.1"/>
		<rect x="999.1" y="948.6" fill="#3C1942" width="12" height="6.1"/>
		<rect x="1011.2" y="954.6" fill="#3C1942" width="12" height="6.1"/>
		<rect x="1023.2" y="960.7" fill="#3C1942" width="30.2" height="6.1"/>
		<rect x="1071.6" y="653.1" fill="#3C1942" width="6.1" height="247.2"/>
		<rect x="969" y="846.1" fill="#3C1942" width="30.2" height="6.1"/>
		<rect x="963" y="852.1" fill="#3C1942" width="6.1" height="54.3"/>
		<rect x="999.1" y="852.1" fill="#3C1942" width="6.1" height="48.2"/>
		<rect x="1029.3" y="924.5" fill="#3C1942" width="18.1" height="6.1"/>
		<rect x="1047.5" y="918.4" fill="#3C1942" width="12" height="6.1"/>
		<rect x="1059.5" y="912.5" fill="#3C1942" width="6.1" height="6.1"/>
		<rect x="1107.7" y="653.1" fill="#3C1942" width="6.1" height="253.3"/>
		<rect x="1053.4" y="954.6" fill="#3C1942" width="12" height="6.1"/>
		<rect x="1065.5" y="948.6" fill="#3C1942" width="12" height="6.1"/>
		<rect x="1077.5" y="942.5" fill="#3C1942" width="6.1" height="6.1"/>
		<rect x="1083.6" y="936.6" fill="#3C1942" width="6.1" height="6.1"/>
		<rect x="1089.6" y="930.5" fill="#3C1942" width="6.1" height="6.1"/>
		<rect x="1095.7" y="918.4" fill="#3C1942" width="6.1" height="12"/>
		<rect x="1077.5" y="647.2" fill="#3C1942" width="30.2" height="6.1"/>
		<rect x="269.5" y="918.4" fill="#3C1942" width="12" height="6.1"/>
		<rect x="263.6" y="912.5" fill="#3C1942" width="6.1" height="6.1"/>
		<rect x="257.5" y="900.4" fill="#3C1942" width="6.1" height="12"/>
		<rect x="317.8" y="900.4" fill="#3C1942" width="6.1" height="12"/>
		<rect x="354" y="906.4" fill="#3C1942" width="6.1" height="12"/>
		<rect x="221.3" y="906.4" fill="#3C1942" width="6.1" height="12"/>
		<rect x="227.3" y="918.4" fill="#3C1942" width="6.1" height="12"/>
		<rect x="233.4" y="930.5" fill="#3C1942" width="6.1" height="6.1"/>
		<rect x="239.4" y="936.6" fill="#3C1942" width="6.1" height="6.1"/>
		<rect x="245.4" y="942.5" fill="#3C1942" width="6.1" height="6.1"/>
		<rect x="251.5" y="948.6" fill="#3C1942" width="12" height="6.1"/>
		<rect x="263.6" y="954.6" fill="#3C1942" width="12" height="6.1"/>
		<rect x="275.6" y="960.7" fill="#3C1942" width="30.2" height="6.1"/>
		<rect x="281.6" y="924.5" fill="#3C1942" width="18.1" height="6.1"/>
		<rect x="299.7" y="918.4" fill="#3C1942" width="12" height="6.1"/>
		<rect x="311.8" y="912.5" fill="#3C1942" width="6.1" height="6.1"/>
		<rect x="305.7" y="954.6" fill="#3C1942" width="12" height="6.1"/>
		<rect x="317.8" y="948.6" fill="#3C1942" width="12" height="6.1"/>
		<rect x="329.9" y="942.5" fill="#3C1942" width="6.1" height="6.1"/>
		<rect x="335.9" y="936.6" fill="#3C1942" width="6.1" height="6.1"/>
		<rect x="341.9" y="930.5" fill="#3C1942" width="6.1" height="6.1"/>
		<rect x="347.9" y="918.4" fill="#3C1942" width="6.1" height="12"/>
		<rect x="299.7" y="689.3" fill="#3C1942" width="12" height="6.1"/>
		<rect x="311.8" y="695.4" fill="#3C1942" width="6.1" height="6.1"/>
		<rect x="317.8" y="701.4" fill="#3C1942" width="6.1" height="12"/>
		<rect x="257.5" y="701.4" fill="#3C1942" width="6.1" height="12"/>
		<rect x="221.3" y="695.4" fill="#3C1942" width="6.1" height="12"/>
		<rect x="354" y="695.4" fill="#3C1942" width="6.1" height="12"/>
		<rect x="347.9" y="683.3" fill="#3C1942" width="6.1" height="12"/>
		<rect x="341.9" y="677.2" fill="#3C1942" width="6.1" height="6.1"/>
		<rect x="335.9" y="671.3" fill="#3C1942" width="6.1" height="6.1"/>
		<rect x="329.9" y="665.2" fill="#3C1942" width="6.1" height="6.1"/>
		<rect x="317.8" y="659.2" fill="#3C1942" width="12" height="6.1"/>
		<rect x="305.7" y="653.1" fill="#3C1942" width="12" height="6.1"/>
		<rect x="275.6" y="647.2" fill="#3C1942" width="30.2" height="6.1"/>
		<polygon fill="#3C1942" points="257.5,852.1 257.5,713.5 251.5,713.5 251.5,852.1 251.5,876.2 251.5,900.4 257.5,900.4 
			257.5,876.2 		"/>
		<polygon fill="#3C1942" points="360,755.6 360,761.7 360,906.4 366,906.4 366,761.7 366,755.6 366,707.4 360,707.4 		"/>
		<polygon fill="#3C1942" points="323.8,755.6 323.8,761.7 323.8,900.4 329.9,900.4 329.9,761.7 329.9,755.6 329.9,713.5 
			323.8,713.5 		"/>
		<rect x="281.6" y="683.3" fill="#3C1942" width="18.1" height="6.1"/>
		<rect x="269.5" y="689.3" fill="#3C1942" width="12" height="6.1"/>
		<rect x="263.6" y="695.4" fill="#3C1942" width="6.1" height="6.1"/>
		<polygon fill="#3C1942" points="221.3,852.1 221.3,707.4 215.3,707.4 215.3,689.3 209.3,689.3 209.3,719.5 215.3,719.5 
			215.3,852.1 215.3,876.2 215.3,906.4 221.3,906.4 221.3,876.2 		"/>
		<rect x="263.6" y="653.1" fill="#3C1942" width="12" height="6.1"/>
		<rect x="251.5" y="659.2" fill="#3C1942" width="12" height="6.1"/>
		<rect x="245.4" y="665.2" fill="#3C1942" width="6.1" height="6.1"/>
		<rect x="239.4" y="671.3" fill="#3C1942" width="6.1" height="6.1"/>
		<rect x="233.4" y="677.2" fill="#3C1942" width="6.1" height="6.1"/>
		<rect x="227.3" y="683.3" fill="#3C1942" width="6.1" height="12"/>
		<rect x="673.6" y="918.4" fill="#3C1942" width="12" height="6.1"/>
		<rect x="667.5" y="912.5" fill="#3C1942" width="6.1" height="6.1"/>
		<rect x="661.5" y="900.4" fill="#3C1942" width="6.1" height="12"/>
		<rect x="721.8" y="900.4" fill="#3C1942" width="6.1" height="12"/>
		<rect x="757.9" y="906.4" fill="#3C1942" width="6.1" height="12"/>
		<rect x="625.3" y="906.4" fill="#3C1942" width="6.1" height="12"/>
		<rect x="631.4" y="918.4" fill="#3C1942" width="6.1" height="12"/>
		<rect x="637.3" y="930.5" fill="#3C1942" width="6.1" height="6.1"/>
		<rect x="643.4" y="936.6" fill="#3C1942" width="6.1" height="6.1"/>
		<rect x="649.5" y="942.5" fill="#3C1942" width="6.1" height="6.1"/>
		<rect x="655.5" y="948.6" fill="#3C1942" width="12" height="6.1"/>
		<rect x="667.5" y="954.6" fill="#3C1942" width="12" height="6.1"/>
		<rect x="679.6" y="960.7" fill="#3C1942" width="30.2" height="6.1"/>
		<rect x="685.6" y="924.5" fill="#3C1942" width="18.1" height="6.1"/>
		<rect x="703.7" y="918.4" fill="#3C1942" width="12" height="6.1"/>
		<rect x="715.8" y="912.5" fill="#3C1942" width="6.1" height="6.1"/>
		<rect x="709.7" y="954.6" fill="#3C1942" width="12" height="6.1"/>
		<rect x="721.8" y="948.6" fill="#3C1942" width="12" height="6.1"/>
		<rect x="733.8" y="942.5" fill="#3C1942" width="6.1" height="6.1"/>
		<rect x="739.9" y="936.6" fill="#3C1942" width="6.1" height="6.1"/>
		<rect x="745.9" y="930.5" fill="#3C1942" width="6.1" height="6.1"/>
		<rect x="752" y="918.4" fill="#3C1942" width="6.1" height="12"/>
		<rect x="703.7" y="689.3" fill="#3C1942" width="12" height="6.1"/>
		<rect x="715.8" y="695.4" fill="#3C1942" width="6.1" height="6.1"/>
		<rect x="721.8" y="701.4" fill="#3C1942" width="6.1" height="12"/>
		<rect x="661.5" y="701.4" fill="#3C1942" width="6.1" height="12"/>
		<rect x="625.3" y="695.4" fill="#3C1942" width="6.1" height="12"/>
		<rect x="757.9" y="695.4" fill="#3C1942" width="6.1" height="12"/>
		<rect x="752" y="683.3" fill="#3C1942" width="6.1" height="12"/>
		<rect x="745.9" y="677.2" fill="#3C1942" width="6.1" height="6.1"/>
		<rect x="739.9" y="671.3" fill="#3C1942" width="6.1" height="6.1"/>
		<rect x="733.8" y="665.2" fill="#3C1942" width="6.1" height="6.1"/>
		<rect x="721.8" y="659.2" fill="#3C1942" width="12" height="6.1"/>
		<rect x="709.7" y="653.1" fill="#3C1942" width="12" height="6.1"/>
		<rect x="679.6" y="647.2" fill="#3C1942" width="30.2" height="6.1"/>
		<polygon fill="#3C1942" points="661.5,852.1 661.5,713.5 655.5,713.5 655.5,852.1 655.5,876.2 655.5,900.4 661.5,900.4 
			661.5,876.2 		"/>
		<polygon fill="#3C1942" points="764,755.6 764,761.7 764,906.4 770,906.4 770,761.7 770,755.6 770,707.4 764,707.4 		"/>
		<polygon fill="#3C1942" points="727.9,755.6 727.9,761.7 727.9,900.4 733.8,900.4 733.8,761.7 733.8,755.6 733.8,713.5 
			727.9,713.5 		"/>
		<rect x="685.6" y="683.3" fill="#3C1942" width="18.1" height="6.1"/>
		<rect x="673.6" y="689.3" fill="#3C1942" width="12" height="6.1"/>
		<rect x="667.5" y="695.4" fill="#3C1942" width="6.1" height="6.1"/>
		<polygon fill="#3C1942" points="625.3,852.1 625.3,707.4 619.3,707.4 619.3,852.1 619.3,876.2 619.3,906.4 625.3,906.4 
			625.3,876.2 		"/>
		<rect x="667.5" y="653.1" fill="#3C1942" width="12" height="6.1"/>
		<rect x="655.5" y="659.2" fill="#3C1942" width="12" height="6.1"/>
		<rect x="649.5" y="665.2" fill="#3C1942" width="6.1" height="6.1"/>
		<rect x="643.4" y="671.3" fill="#3C1942" width="6.1" height="6.1"/>
		<rect x="637.3" y="677.2" fill="#3C1942" width="6.1" height="6.1"/>
		<rect x="631.4" y="683.3" fill="#3C1942" width="6.1" height="12"/>
	</g>
</g>
<g id="Dark_Grey">
	<polygon fill="#D5D5D5" points="155,852.1 155,858.2 148.9,858.2 148.9,852.1 118.9,852.1 118.9,864.2 124.8,864.2 124.8,894.3 
		130.9,894.3 130.9,924.5 136.9,924.5 136.9,960.7 167.1,960.7 167.1,924.5 173,924.5 173,894.3 179.1,894.3 179.1,864.2 
		185.2,864.2 185.2,852.1 	"/>
	<rect x="378.1" y="852.1" fill="#D5D5D5" width="30.2" height="102.5"/>
	<rect x="782.1" y="852.1" fill="#D5D5D5" width="30.2" height="102.5"/>
	<polygon fill="#D5D5D5" points="546.9,924.5 546.9,852.1 516.8,852.1 516.8,954.6 619.3,954.6 619.3,924.5 	"/>
	<polygon fill="#D5D5D5" points="498.7,954.6 468.5,954.6 468.5,936.6 462.5,936.6 462.5,918.4 456.5,918.4 456.5,900.4 
		450.5,900.4 450.5,876.2 444.4,876.2 444.4,858.2 438.3,858.2 438.3,852.1 468.5,852.1 468.5,864.2 474.6,864.2 474.6,882.3 
		480.6,882.3 480.6,900.4 486.6,900.4 486.6,918.4 492.6,918.4 492.6,936.6 498.7,936.6 	"/>
	<polygon fill="#D5D5D5" points="884.6,852.1 884.6,870.2 878.5,870.2 878.5,852.1 848.5,852.1 848.5,864.2 854.4,864.2 
		854.4,882.3 860.5,882.3 860.5,900.4 866.5,900.4 866.5,918.4 872.6,918.4 872.6,936.6 878.5,936.6 878.5,954.6 887.6,954.6 
		893.7,954.6 914.8,954.6 914.8,852.1 	"/>
	<path fill="#D5D5D5" d="M1252.4,870.2v-12h-6.1v-6.1h-24.1h-6.1c0,0-0.3,5.7,0,6.1v6.1h6.1v12h6.1v36.1h-6.1v6.1h-6.1v6.1h-12v6.1
		h-6.1h-12v-6.1H1174v-6.1h-6.1v-6.1h-6.1v-12h-6.1v-48.2h-30.2c0.6,0.6,0,48.2,0,48.2h6.1v18.1h6.1v12h6.1v6.1h6.1v6.1h6.1v6.1h12
		v6.1h12v6.1h18.1h12v-6.1h12v-6.1h12v-6.1h6.1v-6.1h6.1v-6.1h6.1v-12h6.1v-48.2h-6.3V870.2z"/>
	<rect x="932.8" y="924.5" fill="#D5D5D5" width="24.1" height="30.2"/>
	<path fill="#D5D5D5" d="M1077.5,852.1v48.2h-6.1v12h-6.1v6.1h-6.1v6.1h-3h-9.1v6.1h-18.1v-6.1h-3h-9.1v-6.1h-6.1v-6.1h-6.1v-12
		h-6.1V849c0,0-27.1,0.6-30.2,0v57.3h6.1v12h6.1v12h6.1v6.1h6.1v6.1h6.1v6.1h12v6.1h12v6.1h30.2v-6.1h12v-6.1h12v-6.1h6.1v-6.1h6.1
		v-6.1h6.1v-12h6.1v-12h6.1V852h-30.3V852.1z"/>
	<polygon fill="#D5D5D5" points="329.9,852.1 329.9,900.4 323.8,900.4 323.8,912.5 317.8,912.5 317.8,918.4 311.8,918.4 
		311.8,924.5 308.8,924.5 299.7,924.5 299.7,930.5 281.6,930.5 281.6,924.5 278.6,924.5 269.5,924.5 269.5,918.4 263.6,918.4 
		263.6,912.5 257.5,912.5 257.5,900.4 251.5,900.4 251.5,852.1 221.3,852.1 221.3,906.4 227.3,906.4 227.3,918.4 233.4,918.4 
		233.4,930.5 239.4,930.5 239.4,936.6 245.4,936.6 245.4,942.5 251.5,942.5 251.5,948.6 263.6,948.6 263.6,954.6 275.6,954.6 
		275.6,960.7 305.7,960.7 305.7,954.6 317.8,954.6 317.8,948.6 329.9,948.6 329.9,942.5 335.9,942.5 335.9,936.6 341.9,936.6 
		341.9,930.5 347.9,930.5 347.9,918.4 354,918.4 354,906.4 360,906.4 360,852.1 	"/>
	<polygon fill="#D5D5D5" points="733.8,852.1 733.8,900.4 727.9,900.4 727.9,912.5 721.8,912.5 721.8,918.4 715.8,918.4 
		715.8,924.5 712.7,924.5 703.7,924.5 703.7,930.5 685.6,930.5 685.6,924.5 682.6,924.5 673.6,924.5 673.6,918.4 667.5,918.4 
		667.5,912.5 661.5,912.5 661.5,900.4 655.5,900.4 655.5,852.1 625.3,852.1 625.3,906.4 631.4,906.4 631.4,918.4 637.3,918.4 
		637.3,930.5 643.4,930.5 643.4,936.6 649.5,936.6 649.5,942.5 655.5,942.5 655.5,948.6 667.5,948.6 667.5,954.6 679.6,954.6 
		679.6,960.7 709.7,960.7 709.7,954.6 721.8,954.6 721.8,948.6 733.8,948.6 733.8,942.5 739.9,942.5 739.9,936.6 745.9,936.6 
		745.9,930.5 752,930.5 752,918.4 757.9,918.4 757.9,906.4 764,906.4 764,852.1 	"/>
</g>
<g id="Medium_grey">
	<g>
		<polygon fill="#E0E0DF" points="148.9,852.1 148.9,828 143,828 143,821.9 112.8,821.9 112.8,828 118.9,828 118.9,852.1 		"/>
		<polygon fill="#E0E0DF" points="161,821.9 161,828 155,828 155,852.1 185.2,852.1 185.2,828 191.2,828 191.2,821.9 		"/>
	</g>
	<rect x="378.1" y="821.9" fill="#E0E0DF" width="30.2" height="30.2"/>
	<rect x="516.8" y="821.9" fill="#E0E0DF" width="30.2" height="30.2"/>
	<rect x="782.1" y="821.9" fill="#E0E0DF" width="30.2" height="30.2"/>
	<rect x="884.6" y="821.9" fill="#E0E0DF" width="30.2" height="30.2"/>
	<polygon fill="#E0E0DF" points="468.5,852.1 438.3,852.1 438.3,840.1 432.4,840.1 432.4,821.9 462.5,821.9 462.5,846.1 
		468.5,846.1 	"/>
	<path fill="#E0E0DF" d="M836.3,821.9h30.2v12h6.1v18.1h-24.1V846h-6.1v-18h-6.1C836.3,828,836.3,818.9,836.3,821.9z"/>
	<polygon fill="#E0E0DF" points="1192.2,821.9 1192.2,828 1198.1,828 1198.1,834.1 1204.2,834.1 1204.2,840.1 1210.2,840.1 
		1210.2,852.1 1246.4,852.1 1246.4,846.1 1240.4,846.1 1240.4,834.1 1234.3,834.1 1234.3,821.9 	"/>
	<rect x="1077.5" y="821.9" fill="#E0E0DF" width="30.2" height="30.2"/>
	<rect x="221.3" y="821.9" fill="#E0E0DF" width="30.2" height="30.2"/>
	<rect x="329.9" y="821.9" fill="#E0E0DF" width="30.2" height="30.2"/>
	<rect x="625.3" y="821.9" fill="#E0E0DF" width="30.2" height="30.2"/>
	<rect x="733.8" y="821.9" fill="#E0E0DF" width="30.2" height="30.2"/>
</g>
<g id="Light_grey">
	<rect x="1077.5" y="803.9" fill="#EEEEEE" width="30.2" height="18.1"/>
	<rect x="329.9" y="803.9" fill="#EEEEEE" width="30.2" height="18.1"/>
	<rect x="221.3" y="803.9" fill="#EEEEEE" width="30.2" height="18.1"/>
	<rect x="733.8" y="803.9" fill="#EEEEEE" width="30.2" height="18.1"/>
	<rect x="625.3" y="803.9" fill="#EEEEEE" width="30.2" height="18.1"/>
	<rect x="112.8" y="803.9" fill="#EEEEEE" width="30.2" height="18.1"/>
	<rect x="161" y="803.9" fill="#EEEEEE" width="30.2" height="18.1"/>
	<rect x="516.8" y="803.9" fill="#EEEEEE" width="30.2" height="18.1"/>
	<rect x="782.1" y="803.9" fill="#EEEEEE" width="30.2" height="18.1"/>
	<rect x="884.6" y="803.9" fill="#EEEEEE" width="30.2" height="18.1"/>
	<polygon fill="#EEEEEE" points="411.3,803.9 405.2,803.9 378.1,803.9 378.1,821.9 408.3,821.9 408.3,816 432.4,816 432.4,821.9 
		462.5,821.9 462.5,816 468.5,816 468.5,809.9 480.6,809.9 480.6,803.9 	"/>
	<path fill="#EEEEEE" d="M833.3,803.9h27.1v12h6.1v6.1h-30.2v-12h-3C833.3,809.9,832.8,800.9,833.3,803.9z"/>
	<polygon fill="#EEEEEE" points="1174,803.9 1216.3,803.9 1216.3,809.9 1222.2,809.9 1222.2,816 1228.3,816 1228.3,821.9 
		1186.1,821.9 1186.1,816 1180.1,816 1180.1,809.9 1174,809.9 	"/>
</g>
<g id="White">
	<g>
		<polygon fill="#FFFFFF" points="143,803.9 143,791.9 136.9,791.9 136.9,755.6 130.9,755.6 130.9,725.5 124.8,725.5 124.8,689.3 
			118.9,689.3 118.9,653.1 88.7,653.1 88.7,689.3 94.6,689.3 94.6,719.5 100.7,719.5 100.7,755.6 106.7,755.6 106.7,791.9 
			112.8,791.9 112.8,803.9 		"/>
		<polygon fill="#FFFFFF" points="185.2,653.1 185.2,689.3 179.1,689.3 179.1,725.5 173,725.5 173,755.6 167.1,755.6 167.1,791.9 
			161,791.9 161,803.9 191.2,803.9 191.2,791.9 197.2,791.9 197.2,755.6 203.2,755.6 203.2,719.5 209.3,719.5 209.3,689.3 
			215.3,689.3 215.3,653.1 		"/>
	</g>
	<path fill="#FFFFFF" d="M492.6,689.3v-12h-6.1v-6.1h-6.1v-6.1h-6.1V659h-12v-6.1h-84.2v150.8h108.6v-6.1h6.1v-12h6.1v-96.5h-6.2
		V689.3z M468.5,779.8h-6.1v6.1h-12v6.1h-42.2V683.4h42.2v6.1h12v6.1h6.1V779.8z"/>
	<rect x="516.8" y="653.1" fill="#FFFFFF" width="30.2" height="150.8"/>
	<rect x="884.6" y="653.1" fill="#FFFFFF" width="30.2" height="150.8"/>
	<polygon fill="#FFFFFF" points="812.2,653.1 812.2,671.3 818.3,671.3 818.3,689.3 824.3,689.3 824.3,707.4 830.3,707.4 
		830.3,725.5 836.3,725.5 836.3,743.6 842.4,743.6 842.4,761.7 848.5,761.7 848.5,779.8 854.4,779.8 854.4,797.8 860.5,797.8 
		860.5,803.9 830.3,803.9 830.3,791.9 824.3,791.9 824.3,773.7 818.3,773.7 818.3,755.6 812.2,755.6 812.2,803.9 782.1,803.9 
		782.1,653.1 	"/>
	<polygon fill="#FFFFFF" points="1210.2,803.9 1210.2,797.8 1204.2,797.8 1204.2,791.9 1198.1,791.9 1198.1,785.8 1192.2,785.8 
		1192.2,779.8 1186.1,779.8 1186.1,773.7 1180.1,773.7 1180.1,761.7 1174,761.7 1174,749.6 1168,749.6 1168,737.6 1162,737.6 
		1162,701.4 1168,701.4 1168,695.4 1174,695.4 1174,689.3 1186.1,689.3 1186.1,683.3 1204.2,683.3 1204.2,689.3 1216.3,689.3 
		1216.3,695.4 1222.2,695.4 1222.2,701.4 1228.3,701.4 1228.3,713.5 1234.3,713.5 1234.3,761.7 1264.5,761.7 1264.5,713.5 
		1258.5,713.5 1258.5,695.4 1252.4,695.4 1252.4,683.3 1246.4,683.3 1246.4,677.2 1240.4,677.2 1240.4,671.3 1234.3,671.3 
		1234.3,665.2 1222.2,665.2 1222.2,659.2 1210.2,659.2 1210.2,653.1 1180.1,653.1 1180.1,659.2 1168,659.2 1168,665.2 1155.9,665.2 
		1155.9,671.3 1149.9,671.3 1149.9,677.2 1143.9,677.2 1143.9,683.3 1137.9,683.3 1137.9,695.4 1131.8,695.4 1131.8,743.6 
		1137.9,743.6 1137.9,755.6 1143.9,755.6 1143.9,767.8 1149.9,767.8 1149.9,779.8 1155.9,779.8 1155.9,791.9 1162,791.9 1162,797.8 
		1168,797.8 1168,803.9 1174,803.9 	"/>
	<rect x="1077.5" y="653.1" fill="#FFFFFF" width="30.2" height="150.8"/>
	<polygon fill="#FFFFFF" points="251.5,803.9 251.5,713.5 257.5,713.5 257.5,701.4 263.6,701.4 263.6,695.4 269.5,695.4 
		269.5,689.3 272.5,689.3 281.6,689.3 281.6,683.3 299.7,683.3 299.7,689.3 302.7,689.3 311.8,689.3 311.8,695.4 317.8,695.4 
		317.8,701.4 323.8,701.4 323.8,713.5 329.9,713.5 329.9,803.9 360,803.9 360,707.4 354,707.4 354,695.4 347.9,695.4 347.9,683.3 
		341.9,683.3 341.9,677.2 335.9,677.2 335.9,671.3 329.9,671.3 329.9,665.2 317.8,665.2 317.8,659.2 305.7,659.2 305.7,653.1 
		275.6,653.1 275.6,659.2 263.6,659.2 263.6,665.2 251.5,665.2 251.5,671.3 245.4,671.3 245.4,677.2 239.4,677.2 239.4,683.3 
		233.4,683.3 233.4,695.4 227.3,695.4 227.3,707.4 221.3,707.4 221.3,803.9 	"/>
	<polygon fill="#FFFFFF" points="655.5,803.9 655.5,713.5 661.5,713.5 661.5,701.4 667.5,701.4 667.5,695.4 673.6,695.4 
		673.6,689.3 676.6,689.3 685.6,689.3 685.6,683.3 703.7,683.3 703.7,689.3 706.7,689.3 715.8,689.3 715.8,695.4 721.8,695.4 
		721.8,701.4 727.9,701.4 727.9,713.5 733.8,713.5 733.8,803.9 764,803.9 764,707.4 757.9,707.4 757.9,695.4 752,695.4 752,683.3 
		745.9,683.3 745.9,677.2 739.9,677.2 739.9,671.3 733.8,671.3 733.8,665.2 721.8,665.2 721.8,659.2 709.7,659.2 709.7,653.1 
		679.6,653.1 679.6,659.2 667.5,659.2 667.5,665.2 655.5,665.2 655.5,671.3 649.5,671.3 649.5,677.2 643.4,677.2 643.4,683.3 
		637.3,683.3 637.3,695.4 631.4,695.4 631.4,707.4 625.3,707.4 625.3,803.9 	"/>
</g>
</svg>
