<?xml version="1.0" encoding="utf-8"?>
<!-- Generator: Adobe Illustrator 18.1.1, SVG Export Plug-In . SVG Version: 6.00 Build 0)  -->
<svg version="1.1" id="Layer_1" xmlns="http://www.w3.org/2000/svg" xmlns:xlink="http://www.w3.org/1999/xlink" x="0px" y="0px"
	 viewBox="-33 33.9 8.1 8.1" enable-background="new -33 33.9 8.1 8.1" xml:space="preserve">
<path id="X_1" fill="#D2C0D7" d="M-25.1,40.4l-2.5-2.5l2.5-2.5c0.2-0.2,0.2-0.5,0-0.7l-0.7-0.7c-0.2-0.2-0.5-0.2-0.7,0l-2.5,2.5
	l-2.5-2.5c-0.2-0.2-0.5-0.2-0.7,0l-0.7,0.7c-0.2,0.2-0.2,0.5,0,0.7l2.5,2.5l-2.5,2.5c-0.2,0.2-0.2,0.5,0,0.7l0.7,0.7
	c0.2,0.2,0.5,0.2,0.7,0l2.5-2.5l2.5,2.5c0.2,0.2,0.5,0.2,0.7,0l0.7-0.7C-24.9,41-24.9,40.6-25.1,40.4z"/>
</svg>
