<?xml version="1.0" encoding="utf-8"?>
<!-- Generator: Adobe Illustrator 18.1.1, SVG Export Plug-In . SVG Version: 6.00 Build 0)  -->
<svg version="1.1" id="Layer_1" xmlns="http://www.w3.org/2000/svg" xmlns:xlink="http://www.w3.org/1999/xlink" x="0px" y="0px"
	 viewBox="-31 29 12 17" enable-background="new -31 29 12 17" xml:space="preserve">
<g id="Lightbulb_3_x2C__Idea_2">
	<path fill="#FFFFFF" d="M-22.5,43h-5c-0.3,0-0.5,0.2-0.5,0.5v1c0,0.3,0.2,0.5,0.5,0.5h0.5c0,0.6,0.4,1,1,1h2c0.6,0,1-0.4,1-1h0.5
		c0.3,0,0.5-0.2,0.5-0.5v-1C-22,43.2-22.2,43-22.5,43z"/>
	<path fill="#FFFFFF" d="M-25,29c-3.3,0-6,2.7-6,6c0,1.5,0.6,2.9,1.5,4c0.8,0.8,1.2,1.9,1.4,2.5c0.1,0.3,0.3,0.5,0.6,0.5h2.5h2.5
		c0.3,0,0.5-0.2,0.6-0.5c0.2-0.6,0.5-1.7,1.4-2.5c1-1.1,1.5-2.5,1.5-4C-19,31.7-21.7,29-25,29z M-22.2,36c-0.6,0-0.4-1.4-1.4-2.4
		c-1-1-2.4-0.8-2.4-1.4c0-0.6,2.2-1.6,3.8,0C-20.6,33.8-21.6,36-22.2,36z"/>
</g>
</svg>
