<?xml version="1.0" encoding="utf-8"?>
<!-- Generator: Adobe Illustrator 18.1.1, SVG Export Plug-In . SVG Version: 6.00 Build 0)  -->
<svg version="1.1" id="Layer_1" xmlns="http://www.w3.org/2000/svg" xmlns:xlink="http://www.w3.org/1999/xlink" x="0px" y="0px"
	 viewBox="0 0 273.4 222.2" enable-background="new 0 0 273.4 222.2" xml:space="preserve">
<path fill="#FFFFFF" d="M273.4,26.3c-10.1,4.5-20.9,7.5-32.2,8.8c11.6-6.9,20.5-17.9,24.7-31C255,10.5,243,15.2,230.2,17.7
	C220,6.8,205.4,0,189.3,0c-31,0-56.1,25.1-56.1,56.1c0,4.4,0.5,8.7,1.5,12.8C88,66.5,46.7,44.2,19,10.3c-4.8,8.3-7.6,17.9-7.6,28.2
	c0,19.5,9.9,36.6,25,46.7c-9.2-0.3-17.8-2.8-25.4-7c0,0.2,0,0.5,0,0.7c0,27.2,19.3,49.8,45,55c-4.7,1.3-9.7,2-14.8,2
	c-3.6,0-7.1-0.4-10.6-1c7.1,22.3,27.9,38.5,52.4,39c-19.2,15-43.4,24-69.7,24c-4.5,0-9-0.3-13.4-0.8c24.8,15.9,54.3,25.2,86,25.2
	c103.2,0,159.6-85.5,159.6-159.6c0-2.4-0.1-4.9-0.2-7.3C256.4,47.4,265.9,37.5,273.4,26.3z"/>
</svg>
