<?xml version="1.0" encoding="utf-8"?>
<!-- Generator: Adobe Illustrator 18.1.1, SVG Export Plug-In . SVG Version: 6.00 Build 0)  -->
<svg version="1.1" id="Layer_1" xmlns="http://www.w3.org/2000/svg" xmlns:xlink="http://www.w3.org/1999/xlink" x="0px" y="0px"
	 viewBox="-7 9 16 16" enable-background="new -7 9 16 16" xml:space="preserve">
<path id="Plus_2" fill="#FFFFFF" d="M1,9c-4.4,0-8,3.6-8,8s3.6,8,8,8s8-3.6,8-8S5.4,9,1,9z M3.9,18H2v1.9c0,0.5-0.5,1-1,1
	c-0.5,0-1-0.4-1-1V18h-1.9c-0.5,0-1-0.5-1-1c0-0.5,0.4-1,1-1H0v-1.9c0-0.5,0.5-1,1-1c0.5,0,1,0.4,1,1V16h1.9c0.5,0,1,0.5,1,1
	C4.8,17.5,4.4,18,3.9,18z"/>
</svg>
