<?xml version="1.0" encoding="utf-8"?>
<!-- Generator: Adobe Illustrator 18.1.1, SVG Export Plug-In . SVG Version: 6.00 Build 0)  -->
<svg version="1.1" id="Layer_1" xmlns="http://www.w3.org/2000/svg" xmlns:xlink="http://www.w3.org/1999/xlink" x="0px" y="0px"
	 viewBox="0 0 75 75" enable-background="new 0 0 75 75" xml:space="preserve">
<path id="Tag_2" fill="#D2C0D7" d="M74.1,24.8l-20.2-23C53,0.9,51.6,0,50.2,0H7C4.7,0,0,2.3,0,4.7v46.9c0,2.8,4.7,4.7,7,4.7h43.1
	c1.4,0,2.8-0.9,3.7-1.9l20.2-23C75.5,29.5,75.5,26.7,74.1,24.8z M42.2,28.1c0-5.2,4.2-9.4,9.4-9.4s9.4,4.2,9.4,9.4s-4.2,9.4-9.4,9.4
	S42.2,33.3,42.2,28.1z"/>
</svg>
