<?xml version="1.0" encoding="utf-8"?>
<!-- Generator: Adobe Illustrator 18.1.1, SVG Export Plug-In . SVG Version: 6.00 Build 0)  -->
<svg version="1.1" id="Layer_1" xmlns="http://www.w3.org/2000/svg" xmlns:xlink="http://www.w3.org/1999/xlink" x="0px" y="0px"
	 viewBox="-10 11 10 12" enable-background="new -10 11 10 12" xml:space="preserve">
<path id="Up_4" fill="#FFFFFF" d="M-4,22.5v-8l2.4,2.3c0.2,0.2,0.5,0.2,0.7,0l0.7-0.7C0,16,0,15.7-0.1,15.5l-4.5-4.4
	c-0.2-0.2-0.5-0.2-0.7,0l-4.5,4.3c-0.2,0.2-0.2,0.5,0,0.7l0.7,0.7c0.2,0.2,0.5,0.2,0.7,0l2.4-2.3v8c0,0.3,0.2,0.5,0.5,0.5h1
	C-4.2,23-4,22.8-4,22.5z"/>
</svg>
