<?xml version="1.0" encoding="utf-8"?>
<!-- Generator: Adobe Illustrator 18.1.1, SVG Export Plug-In . SVG Version: 6.00 Build 0)  -->
<svg version="1.1" id="Layer_1" xmlns="http://www.w3.org/2000/svg" xmlns:xlink="http://www.w3.org/1999/xlink" x="0px" y="0px"
	 viewBox="0 0 32 31" enable-background="new 0 0 32 31" xml:space="preserve">
<path fill-rule="evenodd" clip-rule="evenodd" fill="#FFFFFF" d="M16,0C7.2,0,0.1,7.1,0.1,15.9c0,7,4.5,13,10.8,15.1
	c0.8,0.1,1.1-0.3,1.1-0.8c0-0.4,0-1.4,0-2.7c-4.4,1-5.3-2.1-5.3-2.1C6,23.5,4.9,23,4.9,23c-1.4-1,0.1-1,0.1-1
	c1.6,0.1,2.4,1.6,2.4,1.6c1.4,2.4,3.7,1.7,4.6,1.3c0.1-1,0.6-1.7,1-2.1c-3.5-0.4-7.2-1.8-7.2-7.8c0-1.7,0.6-3.1,1.6-4.3
	c-0.2-0.4-0.7-2,0.2-4.2c0,0,1.3-0.4,4.4,1.6c1.3-0.4,2.6-0.5,4-0.5c1.3,0,2.7,0.2,4,0.5c3-2.1,4.4-1.6,4.4-1.6
	c0.9,2.2,0.3,3.8,0.2,4.2c1,1.1,1.6,2.5,1.6,4.3c0,6.1-3.7,7.4-7.2,7.8c0.6,0.5,1.1,1.5,1.1,2.9c0,2.1,0,3.8,0,4.4
	c0,0.4,0.3,0.9,1.1,0.8c6.3-2.1,10.8-8,10.8-15C31.9,7.1,24.8,0,16,0z"/>
</svg>
