<?xml version="1.0" encoding="utf-8"?>
<!-- Generator: Adobe Illustrator 18.1.1, SVG Export Plug-In . SVG Version: 6.00 Build 0)  -->
<svg version="1.1" xmlns="http://www.w3.org/2000/svg" xmlns:xlink="http://www.w3.org/1999/xlink" x="0px" y="0px"
	 viewBox="0 0 253.1 67.9" enable-background="new 0 0 253.1 67.9" xml:space="preserve">
<g id="Layer_1">
</g>
<g id="Layer_2">
	<g>
		<polygon fill="#1D0D3E" points="101.2,1 94.6,1 94.6,66.9 116.6,66.9 116.6,60.3 101.2,60.3 		"/>
		<path fill="#1D0D3E" d="M46.3,0c-8,0-14.6,6.5-14.6,14.6v38.8c0,8,6.5,14.6,14.6,14.6s14.6-6.5,14.6-14.6V14.6
			C60.9,6.5,54.3,0,46.3,0z M54.3,53.4c0,4.4-3.6,8-8,8s-8-3.6-8-8V14.6c0-4.4,3.6-8,8-8s8,3.6,8,8V53.4z"/>
		<path fill="#1D0D3E" d="M133,0c-8,0-14.6,6.5-14.6,14.6v38.8c0,8,6.5,14.6,14.6,14.6c8,0,14.6-6.5,14.6-14.6V14.6
			C147.5,6.5,141,0,133,0z M141,53.4c0,4.4-3.6,8-8,8s-8-3.6-8-8V14.6c0-4.4,3.6-8,8-8s8,3.6,8,8V53.4z"/>
		<polygon fill="#1D0D3E" points="24.1,1.1 15.7,48.6 6.7,1.1 0,1.1 12.5,66.9 19.2,66.9 30.8,1.1 		"/>
		<polygon fill="#1D0D3E" points="173.7,48.9 157.5,1.1 151.2,1.1 151.2,66.9 157.8,66.9 157.8,21.5 173.1,66.9 180.3,66.9 
			180.3,1.2 173.7,1.2 		"/>
		<path fill="#1D0D3E" d="M87.9,33.7c2-2.1,3.2-4.9,3.2-8V12.6c0-3.5-1.1-6.4-3.3-8.5C86,2.4,84,1.5,82.2,1.1H64.5v65.8h6.6V37.1
			l4.6,0l9,29.7h7l-9.1-30.1C84.6,36.2,86.5,35.2,87.9,33.7z M71.1,30.5V7.1h7.3l0,0l0,0h0c0.8,0,3.3,0.3,4.7,1.7
			c0.9,0.9,1.3,2.1,1.3,3.8v13.1c0,3.2-2.4,4.8-4.9,4.8L71.1,30.5z"/>
		<g>
			<path fill="#1D0D3E" d="M205.7,67.9c-8,0-14.6-6.5-14.6-14.6v-9.2h6.6v9.2c0,4.4,3.6,8,8,8s8-3.6,8-8V1.1h6.6v52.3
				C220.2,61.3,213.7,67.9,205.7,67.9z"/>
		</g>
		<g>
			<path fill="#1D0D3E" d="M238.5,67.9c-8,0-14.6-6.5-14.6-14.5V44h6.6v9.4c0,4.4,3.6,8,8,8c4.5,0,8-3.5,8-8
				c0-4.2-6.1-12.1-11.1-18.4C229.3,27,224,20.1,224,14.6c0-8,6.5-14.5,14.6-14.5c8,0,14.6,6.5,14.6,14.5v9.4h-6.6v-9.4
				c0-4.4-3.6-8-8-8s-8,3.6-8,8c0,3.3,5.6,10.6,10.1,16.4c6.4,8.2,12.4,16,12.4,22.4c0,3.9-1.5,7.6-4.3,10.3
				C246.1,66.4,242.4,67.9,238.5,67.9z"/>
		</g>
		<rect x="183.4" y="60.6" fill="#1D0D3E" width="6.3" height="6.3"/>
	</g>
</g>
</svg>
