<?xml version="1.0" encoding="utf-8"?>
<!-- Generator: Adobe Illustrator 18.1.1, SVG Export Plug-In . SVG Version: 6.00 Build 0)  -->
<svg version="1.1" id="Layer_1" xmlns="http://www.w3.org/2000/svg" xmlns:xlink="http://www.w3.org/1999/xlink" x="0px" y="0px"
	 viewBox="0 0 32 32" enable-background="new 0 0 32 32" xml:space="preserve">
<g id="Layer_1_1_">
	<g>
		<rect y="12.9" fill="#1D0C3D" width="0.8" height="2.3"/>
		<rect x="0.8" y="15.2" fill="#1D0C3D" width="0.8" height="2.3"/>
		<rect x="2.3" y="15.2" fill="#1D0C3D" width="0.8" height="2.3"/>
		<rect x="3.1" y="12.9" fill="#1D0C3D" width="0.8" height="2.3"/>
		<rect x="1.6" y="17.6" fill="#1D0C3D" width="0.8" height="1.6"/>
		<rect x="4.7" y="13.7" fill="#1D0C3D" width="0.8" height="4.7"/>
		<rect x="7" y="13.7" fill="#1D0C3D" width="0.8" height="4.7"/>
		<rect x="5.5" y="18.3" fill="#1D0C3D" width="1.6" height="0.8"/>
		<rect x="5.5" y="12.9" fill="#1D0C3D" width="1.6" height="0.8"/>
		<rect x="10.9" y="17.6" fill="#1D0C3D" width="0.8" height="1.6"/>
		<polygon fill="#1D0C3D" points="9.4,16 9.4,13.7 10.9,13.7 10.9,12.9 9.4,12.9 8.6,12.9 8.6,19.1 9.4,19.1 9.4,16.8 10.1,16.8 
			10.1,17.6 10.9,17.6 10.9,16.8 10.9,16 10.1,16 		"/>
		<rect x="10.9" y="13.7" fill="#1D0C3D" width="0.8" height="2.3"/>
		<polygon fill="#1D0C3D" points="13.3,12.9 12.5,12.9 12.5,19.1 13.3,19.1 14.8,19.1 14.8,18.3 13.3,18.3 		"/>
		<rect x="15.6" y="13.7" fill="#1D0C3D" width="0.8" height="4.7"/>
		<rect x="18" y="13.7" fill="#1D0C3D" width="0.8" height="4.7"/>
		<rect x="16.4" y="18.3" fill="#1D0C3D" width="1.6" height="0.8"/>
		<rect x="16.4" y="12.9" fill="#1D0C3D" width="1.6" height="0.8"/>
		<polygon fill="#1D0C3D" points="21.9,16 21.1,16 21.1,17.6 21.9,17.6 21.9,19.1 22.6,19.1 22.6,12.9 21.9,12.9 		"/>
		<polygon fill="#1D0C3D" points="20.3,14.4 20.3,12.9 19.5,12.9 19.5,19.1 20.3,19.1 20.3,16 21.1,16 21.1,14.4 		"/>
		<rect x="25" y="16.8" fill="#1D0C3D" width="0.8" height="1.6"/>
		<rect x="27.3" y="12.9" fill="#1D0C3D" width="0.8" height="5.5"/>
		<rect x="25.8" y="18.3" fill="#1D0C3D" width="1.6" height="0.8"/>
		<rect x="23.4" y="18.3" fill="#1D0C3D" width="0.8" height="0.8"/>
		<rect x="28.9" y="16.8" fill="#1D0C3D" width="0.8" height="1.6"/>
		<rect x="31.2" y="16.8" fill="#1D0C3D" width="0.8" height="1.6"/>
		<rect x="29.7" y="18.3" fill="#1D0C3D" width="1.6" height="0.8"/>
		<rect x="28.9" y="13.7" fill="#1D0C3D" width="0.8" height="1.6"/>
		<rect x="31.2" y="13.7" fill="#1D0C3D" width="0.8" height="1.6"/>
		<rect x="29.7" y="12.9" fill="#1D0C3D" width="1.6" height="0.8"/>
		<rect x="30.4" y="16" fill="#1D0C3D" width="0.8" height="0.8"/>
		<rect x="29.7" y="15.2" fill="#1D0C3D" width="0.8" height="0.8"/>
	</g>
</g>
<g id="Layer_2">
</g>
</svg>
