<?xml version="1.0" encoding="utf-8"?>
<!-- Generator: Adobe Illustrator 18.1.1, SVG Export Plug-In . SVG Version: 6.00 Build 0)  -->
<svg version="1.1" id="Layer_1" xmlns="http://www.w3.org/2000/svg" xmlns:xlink="http://www.w3.org/1999/xlink" x="0px" y="0px"
	 viewBox="57.3 199.2 1085.5 452.7" enable-background="new 57.3 199.2 1085.5 452.7" xml:space="preserve">
<g id="Medium_purple">
	<rect x="755.5" y="226.5" fill="#59395E" width="27.3" height="5.5"/>
	<rect x="782.7" y="221" fill="#59395E" width="21.8" height="5.5"/>
	<rect x="826.4" y="221" fill="#59395E" width="5.5" height="5.5"/>
	<rect x="831.8" y="226.5" fill="#59395E" width="5.5" height="5.5"/>
	<rect x="782.7" y="231.9" fill="#59395E" width="54.5" height="5.5"/>
	<rect x="739.1" y="248.3" fill="#59395E" width="32.7" height="5.5"/>
	<rect x="717.3" y="253.7" fill="#59395E" width="21.8" height="5.5"/>
	<rect x="695.5" y="259.2" fill="#59395E" width="21.8" height="5.5"/>
	<rect x="717.3" y="264.6" fill="#59395E" width="54.5" height="5.5"/>
	<rect x="722.7" y="286.5" fill="#59395E" width="32.7" height="5.5"/>
	<rect x="755.5" y="291.9" fill="#59395E" width="5.5" height="5.5"/>
	<rect x="760.9" y="297.4" fill="#59395E" width="5.5" height="5.5"/>
	<rect x="744.5" y="302.8" fill="#59395E" width="16.4" height="5.5"/>
	<rect x="690" y="302.8" fill="#59395E" width="54.5" height="5.5"/>
	<rect x="690" y="291.9" fill="#59395E" width="32.7" height="5.5"/>
	<rect x="662.7" y="297.4" fill="#59395E" width="27.3" height="5.5"/>
	<rect x="771.8" y="253.7" fill="#59395E" width="5.5" height="10.9"/>
	<line fill="none" x1="662.7" y1="300.1" x2="662.7" y2="305.5"/>
	<rect x="804.5" y="215.5" fill="#59395E" width="21.8" height="5.5"/>
	<rect x="766.4" y="253.7" fill="#59395E" width="5.5" height="5.5"/>
	<g>
		<g>
			<rect x="984.5" y="242.8" fill="#59395E" width="21.8" height="5.5"/>
			<rect x="820.9" y="242.8" fill="#59395E" width="21.8" height="5.5"/>
			<rect x="842.7" y="226.5" fill="#59395E" width="5.5" height="16.4"/>
			<rect x="804.5" y="248.3" fill="#59395E" width="21.8" height="5.5"/>
			<rect x="793.6" y="253.7" fill="#59395E" width="16.4" height="5.5"/>
			<rect x="782.7" y="259.2" fill="#59395E" width="16.4" height="5.5"/>
			<polygon fill="#59395E" points="788.2,286.5 788.2,281 782.7,281 782.7,291.9 793.6,291.9 793.6,286.5 			"/>
			<polygon fill="#59395E" points="788.2,270.1 788.2,264.6 777.3,264.6 777.3,286.5 782.7,286.5 782.7,270.1 			"/>
			<polygon fill="#59395E" points="962.7,237.4 962.7,231.9 940.9,231.9 940.9,226.5 935.5,226.5 935.5,237.4 			"/>
			<rect x="848.2" y="215.5" fill="#59395E" width="5.5" height="16.4"/>
			<polygon fill="#59395E" points="924.5,215.5 924.5,221 930,221 930,226.5 940.9,226.5 940.9,221 935.5,221 935.5,215.5 
				930,215.5 930,210.1 919.1,210.1 919.1,215.5 			"/>
			<rect x="788.2" y="291.9" fill="#59395E" width="16.4" height="5.5"/>
			<rect x="957.3" y="237.4" fill="#59395E" width="32.7" height="5.5"/>
			<rect x="859.1" y="210.1" fill="#59395E" width="10.9" height="5.5"/>
			<rect x="853.6" y="210.1" fill="#59395E" width="5.5" height="10.9"/>
			<rect x="864.5" y="204.6" fill="#59395E" width="16.4" height="5.5"/>
			<rect x="908.2" y="204.6" fill="#59395E" width="16.4" height="5.5"/>
			<rect x="1000.9" y="248.3" fill="#59395E" width="10.9" height="5.5"/>
			<polygon fill="#59395E" points="979.1,297.4 984.5,297.4 984.5,286.5 990,286.5 990,281 979.1,281 			"/>
			<polygon fill="#59395E" points="973.6,297.4 968.2,297.4 968.2,302.8 979.1,302.8 979.1,291.9 973.6,291.9 			"/>
			<rect x="957.3" y="302.8" fill="#59395E" width="16.4" height="5.5"/>
			<polygon fill="#59395E" points="1006.4,253.7 1006.4,264.6 1000.9,264.6 1000.9,270.1 1011.8,270.1 1011.8,253.7 			"/>
			<rect x="837.3" y="319.2" fill="#59395E" width="98.2" height="5.5"/>
			<rect x="875.5" y="199.2" fill="#59395E" width="38.2" height="5.5"/>
			<rect x="995.5" y="270.1" fill="#59395E" width="10.9" height="5.5"/>
			<polygon fill="#59395E" points="990,275.5 990,286.5 995.5,286.5 995.5,275.5 995.5,275.5 			"/>
			<polygon fill="#59395E" points="820.9,297.4 799.1,297.4 799.1,302.8 810,302.8 810,308.3 826.4,308.3 826.4,302.8 820.9,302.8 
							"/>
			<rect x="946.4" y="308.3" fill="#59395E" width="16.4" height="5.5"/>
			<path fill="#59395E" d="M815.5,308.3c0,5.7,0,2.7,0,5.5h16.4v-5.5H815.5z"/>
			<rect x="930" y="313.7" fill="#59395E" width="21.8" height="5.5"/>
			<rect x="826.4" y="313.7" fill="#59395E" width="16.4" height="5.5"/>
		</g>
		<rect x="995.5" y="275.5" fill="#59395E" width="5.5" height="5.5"/>
	</g>
	<rect x="837.3" y="237.4" fill="#59395E" width="5.5" height="5.5"/>
</g>
<g id="Dark_purple">
	<g>
		<path fill="#59395E" d="M1137.3,551L1137.3,551C1137.8,551,1138.1,551,1137.3,551z"/>
		<path fill="#59395E" d="M586.4,564.6v21.8h5.5v10.9h5.5v5.5h10.9v5.5h16.4v-5.5h10.9v-5.5h5.5v-10.9h5.5V461v-5.5v-38.2h-5.5
			v-10.9h-5.5V401h-10.9v-5.5h-16.4v5.5h-10.9v5.5h-5.5v10.9h-5.5v125.5V564.6z M591.8,422.8h5.5v-10.9h5.5v-5.5h10.9V401h5.5v5.5
			H630v5.5h5.5v10.9h5.5V581h-5.5v10.9H630v5.5h-10.9v5.5h-5.5v-5.5h-10.9v-5.5h-5.5V581h-5.5V422.8z"/>
		<path fill="#59395E" d="M1137.3,471.9v-5.5h5.5v-54.5h-5.5v-16.4h-5.5v-10.9h-5.5v-5.5h-5.5v-5.5h-5.5v-5.5h-5.5v-5.5h-10.9v-5.5
			h-10.9v-5.5H1050v5.5h-10.9v5.5h-10.9v5.5h-5.5v5.5h-5.5v5.5h-5.5v5.5h-5.5v10.9h-5.5v-38.2h-5.5v-5.5h-38.2v5.5h-5.5V581h-5.5
			v10.9h-5.5v5.5H930v5.5h-5.5v-5.5h-10.9v-5.5h-5.5V581h-5.5v-43.6h-5.5v-5.5h-38.2v5.5h-5.5v60h-27.3v-240h-5.5v-5.5h-38.2v5.5
			h-5.5v130.9h-5.5v-16.4h-5.5v-16.4h-5.5v-16.4h-5.5v-16.4H750v-16.4h-5.5v-16.4h-5.5v-16.4h-5.5v-16.4h-5.5v-5.5H690v5.5h-5.5
			v32.7h-5.5v-5.5h-5.5v-5.5h-5.5v-5.5h-5.5v-5.5h-5.5v-5.5h-10.9v-5.5h-10.9v-5.5h-38.2v5.5h-10.9v5.5h-10.9v5.5H570v5.5h-5.5v5.5
			h-5.5v5.5h-5.5v10.9h-5.5v10.9h-5.5v185.5h5.5v-27.3v-21.8V411.9h5.5V401h5.5v-10.9h5.5v-5.5h5.5v-5.5h5.5v-5.5h5.5v-5.5h10.9
			v-5.5h10.9v-5.5H630v5.5h10.9v5.5h10.9v5.5h5.5v5.5h5.5v5.5h5.5v5.5h5.5V401h5.5v10.9h5.5v43.6v5.5v130.9h-5.5v10.9h-5.5v10.9
			h-5.5v5.5h-5.5v5.5h-5.5v5.5h-5.5v5.5h-10.9v5.5H630v5.5h-27.3V641h-10.9v-5.5h-10.9v-5.5h-5.5v-5.5H570v-5.5h-5.5v-5.5h-5.5
			v-10.9h-5.5v-10.9h-5.5v5.5h-54.5v-240h-5.5v-5.5H450v5.5h-5.5v21.8h-5.5v-5.5h-5.5v-5.5h-5.5v-5.5h-5.5v-5.5h-10.9v-5.5h-87.3
			v5.5h-5.5v32.7h-5.5v-5.5h-5.5v-5.5h-5.5v-5.5h-5.5v-5.5h-5.5v-5.5h-10.9v-5.5H270v-5.5h-38.2v5.5h-10.9v5.5H210v5.5h-5.5v5.5
			h-5.5v5.5h-5.5v-5.5v-16.4h-5.5v-5.5H150v5.5h-5.5v32.7h-5.5v32.7h-5.5v27.3h-5.5v32.7h-5.5v-32.7h-5.5v-27.3h-5.5v-32.7h-5.5
			v-32.7h-5.5v-5.5H62.7v5.5h-5.5V401h5.5v27.3h5.5V461h5.5v32.7h5.5v32.7h5.5v32.7H90v27.3h5.5v27.3h5.5v32.7h5.5v5.5h38.2v-5.5
			h5.5v-32.7h5.5v-27.3h5.5v-27.3h5.5v-32.7h5.5v-32.7h5.5v98.2h5.5v-27.3v-21.8v-120h-5.5v32.7h-5.5v32.7h-5.5V521h-5.5v32.7h-5.5
			V581H150v27.3h-5.5V641h-5.5v5.5h-27.3V641h-5.5v-32.7h-5.5V581h-5.5v-27.3H90V521h-5.5v-32.7h-5.5v-32.7h-5.5v-32.7h-5.5v-27.3
			h-5.5v-32.7h5.5v-5.5h27.3v5.5h5.5v32.7h5.5v32.7h5.5v27.3h5.5v32.7h5.5V521h5.5v-32.7h5.5v-32.7h5.5v-27.3h5.5v-32.7h5.5v-32.7
			h5.5v-5.5h27.3v5.5h5.5v32.7h-5.5v16.4h5.5V401h5.5v-10.9h5.5v-5.5h5.5v-5.5h5.5v-5.5h5.5v-5.5h10.9v-5.5h10.9v-5.5h27.3v5.5h10.9
			v5.5h10.9v5.5h5.5v5.5h5.5v5.5h5.5v5.5h5.5V401h5.5v10.9h5.5v43.6v5.5v130.9h-5.5v10.9h-5.5v10.9h-5.5v5.5h-5.5v5.5h-5.5v5.5h-5.5
			v5.5h-10.9v5.5h-10.9v5.5h-27.3V641h-10.9v-5.5h-10.9v-5.5H210v-5.5h-5.5v-5.5h-5.5v-5.5h-5.5v-10.9h-5.5v-10.9h-5.5v16.4h5.5
			v10.9h5.5v5.5h5.5v5.5h5.5v5.5h5.5v5.5h10.9v5.5h10.9v5.5H270v-5.5h10.9V641h10.9v-5.5h5.5v-5.5h5.5v-5.5h5.5v-5.5h5.5v-10.9h5.5
			V641h5.5v5.5h38.2V641h5.5V537.4h5.5v16.4h5.5v16.4h5.5v21.8h5.5v16.4h5.5v16.4h5.5V641h5.5v5.5h38.2V641h5.5v5.5h103.6V641h5.5
			v-16.4h5.5v5.5h5.5v5.5h5.5v5.5h10.9v5.5h10.9v5.5h38.2v-5.5h10.9V641h10.9v-5.5h5.5v-5.5h5.5v-5.5h5.5v-5.5h5.5v-10.9h5.5V641
			h5.5v5.5h38.2V641h5.5V526.5h5.5v16.4h5.5v16.4h5.5v16.4h5.5v16.4h5.5v16.4h5.5v16.4h5.5V641h5.5v5.5h43.6V641h5.5v5.5h32.7V641
			h5.5v-21.8h5.5v5.5h5.5v5.5h5.5v5.5h5.5v5.5h10.9v5.5h10.9v5.5h38.2v-5.5h10.9V641h10.9v-5.5h5.5v-5.5h5.5v-5.5h5.5v-5.5h5.5
			v-10.9h5.5v-5.5h5.5v5.5h5.5v10.9h5.5v5.5h5.5v5.5h5.5v5.5h5.5v5.5h10.9v5.5h10.9v5.5h38.2v-5.5h10.9V641h10.9v-5.5h5.5v-5.5h5.5
			v-5.5h5.5v-5.5h5.5v-10.9h5.5v-57c-1.4,0-5.5-0.3-5.5-0.3v-8.2h-5.5v-10.9h-5.5V521h-5.5v-10.9h-5.5v-5.5h-5.5v-5.5h-5.5v-5.5
			h-5.5v-5.5h-5.5v-5.5h-5.5v-5.5h-5.5v-5.5h-5.5v-5.5h-5.5v-10.9h-5.5v-10.9h-5.5v-10.9h-5.5v-21.8h5.5v-5.5h10.9V401h5.5v5.5h10.9
			v5.5h5.5v10.9h5.5v43.6h5.5v5.5H1137.3z M444.5,635.5h-5.5v5.5h-27.3v-5.5h-5.5v-16.4h-5.5v-16.4h-5.5v-16.4H390v-21.8h-5.5v-16.4
			h-5.5v-16.4h-5.5v-16.4h-10.9v120h-5.5v5.5H330v-5.5h-5.5V362.8h5.5v-5.5h76.4v5.5h10.9v5.5h5.5v5.5h5.5v5.5h5.5v5.5h5.5v10.9h5.5
			v87.3h-5.5v10.9h-5.5v5.5h-5.5v5.5h-5.5v5.5h-10.9v27.3h5.5v16.4h5.5v16.4h5.5v16.4h5.5v16.4h5.5v16.4h5.5V635.5z M439.1,594.6
			V581h-5.5v-16.4h-5.5v-16.4h-5.5v-16.4h-5.5v-16.4h10.9v-5.5h5.5v-5.5h5.5v-5.5h5.5v95.5C447.3,595.2,439.1,594.6,439.1,594.6z
			 M553.6,635.5h-5.5v5.5h-92.7v-5.5H450V362.8h5.5v-5.5h27.3v5.5h5.5v240h60v5.5h5.5V635.5z M820.9,635.5h-5.5v5.5h-32.7v-5.5h-5.5
			v-16.4h-5.5v-16.4h-5.5v-16.4h-5.5v-16.4h-5.5v-16.4H750v-16.4h-5.5V521h-5.5v-16.4h-5.5v-16.4h-5.5v147.3h-5.5v5.5h-27.3v-5.5
			H690V362.8h5.5v-5.5h27.3v5.5h5.5v16.4h5.5v16.4h5.5v16.4h5.5v16.4h5.5v16.4h5.5V461h5.5v16.4h5.5v16.4h5.5v16.4h5.5v16.4h5.5
			V362.8h5.5v-5.5h27.3v5.5h5.5V635.5z M859.1,635.5h-5.5v5.5h-21.8v-5.5h-5.5v-27.3h5.5v-5.5h21.8v5.5h5.5V635.5z M995.5,591.9H990
			v10.9h-5.5v10.9h-5.5v5.5h-5.5v5.5h-5.5v5.5h-5.5v5.5h-10.9v5.5h-10.9v5.5h-27.3V641h-10.9v-5.5h-10.9v-5.5h-5.5v-5.5h-5.5v-5.5
			h-5.5v-5.5H870v-10.9h-5.5v-10.9h-5.5v-49.1h5.5v-5.5h27.3v5.5h5.5v43.6h5.5v10.9h5.5v5.5h10.9v5.5h16.4v-5.5h10.9v-5.5h5.5v-10.9
			h5.5V362.8h5.5v-5.5H990v5.5h5.5V591.9z M1000.9,450.1h5.5V461h5.5v10.9h5.5v10.9h5.5v10.9h5.5v5.5h5.5v5.5h5.5v5.5h5.5v5.5h5.5
			c2.7,0,0,5.5,0,5.5h5.5v5.5h5.5v5.5h5.5v5.5h5.5v10.9h5.5v10.9h5.5v10.9h5.5v21.8h-5.5v5.5h-10.9v5.5h-5.5v-5.5h-10.9v-5.5h-5.5
			V581h-5.5v-43.6h-5.5v-5.5h-38.2V450.1z M1093.6,417.4v-10.9h-5.5V401h-10.9v-5.5h-16.4v5.5H1050v5.5h-5.5v32.7h5.5v10.9h5.5V461
			h5.5v10.9h5.5v5.5h5.5v5.5h5.5v5.5h5.5v5.5h5.5v5.5h5.5v5.5h5.5v5.5h5.5v5.5h5.5v10.9h5.5v10.9h5.5v10.9h5.5v10.9h5.5v43.6h-5.5
			v10.9h-5.5v5.5h-5.5v5.5h-5.5v5.5h-5.5v5.5h-10.9v5.5h-10.9v5.5h-27.3V641h-10.9v-5.5h-10.9v-5.5h-5.5v-5.5h-5.5v-5.5h-5.5v-5.5
			h-5.5v-10.9h-5.5v-16.4h-5.5v-43.6h5.5v-5.5h27.3v5.5h5.5v43.6h5.5v10.9h5.5v5.5h10.9v5.5h16.4v-5.5h10.9v-5.5h5.5v-32.7h-5.5
			v-10.9h-5.5v-10.9h-5.5v-10.9h-5.5v-5.5h-5.5V521h-5.5v-5.5h-5.5v-5.5h-5.5v-5.5h-5.5v-5.5h-5.5v-5.5h-5.5v-5.5h-5.5v-10.9h-5.5
			v-10.9h-5.5v-10.9h-5.5v-10.9h-5.5V401h5.5v-10.9h5.5v-5.5h5.5v-5.5h5.5v-5.5h5.5v-5.5h10.9v-5.5h10.9v-5.5h27.3v5.5h10.9v5.5
			h10.9v5.5h5.5v5.5h5.5v5.5h5.5v5.5h5.5V401h5.5v16.4h5.5V461h-5.5v5.5h-27.3V461h-5.5v-43.6H1093.6z"/>
		<path fill="#59395E" d="M406.4,477.4V401h-10.9v-5.5h-32.7v87.3h32.7v-5.5H406.4z M390,471.9v5.5h-21.8V401H390v5.5h10.9v65.5H390
			z"/>
		<path fill="#59395E" d="M220.9,564.6v21.8h5.5v10.9h5.5v5.5h10.9v5.5h16.4v-5.5H270v-5.5h5.5v-10.9h5.5V461v-5.5v-38.2h-5.5v-10.9
			H270V401h-10.9v-5.5h-16.4v5.5h-10.9v5.5h-5.5v10.9h-5.5v125.5V564.6z M226.4,422.8h5.5v-10.9h5.5v-5.5h10.9V401h5.5v5.5h10.9v5.5
			h5.5v10.9h5.5V581H270v10.9h-5.5v5.5h-10.9v5.5h-5.5v-5.5h-10.9v-5.5h-5.5V581h-5.5V422.8z"/>
	</g>
	<g>
		<rect x="1055.5" y="357.4" fill="#3C1942" width="27.3" height="5.5"/>
		<rect x="1082.7" y="362.8" fill="#3C1942" width="10.9" height="5.5"/>
		<rect x="1093.6" y="368.3" fill="#3C1942" width="10.9" height="5.5"/>
		<rect x="1115.5" y="384.6" fill="#3C1942" width="5.5" height="5.5"/>
		<rect x="1110" y="379.2" fill="#3C1942" width="5.5" height="5.5"/>
		<rect x="1104.5" y="373.7" fill="#3C1942" width="5.5" height="5.5"/>
		<rect x="1120.9" y="390.1" fill="#3C1942" width="5.5" height="10.9"/>
		<rect x="1126.4" y="401" fill="#3C1942" width="5.5" height="16.4"/>
		<rect x="1131.8" y="417.4" fill="#3C1942" width="5.5" height="43.6"/>
		<rect x="1104.5" y="461" fill="#3C1942" width="27.3" height="5.5"/>
		<rect x="1099.1" y="417.4" fill="#3C1942" width="5.5" height="43.6"/>
		<rect x="1093.6" y="406.5" fill="#3C1942" width="5.5" height="10.9"/>
		<rect x="1088.2" y="401" fill="#3C1942" width="5.5" height="5.5"/>
		<rect x="1077.3" y="395.5" fill="#3C1942" width="10.9" height="5.5"/>
		<rect x="1060.9" y="390.1" fill="#3C1942" width="16.4" height="5.5"/>
		<rect x="1050" y="395.5" fill="#3C1942" width="10.9" height="5.5"/>
		<rect x="1044.5" y="401" fill="#3C1942" width="5.5" height="5.5"/>
		<rect x="1039.1" y="406.5" fill="#3C1942" width="5.5" height="32.7"/>
		<rect x="1044.5" y="439.2" fill="#3C1942" width="5.5" height="10.9"/>
		<rect x="1050" y="450.1" fill="#3C1942" width="5.5" height="10.9"/>
		<rect x="1055.5" y="461" fill="#3C1942" width="5.5" height="10.9"/>
		<rect x="1060.9" y="471.9" fill="#3C1942" width="5.5" height="5.5"/>
		<rect x="1066.4" y="477.4" fill="#3C1942" width="5.5" height="5.5"/>
		<rect x="1071.8" y="482.8" fill="#3C1942" width="5.5" height="5.5"/>
		<rect x="1077.3" y="488.3" fill="#3C1942" width="5.5" height="5.5"/>
		<rect x="1082.7" y="493.7" fill="#3C1942" width="5.5" height="5.5"/>
		<rect x="1104.5" y="515.5" fill="#3C1942" width="5.5" height="10.9"/>
		<rect x="1099.1" y="510.1" fill="#3C1942" width="5.5" height="5.5"/>
		<rect x="1093.6" y="504.6" fill="#3C1942" width="5.5" height="5.5"/>
		<rect x="1088.2" y="499.2" fill="#3C1942" width="5.5" height="5.5"/>
		<rect x="1110" y="526.5" fill="#3C1942" width="5.5" height="10.9"/>
		<rect x="1115.5" y="537.4" fill="#3C1942" width="5.5" height="10.9"/>
		<rect x="1120.9" y="548.3" fill="#3C1942" width="5.5" height="10.9"/>
		<rect x="1126.4" y="559.2" fill="#3C1942" width="5.5" height="43.6"/>
		<rect x="1120.9" y="602.8" fill="#3C1942" width="5.5" height="10.9"/>
		<rect x="1115.5" y="613.7" fill="#3C1942" width="5.5" height="5.5"/>
		<rect x="1110" y="619.2" fill="#3C1942" width="5.5" height="5.5"/>
		<rect x="1104.5" y="624.6" fill="#3C1942" width="5.5" height="5.5"/>
		<rect x="1088.2" y="597.4" fill="#3C1942" width="5.5" height="5.5"/>
		<rect x="1044.5" y="597.4" fill="#3C1942" width="5.5" height="5.5"/>
		<rect x="1050" y="602.8" fill="#3C1942" width="10.9" height="5.5"/>
		<rect x="1060.9" y="608.3" fill="#3C1942" width="16.4" height="5.5"/>
		<rect x="1077.3" y="602.8" fill="#3C1942" width="10.9" height="5.5"/>
		<rect x="1039.1" y="586.5" fill="#3C1942" width="5.5" height="10.9"/>
		<rect x="1033.6" y="542.8" fill="#3C1942" width="5.5" height="43.6"/>
		<rect x="1006.4" y="537.4" fill="#3C1942" width="27.3" height="5.5"/>
		<rect x="1000.9" y="542.8" fill="#3C1942" width="5.5" height="43.6"/>
		<rect x="1006.4" y="586.5" fill="#3C1942" width="5.5" height="16.4"/>
		<rect x="1011.8" y="602.8" fill="#3C1942" width="5.5" height="10.9"/>
		<rect x="1017.3" y="613.7" fill="#3C1942" width="5.5" height="5.5"/>
		<rect x="1022.7" y="619.2" fill="#3C1942" width="5.5" height="5.5"/>
		<rect x="1028.2" y="624.6" fill="#3C1942" width="5.5" height="5.5"/>
		<rect x="1033.6" y="630.1" fill="#3C1942" width="10.9" height="5.5"/>
		<rect x="1044.5" y="635.5" fill="#3C1942" width="10.9" height="5.5"/>
		<rect x="1082.7" y="635.5" fill="#3C1942" width="10.9" height="5.5"/>
		<rect x="1093.6" y="630.1" fill="#3C1942" width="10.9" height="5.5"/>
		<rect x="1055.5" y="641" fill="#3C1942" width="27.3" height="5.5"/>
		<rect x="1093.6" y="564.6" fill="#3C1942" width="5.5" height="32.7"/>
		<rect x="1088.2" y="553.7" fill="#3C1942" width="5.5" height="10.9"/>
		<rect x="1082.7" y="542.8" fill="#3C1942" width="5.5" height="10.9"/>
		<rect x="1077.3" y="531.9" fill="#3C1942" width="5.5" height="10.9"/>
		<rect x="1071.8" y="526.5" fill="#3C1942" width="5.5" height="5.5"/>
		<rect x="1066.4" y="521" fill="#3C1942" width="5.5" height="5.5"/>
		<rect x="1060.9" y="515.5" fill="#3C1942" width="5.5" height="5.5"/>
		<rect x="1055.5" y="510.1" fill="#3C1942" width="5.5" height="5.5"/>
		<rect x="1050" y="504.6" fill="#3C1942" width="5.5" height="5.5"/>
		<rect x="1044.5" y="499.2" fill="#3C1942" width="5.5" height="5.5"/>
		<rect x="1039.1" y="493.7" fill="#3C1942" width="5.5" height="5.5"/>
		<rect x="1033.6" y="488.3" fill="#3C1942" width="5.5" height="5.5"/>
		<rect x="1028.2" y="477.4" fill="#3C1942" width="5.5" height="10.9"/>
		<rect x="1022.7" y="466.5" fill="#3C1942" width="5.5" height="10.9"/>
		<rect x="1017.3" y="455.5" fill="#3C1942" width="5.5" height="10.9"/>
		<rect x="1011.8" y="444.6" fill="#3C1942" width="5.5" height="10.9"/>
		<rect x="1006.4" y="401" fill="#3C1942" width="5.5" height="43.6"/>
		<rect x="1011.8" y="390.1" fill="#3C1942" width="5.5" height="10.9"/>
		<rect x="1017.3" y="384.6" fill="#3C1942" width="5.5" height="5.5"/>
		<rect x="1022.7" y="379.2" fill="#3C1942" width="5.5" height="5.5"/>
		<rect x="1028.2" y="373.7" fill="#3C1942" width="5.5" height="5.5"/>
		<rect x="1033.6" y="368.3" fill="#3C1942" width="10.9" height="5.5"/>
		<rect x="1044.5" y="362.8" fill="#3C1942" width="10.9" height="5.5"/>
		<rect x="853.6" y="608.3" fill="#3C1942" width="5.5" height="27.3"/>
		<rect x="831.8" y="635.5" fill="#3C1942" width="21.8" height="5.5"/>
		<rect x="831.8" y="602.8" fill="#3C1942" width="21.8" height="5.5"/>
		<rect x="826.4" y="608.3" fill="#3C1942" width="5.5" height="27.3"/>
		<rect x="62.7" y="362.8" fill="#3C1942" width="5.5" height="32.7"/>
		<rect x="95.5" y="362.8" fill="#3C1942" width="5.5" height="32.7"/>
		<rect x="150" y="362.8" fill="#3C1942" width="5.5" height="32.7"/>
		<rect x="182.7" y="362.8" fill="#3C1942" width="5.5" height="32.7"/>
		<rect x="144.5" y="395.5" fill="#3C1942" width="5.5" height="32.7"/>
		<rect x="100.9" y="395.5" fill="#3C1942" width="5.5" height="32.7"/>
		<rect x="68.2" y="395.5" fill="#3C1942" width="5.5" height="27.3"/>
		<rect x="139.1" y="428.3" fill="#3C1942" width="5.5" height="27.3"/>
		<rect x="106.4" y="428.3" fill="#3C1942" width="5.5" height="27.3"/>
		<rect x="171.8" y="422.8" fill="#3C1942" width="5.5" height="32.7"/>
		<rect x="73.6" y="422.8" fill="#3C1942" width="5.5" height="32.7"/>
		<rect x="133.6" y="455.5" fill="#3C1942" width="5.5" height="32.7"/>
		<rect x="166.4" y="455.5" fill="#3C1942" width="5.5" height="32.7"/>
		<rect x="79.1" y="455.5" fill="#3C1942" width="5.5" height="32.7"/>
		<rect x="111.8" y="455.5" fill="#3C1942" width="5.5" height="32.7"/>
		<rect x="128.2" y="488.3" fill="#3C1942" width="5.5" height="32.7"/>
		<rect x="117.3" y="488.3" fill="#3C1942" width="5.5" height="32.7"/>
		<rect x="160.9" y="488.3" fill="#3C1942" width="5.5" height="32.7"/>
		<rect x="84.5" y="488.3" fill="#3C1942" width="5.5" height="32.7"/>
		<rect x="122.7" y="521" fill="#3C1942" width="5.5" height="27.3"/>
		<rect x="155.5" y="521" fill="#3C1942" width="5.5" height="32.7"/>
		<rect x="90" y="521" fill="#3C1942" width="5.5" height="32.7"/>
		<rect x="139.1" y="608.3" fill="#3C1942" width="5.5" height="32.7"/>
		<rect x="106.4" y="608.3" fill="#3C1942" width="5.5" height="32.7"/>
		<rect x="144.5" y="581" fill="#3C1942" width="5.5" height="27.3"/>
		<rect x="100.9" y="581" fill="#3C1942" width="5.5" height="27.3"/>
		<rect x="150" y="553.7" fill="#3C1942" width="5.5" height="27.3"/>
		<rect x="95.5" y="553.7" fill="#3C1942" width="5.5" height="27.3"/>
		<rect x="111.8" y="641" fill="#3C1942" width="27.3" height="5.5"/>
		<rect x="68.2" y="357.4" fill="#3C1942" width="27.3" height="5.5"/>
		<rect x="155.5" y="357.4" fill="#3C1942" width="27.3" height="5.5"/>
		<rect x="548.2" y="608.3" fill="#3C1942" width="5.5" height="27.3"/>
		<rect x="455.5" y="635.5" fill="#3C1942" width="92.7" height="5.5"/>
		<rect x="455.5" y="357.4" fill="#3C1942" width="27.3" height="5.5"/>
		<polygon fill="#3C1942" points="482.7,608.3 488.2,608.3 548.2,608.3 548.2,602.8 488.2,602.8 488.2,362.8 482.7,362.8 
			482.7,602.8 		"/>
		<rect x="450" y="362.8" fill="#3C1942" width="5.5" height="272.7"/>
		<rect x="330" y="635.5" fill="#3C1942" width="27.3" height="5.5"/>
		<polygon fill="#3C1942" points="379.1,510.1 373.6,510.1 362.7,510.1 357.3,510.1 357.3,515.5 357.3,635.5 362.7,635.5 
			362.7,515.5 373.6,515.5 373.6,531.9 379.1,531.9 379.1,515.5 		"/>
		<rect x="395.5" y="477.4" fill="#3C1942" width="10.9" height="5.5"/>
		<rect x="406.4" y="401" fill="#3C1942" width="5.5" height="76.4"/>
		<rect x="395.5" y="395.5" fill="#3C1942" width="10.9" height="5.5"/>
		<rect x="324.5" y="362.8" fill="#3C1942" width="5.5" height="272.7"/>
		<rect x="330" y="357.4" fill="#3C1942" width="76.4" height="5.5"/>
		<rect x="406.4" y="362.8" fill="#3C1942" width="10.9" height="5.5"/>
		<rect x="417.3" y="368.3" fill="#3C1942" width="5.5" height="5.5"/>
		<rect x="422.7" y="373.7" fill="#3C1942" width="5.5" height="5.5"/>
		<rect x="428.2" y="379.2" fill="#3C1942" width="5.5" height="5.5"/>
		<rect x="433.6" y="384.6" fill="#3C1942" width="5.5" height="10.9"/>
		<rect x="439.1" y="395.5" fill="#3C1942" width="5.5" height="87.3"/>
		<rect x="433.6" y="482.8" fill="#3C1942" width="5.5" height="10.9"/>
		<rect x="428.2" y="493.7" fill="#3C1942" width="5.5" height="5.5"/>
		<rect x="422.7" y="499.2" fill="#3C1942" width="5.5" height="5.5"/>
		<rect x="411.8" y="504.6" fill="#3C1942" width="10.9" height="5.5"/>
		<rect x="406.4" y="510.1" fill="#3C1942" width="5.5" height="27.3"/>
		<rect x="411.8" y="537.4" fill="#3C1942" width="5.5" height="16.4"/>
		<rect x="417.3" y="553.7" fill="#3C1942" width="5.5" height="16.4"/>
		<rect x="422.7" y="570.1" fill="#3C1942" width="5.5" height="16.4"/>
		<rect x="428.2" y="586.5" fill="#3C1942" width="5.5" height="16.4"/>
		<rect x="411.8" y="635.5" fill="#3C1942" width="27.3" height="5.5"/>
		<rect x="439.1" y="619.2" fill="#3C1942" width="5.5" height="16.4"/>
		<rect x="433.6" y="602.8" fill="#3C1942" width="5.5" height="16.4"/>
		<rect x="406.4" y="619.2" fill="#3C1942" width="5.5" height="16.4"/>
		<rect x="400.9" y="602.8" fill="#3C1942" width="5.5" height="16.4"/>
		<rect x="395.5" y="586.5" fill="#3C1942" width="5.5" height="16.4"/>
		<rect x="390" y="564.6" fill="#3C1942" width="5.5" height="21.8"/>
		<rect x="384.5" y="548.3" fill="#3C1942" width="5.5" height="16.4"/>
		<rect x="379.1" y="531.9" fill="#3C1942" width="5.5" height="16.4"/>
		<rect x="788.2" y="357.4" fill="#3C1942" width="27.3" height="5.5"/>
		<rect x="766.4" y="493.7" fill="#3C1942" width="5.5" height="16.4"/>
		<rect x="739.1" y="504.6" fill="#3C1942" width="5.5" height="16.4"/>
		<rect x="733.6" y="488.3" fill="#3C1942" width="5.5" height="16.4"/>
		<rect x="695.5" y="357.4" fill="#3C1942" width="27.3" height="5.5"/>
		<rect x="690" y="362.8" fill="#3C1942" width="5.5" height="272.7"/>
		<polygon fill="#3C1942" points="728.2,471.9 728.2,455.5 722.7,455.5 722.7,635.5 728.2,635.5 728.2,488.3 733.6,488.3 
			733.6,471.9 		"/>
		<polygon fill="#3C1942" points="782.7,542.8 782.7,559.2 788.2,559.2 788.2,542.8 788.2,526.5 788.2,362.8 782.7,362.8 
			782.7,526.5 777.3,526.5 777.3,542.8 		"/>
		<rect x="771.8" y="510.1" fill="#3C1942" width="5.5" height="16.4"/>
		<rect x="782.7" y="635.5" fill="#3C1942" width="32.7" height="5.5"/>
		<rect x="815.5" y="362.8" fill="#3C1942" width="5.5" height="272.7"/>
		<rect x="777.3" y="619.2" fill="#3C1942" width="5.5" height="16.4"/>
		<rect x="771.8" y="602.8" fill="#3C1942" width="5.5" height="16.4"/>
		<rect x="760.9" y="477.4" fill="#3C1942" width="5.5" height="16.4"/>
		<rect x="755.5" y="461" fill="#3C1942" width="5.5" height="16.4"/>
		<rect x="750" y="444.6" fill="#3C1942" width="5.5" height="16.4"/>
		<rect x="744.5" y="428.3" fill="#3C1942" width="5.5" height="16.4"/>
		<rect x="739.1" y="411.9" fill="#3C1942" width="5.5" height="16.4"/>
		<rect x="733.6" y="395.5" fill="#3C1942" width="5.5" height="16.4"/>
		<rect x="728.2" y="379.2" fill="#3C1942" width="5.5" height="16.4"/>
		<rect x="722.7" y="362.8" fill="#3C1942" width="5.5" height="16.4"/>
		<rect x="695.5" y="635.5" fill="#3C1942" width="27.3" height="5.5"/>
		<rect x="766.4" y="586.5" fill="#3C1942" width="5.5" height="16.4"/>
		<rect x="760.9" y="570.1" fill="#3C1942" width="5.5" height="16.4"/>
		<rect x="755.5" y="553.7" fill="#3C1942" width="5.5" height="16.4"/>
		<rect x="750" y="537.4" fill="#3C1942" width="5.5" height="16.4"/>
		<rect x="744.5" y="521" fill="#3C1942" width="5.5" height="16.4"/>
		<polygon fill="#3C1942" points="362.7,395.5 395.5,395.5 395.5,390.1 362.7,390.1 357.3,390.1 357.3,395.5 357.3,482.8 
			357.3,488.3 395.5,488.3 395.5,482.8 362.7,482.8 		"/>
		<rect x="908.2" y="602.8" fill="#3C1942" width="10.9" height="5.5"/>
		<rect x="902.7" y="597.4" fill="#3C1942" width="5.5" height="5.5"/>
		<rect x="897.3" y="586.5" fill="#3C1942" width="5.5" height="10.9"/>
		<rect x="951.8" y="586.5" fill="#3C1942" width="5.5" height="10.9"/>
		<rect x="984.5" y="591.9" fill="#3C1942" width="5.5" height="10.9"/>
		<rect x="864.5" y="591.9" fill="#3C1942" width="5.5" height="10.9"/>
		<rect x="870" y="602.8" fill="#3C1942" width="5.5" height="10.9"/>
		<rect x="875.5" y="613.7" fill="#3C1942" width="5.5" height="5.5"/>
		<rect x="880.9" y="619.2" fill="#3C1942" width="5.5" height="5.5"/>
		<rect x="886.4" y="624.6" fill="#3C1942" width="5.5" height="5.5"/>
		<rect x="891.8" y="630.1" fill="#3C1942" width="10.9" height="5.5"/>
		<rect x="902.7" y="635.5" fill="#3C1942" width="10.9" height="5.5"/>
		<rect x="913.6" y="641" fill="#3C1942" width="27.3" height="5.5"/>
		<rect x="957.3" y="362.8" fill="#3C1942" width="5.5" height="223.6"/>
		<rect x="864.5" y="537.4" fill="#3C1942" width="27.3" height="5.5"/>
		<rect x="859.1" y="542.8" fill="#3C1942" width="5.5" height="49.1"/>
		<rect x="891.8" y="542.8" fill="#3C1942" width="5.5" height="43.6"/>
		<rect x="919.1" y="608.3" fill="#3C1942" width="16.4" height="5.5"/>
		<rect x="935.5" y="602.8" fill="#3C1942" width="10.9" height="5.5"/>
		<rect x="946.4" y="597.4" fill="#3C1942" width="5.5" height="5.5"/>
		<rect x="990" y="362.8" fill="#3C1942" width="5.5" height="229.1"/>
		<rect x="940.9" y="635.5" fill="#3C1942" width="10.9" height="5.5"/>
		<rect x="951.8" y="630.1" fill="#3C1942" width="10.9" height="5.5"/>
		<rect x="962.7" y="624.6" fill="#3C1942" width="5.5" height="5.5"/>
		<rect x="968.2" y="619.2" fill="#3C1942" width="5.5" height="5.5"/>
		<rect x="973.6" y="613.7" fill="#3C1942" width="5.5" height="5.5"/>
		<rect x="979.1" y="602.8" fill="#3C1942" width="5.5" height="10.9"/>
		<rect x="962.7" y="357.4" fill="#3C1942" width="27.3" height="5.5"/>
		<rect x="231.8" y="602.8" fill="#3C1942" width="10.9" height="5.5"/>
		<rect x="226.4" y="597.4" fill="#3C1942" width="5.5" height="5.5"/>
		<rect x="220.9" y="586.5" fill="#3C1942" width="5.5" height="10.9"/>
		<rect x="275.5" y="586.5" fill="#3C1942" width="5.5" height="10.9"/>
		<rect x="308.2" y="591.9" fill="#3C1942" width="5.5" height="10.9"/>
		<rect x="188.2" y="591.9" fill="#3C1942" width="5.5" height="10.9"/>
		<rect x="193.6" y="602.8" fill="#3C1942" width="5.5" height="10.9"/>
		<rect x="199.1" y="613.7" fill="#3C1942" width="5.5" height="5.5"/>
		<rect x="204.5" y="619.2" fill="#3C1942" width="5.5" height="5.5"/>
		<rect x="210" y="624.6" fill="#3C1942" width="5.5" height="5.5"/>
		<rect x="215.5" y="630.1" fill="#3C1942" width="10.9" height="5.5"/>
		<rect x="226.4" y="635.5" fill="#3C1942" width="10.9" height="5.5"/>
		<rect x="237.3" y="641" fill="#3C1942" width="27.3" height="5.5"/>
		<rect x="242.7" y="608.3" fill="#3C1942" width="16.4" height="5.5"/>
		<rect x="259.1" y="602.8" fill="#3C1942" width="10.9" height="5.5"/>
		<rect x="270" y="597.4" fill="#3C1942" width="5.5" height="5.5"/>
		<rect x="264.5" y="635.5" fill="#3C1942" width="10.9" height="5.5"/>
		<rect x="275.5" y="630.1" fill="#3C1942" width="10.9" height="5.5"/>
		<rect x="286.4" y="624.6" fill="#3C1942" width="5.5" height="5.5"/>
		<rect x="291.8" y="619.2" fill="#3C1942" width="5.5" height="5.5"/>
		<rect x="297.3" y="613.7" fill="#3C1942" width="5.5" height="5.5"/>
		<rect x="302.7" y="602.8" fill="#3C1942" width="5.5" height="10.9"/>
		<rect x="259.1" y="395.5" fill="#3C1942" width="10.9" height="5.5"/>
		<rect x="270" y="401" fill="#3C1942" width="5.5" height="5.5"/>
		<rect x="275.5" y="406.5" fill="#3C1942" width="5.5" height="10.9"/>
		<rect x="220.9" y="406.5" fill="#3C1942" width="5.5" height="10.9"/>
		<rect x="188.2" y="401" fill="#3C1942" width="5.5" height="10.9"/>
		<rect x="308.2" y="401" fill="#3C1942" width="5.5" height="10.9"/>
		<rect x="302.7" y="390.1" fill="#3C1942" width="5.5" height="10.9"/>
		<rect x="297.3" y="384.6" fill="#3C1942" width="5.5" height="5.5"/>
		<rect x="291.8" y="379.2" fill="#3C1942" width="5.5" height="5.5"/>
		<rect x="286.4" y="373.7" fill="#3C1942" width="5.5" height="5.5"/>
		<rect x="275.5" y="368.3" fill="#3C1942" width="10.9" height="5.5"/>
		<rect x="264.5" y="362.8" fill="#3C1942" width="10.9" height="5.5"/>
		<rect x="237.3" y="357.4" fill="#3C1942" width="27.3" height="5.5"/>
		<polygon fill="#3C1942" points="220.9,542.8 220.9,417.4 215.5,417.4 215.5,542.8 215.5,564.6 215.5,586.5 220.9,586.5 
			220.9,564.6 		"/>
		<polygon fill="#3C1942" points="313.6,455.5 313.6,461 313.6,591.9 319.1,591.9 319.1,461 319.1,455.5 319.1,411.9 313.6,411.9 		
			"/>
		<polygon fill="#3C1942" points="280.9,455.5 280.9,461 280.9,586.5 286.4,586.5 286.4,461 286.4,455.5 286.4,417.4 280.9,417.4 		
			"/>
		<rect x="242.7" y="390.1" fill="#3C1942" width="16.4" height="5.5"/>
		<rect x="231.8" y="395.5" fill="#3C1942" width="10.9" height="5.5"/>
		<rect x="226.4" y="401" fill="#3C1942" width="5.5" height="5.5"/>
		<polygon fill="#3C1942" points="188.2,542.8 188.2,411.9 182.7,411.9 182.7,395.5 177.3,395.5 177.3,422.8 182.7,422.8 
			182.7,542.8 182.7,564.6 182.7,591.9 188.2,591.9 188.2,564.6 		"/>
		<rect x="226.4" y="362.8" fill="#3C1942" width="10.9" height="5.5"/>
		<rect x="215.5" y="368.3" fill="#3C1942" width="10.9" height="5.5"/>
		<rect x="210" y="373.7" fill="#3C1942" width="5.5" height="5.5"/>
		<rect x="204.5" y="379.2" fill="#3C1942" width="5.5" height="5.5"/>
		<rect x="199.1" y="384.6" fill="#3C1942" width="5.5" height="5.5"/>
		<rect x="193.6" y="390.1" fill="#3C1942" width="5.5" height="10.9"/>
		<rect x="597.3" y="602.8" fill="#3C1942" width="10.9" height="5.5"/>
		<rect x="591.8" y="597.4" fill="#3C1942" width="5.5" height="5.5"/>
		<rect x="586.4" y="586.5" fill="#3C1942" width="5.5" height="10.9"/>
		<rect x="640.9" y="586.5" fill="#3C1942" width="5.5" height="10.9"/>
		<rect x="673.6" y="591.9" fill="#3C1942" width="5.5" height="10.9"/>
		<rect x="553.6" y="591.9" fill="#3C1942" width="5.5" height="10.9"/>
		<rect x="559.1" y="602.8" fill="#3C1942" width="5.5" height="10.9"/>
		<rect x="564.5" y="613.7" fill="#3C1942" width="5.5" height="5.5"/>
		<rect x="570" y="619.2" fill="#3C1942" width="5.5" height="5.5"/>
		<rect x="575.5" y="624.6" fill="#3C1942" width="5.5" height="5.5"/>
		<rect x="580.9" y="630.1" fill="#3C1942" width="10.9" height="5.5"/>
		<rect x="591.8" y="635.5" fill="#3C1942" width="10.9" height="5.5"/>
		<rect x="602.7" y="641" fill="#3C1942" width="27.3" height="5.5"/>
		<rect x="608.2" y="608.3" fill="#3C1942" width="16.4" height="5.5"/>
		<rect x="624.5" y="602.8" fill="#3C1942" width="10.9" height="5.5"/>
		<rect x="635.5" y="597.4" fill="#3C1942" width="5.5" height="5.5"/>
		<rect x="630" y="635.5" fill="#3C1942" width="10.9" height="5.5"/>
		<rect x="640.9" y="630.1" fill="#3C1942" width="10.9" height="5.5"/>
		<rect x="651.8" y="624.6" fill="#3C1942" width="5.5" height="5.5"/>
		<rect x="657.3" y="619.2" fill="#3C1942" width="5.5" height="5.5"/>
		<rect x="662.7" y="613.7" fill="#3C1942" width="5.5" height="5.5"/>
		<rect x="668.2" y="602.8" fill="#3C1942" width="5.5" height="10.9"/>
		<rect x="624.5" y="395.5" fill="#3C1942" width="10.9" height="5.5"/>
		<rect x="635.5" y="401" fill="#3C1942" width="5.5" height="5.5"/>
		<rect x="640.9" y="406.5" fill="#3C1942" width="5.5" height="10.9"/>
		<rect x="586.4" y="406.5" fill="#3C1942" width="5.5" height="10.9"/>
		<rect x="553.6" y="401" fill="#3C1942" width="5.5" height="10.9"/>
		<rect x="673.6" y="401" fill="#3C1942" width="5.5" height="10.9"/>
		<rect x="668.2" y="390.1" fill="#3C1942" width="5.5" height="10.9"/>
		<rect x="662.7" y="384.6" fill="#3C1942" width="5.5" height="5.5"/>
		<rect x="657.3" y="379.2" fill="#3C1942" width="5.5" height="5.5"/>
		<rect x="651.8" y="373.7" fill="#3C1942" width="5.5" height="5.5"/>
		<rect x="640.9" y="368.3" fill="#3C1942" width="10.9" height="5.5"/>
		<rect x="630" y="362.8" fill="#3C1942" width="10.9" height="5.5"/>
		<rect x="602.7" y="357.4" fill="#3C1942" width="27.3" height="5.5"/>
		<polygon fill="#3C1942" points="586.4,542.8 586.4,417.4 580.9,417.4 580.9,542.8 580.9,564.6 580.9,586.5 586.4,586.5 
			586.4,564.6 		"/>
		<polygon fill="#3C1942" points="679.1,455.5 679.1,461 679.1,591.9 684.5,591.9 684.5,461 684.5,455.5 684.5,411.9 679.1,411.9 		
			"/>
		<polygon fill="#3C1942" points="646.4,455.5 646.4,461 646.4,586.5 651.8,586.5 651.8,461 651.8,455.5 651.8,417.4 646.4,417.4 		
			"/>
		<rect x="608.2" y="390.1" fill="#3C1942" width="16.4" height="5.5"/>
		<rect x="597.3" y="395.5" fill="#3C1942" width="10.9" height="5.5"/>
		<rect x="591.8" y="401" fill="#3C1942" width="5.5" height="5.5"/>
		<polygon fill="#3C1942" points="553.6,542.8 553.6,411.9 548.2,411.9 548.2,542.8 548.2,564.6 548.2,591.9 553.6,591.9 
			553.6,564.6 		"/>
		<rect x="591.8" y="362.8" fill="#3C1942" width="10.9" height="5.5"/>
		<rect x="580.9" y="368.3" fill="#3C1942" width="10.9" height="5.5"/>
		<rect x="575.5" y="373.7" fill="#3C1942" width="5.5" height="5.5"/>
		<rect x="570" y="379.2" fill="#3C1942" width="5.5" height="5.5"/>
		<rect x="564.5" y="384.6" fill="#3C1942" width="5.5" height="5.5"/>
		<rect x="559.1" y="390.1" fill="#3C1942" width="5.5" height="10.9"/>
	</g>
	<g>
		<rect x="886.4" y="281" fill="#3C1942" width="16.4" height="10.9"/>
		<rect x="919.1" y="275.5" fill="#3C1942" width="10.9" height="10.9"/>
		<rect x="946.4" y="264.6" fill="#3C1942" width="10.9" height="10.9"/>
		<rect x="968.2" y="259.2" fill="#3C1942" width="5.5" height="5.5"/>
		<rect x="859.1" y="281" fill="#3C1942" width="10.9" height="10.9"/>
		<rect x="831.8" y="275.5" fill="#3C1942" width="10.9" height="10.9"/>
		<rect x="815.5" y="270.1" fill="#3C1942" width="5.5" height="5.5"/>
		<path fill="#3C1942" d="M853.6,259.2v5.5h10.9v5.5h32.7v-5.5h21.8v-5.5H930v-5.5h5.5v-10.9H930v-10.9h-5.5v-5.5h-5.5V221h-10.9
			v-5.5h-27.3v5.5H870v5.5h-10.9v10.9h-5.5v16.4h-5.5v5.5H853.6z M908.2,242.8v-5.5h5.5v5.5h5.5v5.5v5.5h-5.5v-5.5h-5.5V242.8z
			 M897.3,226.5h5.5v5.5h-5.5V226.5z"/>
		<polygon fill="#3C1942" points="826.4,302.8 826.4,297.4 837.3,297.4 837.3,291.9 804.5,291.9 804.5,297.4 815.5,297.4 
			815.5,302.8 820.9,302.8 820.9,308.3 831.8,308.3 831.8,302.8 		"/>
		<rect x="837.3" y="297.4" fill="#3C1942" width="70.9" height="5.5"/>
		<rect x="908.2" y="291.9" fill="#3C1942" width="32.7" height="5.5"/>
		<rect x="940.9" y="286.5" fill="#3C1942" width="16.4" height="5.5"/>
		<polygon fill="#3C1942" points="957.3,281 957.3,286.5 973.6,286.5 973.6,291.9 979.1,291.9 979.1,281 973.6,281 		"/>
		<polygon fill="#3C1942" points="848.2,248.3 848.2,242.8 842.7,242.8 842.7,248.3 826.4,248.3 826.4,253.7 848.2,253.7 		"/>
		<rect x="848.2" y="231.9" fill="#3C1942" width="5.5" height="5.5"/>
		<rect x="853.6" y="221" fill="#3C1942" width="5.5" height="5.5"/>
		<rect x="859.1" y="215.5" fill="#3C1942" width="10.9" height="5.5"/>
		<rect x="870" y="210.1" fill="#3C1942" width="10.9" height="5.5"/>
		<rect x="880.9" y="204.6" fill="#3C1942" width="27.3" height="5.5"/>
		<rect x="908.2" y="210.1" fill="#3C1942" width="10.9" height="5.5"/>
		<rect x="919.1" y="215.5" fill="#3C1942" width="5.5" height="5.5"/>
		<rect x="924.5" y="221" fill="#3C1942" width="5.5" height="5.5"/>
		<rect x="930" y="226.5" fill="#3C1942" width="5.5" height="5.5"/>
		<rect x="935.5" y="237.4" fill="#3C1942" width="21.8" height="5.5"/>
		<rect x="957.3" y="242.8" fill="#3C1942" width="27.3" height="5.5"/>
		<rect x="984.5" y="248.3" fill="#3C1942" width="16.4" height="5.5"/>
		<rect x="995.5" y="264.6" fill="#3C1942" width="5.5" height="5.5"/>
		<rect x="1000.9" y="253.7" fill="#3C1942" width="5.5" height="10.9"/>
		<rect x="990" y="270.1" fill="#3C1942" width="5.5" height="5.5"/>
		<rect x="979.1" y="275.5" fill="#3C1942" width="10.9" height="5.5"/>
		<rect x="968.2" y="291.9" fill="#3C1942" width="5.5" height="5.5"/>
		<rect x="957.3" y="297.4" fill="#3C1942" width="10.9" height="5.5"/>
		<rect x="946.4" y="302.8" fill="#3C1942" width="10.9" height="5.5"/>
		<rect x="930" y="308.3" fill="#3C1942" width="16.4" height="5.5"/>
		<rect x="842.7" y="313.7" fill="#3C1942" width="87.3" height="5.5"/>
		<rect x="793.6" y="286.5" fill="#3C1942" width="10.9" height="5.5"/>
		<rect x="788.2" y="281" fill="#3C1942" width="5.5" height="5.5"/>
		<rect x="782.7" y="270.1" fill="#3C1942" width="5.5" height="10.9"/>
		<rect x="788.2" y="264.6" fill="#3C1942" width="10.9" height="5.5"/>
		<rect x="799.1" y="259.2" fill="#3C1942" width="10.9" height="5.5"/>
		<rect x="810" y="253.7" fill="#3C1942" width="16.4" height="5.5"/>
		<rect x="831.8" y="308.3" fill="#3C1942" width="10.9" height="5.5"/>
	</g>
</g>
<g id="Dark_Grey">
	<polygon fill="#D5D5D5" points="128.2,542.8 128.2,548.3 122.7,548.3 122.7,542.8 95.5,542.8 95.5,553.7 100.9,553.7 100.9,581 
		106.4,581 106.4,608.3 111.8,608.3 111.8,641 139.1,641 139.1,608.3 144.5,608.3 144.5,581 150,581 150,553.7 155.5,553.7 
		155.5,542.8 	"/>
	<rect x="330" y="542.8" fill="#D5D5D5" width="27.3" height="92.7"/>
	<rect x="695.5" y="542.8" fill="#D5D5D5" width="27.3" height="92.7"/>
	<polygon fill="#D5D5D5" points="482.7,608.3 482.7,542.8 455.5,542.8 455.5,635.5 548.2,635.5 548.2,608.3 	"/>
	<polygon fill="#D5D5D5" points="439.1,635.5 411.8,635.5 411.8,619.2 406.4,619.2 406.4,602.8 400.9,602.8 400.9,586.5 
		395.5,586.5 395.5,564.6 390,564.6 390,548.3 384.5,548.3 384.5,542.8 411.8,542.8 411.8,553.7 417.3,553.7 417.3,570.1 
		422.7,570.1 422.7,586.5 428.2,586.5 428.2,602.8 433.6,602.8 433.6,619.2 439.1,619.2 	"/>
	<polygon fill="#D5D5D5" points="788.2,542.8 788.2,559.2 782.7,559.2 782.7,542.8 755.5,542.8 755.5,553.7 760.9,553.7 
		760.9,570.1 766.4,570.1 766.4,586.5 771.8,586.5 771.8,602.8 777.3,602.8 777.3,619.2 782.7,619.2 782.7,635.5 790.9,635.5 
		796.4,635.5 815.5,635.5 815.5,542.8 	"/>
	<path fill="#D5D5D5" d="M1120.9,559.2v-10.9h-5.5v-5.5h-21.8h-5.5c0,0-0.3,5.2,0,5.5v5.5h5.5v10.9h5.5v32.7h-5.5v5.5h-5.5v5.5
		h-10.9v5.5h-5.5h-10.9v-5.5H1050v-5.5h-5.5v-5.5h-5.5v-10.9h-5.5v-43.6h-27.3c0.5,0.5,0,43.6,0,43.6h5.5v16.4h5.5v10.9h5.5v5.5h5.5
		v5.5h5.5v5.5h10.9v5.5h10.9v5.5h16.4h10.9v-5.5h10.9v-5.5h10.9v-5.5h5.5v-5.5h5.5v-5.5h5.5v-10.9h5.5v-43.6H1120.9z"/>
	<rect x="831.8" y="608.3" fill="#D5D5D5" width="21.8" height="27.3"/>
	<polygon fill="#D5D5D5" points="957.3,286.5 957.3,291.9 940.9,291.9 940.9,297.4 908.2,297.4 908.2,302.8 842.7,302.8 
		837.3,302.8 837.3,297.4 820.9,297.4 820.9,302.8 831.8,302.8 831.8,308.3 842.7,308.3 842.7,313.7 930,313.7 930,308.3 
		946.4,308.3 946.4,302.8 957.3,302.8 957.3,297.4 968.2,297.4 968.2,291.9 973.6,291.9 973.6,286.5 	"/>
	<path fill="#D5D5D5" d="M962.7,542.8v43.6h-5.5v10.9h-5.5v5.5h-5.5v5.5h-2.7h-8.2v5.5h-16.4v-5.5h-2.7h-8.2v-5.5h-5.5v-5.5h-5.5
		v-10.9h-5.5v-46.4c0,0-24.5,0.5-27.3,0v51.8h5.5v10.9h5.5v10.9h5.5v5.5h5.5v5.5h5.5v5.5h10.9v5.5h10.9v5.5h27.3v-5.5h10.9v-5.5
		h10.9v-5.5h5.5v-5.5h5.5v-5.5h5.5v-10.9h5.5v-10.9h5.5v-49.1H962.7z"/>
	<polygon fill="#D5D5D5" points="286.4,542.8 286.4,586.5 280.9,586.5 280.9,597.4 275.5,597.4 275.5,602.8 270,602.8 270,608.3 
		267.3,608.3 259.1,608.3 259.1,613.7 242.7,613.7 242.7,608.3 240,608.3 231.8,608.3 231.8,602.8 226.4,602.8 226.4,597.4 
		220.9,597.4 220.9,586.5 215.5,586.5 215.5,542.8 188.2,542.8 188.2,591.9 193.6,591.9 193.6,602.8 199.1,602.8 199.1,613.7 
		204.5,613.7 204.5,619.2 210,619.2 210,624.6 215.5,624.6 215.5,630.1 226.4,630.1 226.4,635.5 237.3,635.5 237.3,641 264.5,641 
		264.5,635.5 275.5,635.5 275.5,630.1 286.4,630.1 286.4,624.6 291.8,624.6 291.8,619.2 297.3,619.2 297.3,613.7 302.7,613.7 
		302.7,602.8 308.2,602.8 308.2,591.9 313.6,591.9 313.6,542.8 	"/>
	<polygon fill="#D5D5D5" points="651.8,542.8 651.8,586.5 646.4,586.5 646.4,597.4 640.9,597.4 640.9,602.8 635.5,602.8 
		635.5,608.3 632.7,608.3 624.5,608.3 624.5,613.7 608.2,613.7 608.2,608.3 605.5,608.3 597.3,608.3 597.3,602.8 591.8,602.8 
		591.8,597.4 586.4,597.4 586.4,586.5 580.9,586.5 580.9,542.8 553.6,542.8 553.6,591.9 559.1,591.9 559.1,602.8 564.5,602.8 
		564.5,613.7 570,613.7 570,619.2 575.5,619.2 575.5,624.6 580.9,624.6 580.9,630.1 591.8,630.1 591.8,635.5 602.7,635.5 602.7,641 
		630,641 630,635.5 640.9,635.5 640.9,630.1 651.8,630.1 651.8,624.6 657.3,624.6 657.3,619.2 662.7,619.2 662.7,613.7 668.2,613.7 
		668.2,602.8 673.6,602.8 673.6,591.9 679.1,591.9 679.1,542.8 	"/>
</g>
<g id="Medium_grey">
	<g>
		<polygon fill="#E0E0DF" points="122.7,542.8 122.7,521 117.3,521 117.3,515.5 90,515.5 90,521 95.5,521 95.5,542.8 		"/>
		<polygon fill="#E0E0DF" points="133.6,515.5 133.6,521 128.2,521 128.2,542.8 155.5,542.8 155.5,521 160.9,521 160.9,515.5 		"/>
	</g>
	<rect x="330" y="515.5" fill="#E0E0DF" width="27.3" height="27.3"/>
	<rect x="455.5" y="515.5" fill="#E0E0DF" width="27.3" height="27.3"/>
	<rect x="695.5" y="515.5" fill="#E0E0DF" width="27.3" height="27.3"/>
	<rect x="788.2" y="515.5" fill="#E0E0DF" width="27.3" height="27.3"/>
	<polygon fill="#E0E0DF" points="411.8,542.8 384.5,542.8 384.5,531.9 379.1,531.9 379.1,515.5 406.4,515.5 406.4,537.4 
		411.8,537.4 	"/>
	<path fill="#E0E0DF" d="M744.5,515.5h27.3v10.9h5.5v16.4h-21.8v-5.5H750V521h-5.5C744.5,521,744.5,512.8,744.5,515.5z"/>
	<polygon fill="#E0E0DF" points="1066.4,515.5 1066.4,521 1071.8,521 1071.8,526.5 1077.3,526.5 1077.3,531.9 1082.7,531.9 
		1082.7,542.8 1115.5,542.8 1115.5,537.4 1110,537.4 1110,526.5 1104.5,526.5 1104.5,515.5 	"/>
	<rect x="962.7" y="515.5" fill="#E0E0DF" width="27.3" height="27.3"/>
	<rect x="188.2" y="515.5" fill="#E0E0DF" width="27.3" height="27.3"/>
	<rect x="286.4" y="515.5" fill="#E0E0DF" width="27.3" height="27.3"/>
	<rect x="553.6" y="515.5" fill="#E0E0DF" width="27.3" height="27.3"/>
	<rect x="651.8" y="515.5" fill="#E0E0DF" width="27.3" height="27.3"/>
</g>
<g id="Light_grey">
	<rect x="962.7" y="499.2" fill="#EEEEEE" width="27.3" height="16.4"/>
	<rect x="286.4" y="499.2" fill="#EEEEEE" width="27.3" height="16.4"/>
	<rect x="188.2" y="499.2" fill="#EEEEEE" width="27.3" height="16.4"/>
	<rect x="651.8" y="499.2" fill="#EEEEEE" width="27.3" height="16.4"/>
	<rect x="553.6" y="499.2" fill="#EEEEEE" width="27.3" height="16.4"/>
	<rect x="90" y="499.2" fill="#EEEEEE" width="27.3" height="16.4"/>
	<rect x="133.6" y="499.2" fill="#EEEEEE" width="27.3" height="16.4"/>
	<rect x="455.5" y="499.2" fill="#EEEEEE" width="27.3" height="16.4"/>
	<rect x="695.5" y="499.2" fill="#EEEEEE" width="27.3" height="16.4"/>
	<rect x="788.2" y="499.2" fill="#EEEEEE" width="27.3" height="16.4"/>
	<polygon fill="#EEEEEE" points="360,499.2 354.5,499.2 330,499.2 330,515.5 357.3,515.5 357.3,510.1 379.1,510.1 379.1,515.5 
		406.4,515.5 406.4,510.1 411.8,510.1 411.8,504.6 422.7,504.6 422.7,499.2 	"/>
	<path fill="#EEEEEE" d="M741.8,499.2h24.5v10.9h5.5v5.5h-27.3v-10.9h-2.7C741.8,504.6,741.3,496.5,741.8,499.2z"/>
	<polygon fill="#EEEEEE" points="1050,499.2 1088.2,499.2 1088.2,504.6 1093.6,504.6 1093.6,510.1 1099.1,510.1 1099.1,515.5 
		1060.9,515.5 1060.9,510.1 1055.5,510.1 1055.5,504.6 1050,504.6 	"/>
</g>
<g id="White">
	<g>
		<rect x="924.5" y="226.5" fill="#FFFFFF" width="5.5" height="5.5"/>
		<rect x="919.1" y="221" fill="#FFFFFF" width="5.5" height="5.5"/>
		<rect x="908.2" y="215.5" fill="#FFFFFF" width="10.9" height="5.5"/>
		<rect x="897.3" y="226.5" fill="#FFFFFF" width="5.5" height="5.5"/>
		<polygon fill="#FFFFFF" points="913.6,253.7 919.1,253.7 919.1,242.8 913.6,242.8 913.6,237.4 908.2,237.4 908.2,248.3 
			913.6,248.3 		"/>
		<rect x="880.9" y="210.1" fill="#FFFFFF" width="27.3" height="5.5"/>
		<rect x="870" y="215.5" fill="#FFFFFF" width="10.9" height="5.5"/>
		<rect x="859.1" y="221" fill="#FFFFFF" width="10.9" height="5.5"/>
		<rect x="853.6" y="226.5" fill="#FFFFFF" width="5.5" height="10.9"/>
		<rect x="848.2" y="237.4" fill="#FFFFFF" width="5.5" height="16.4"/>
	</g>
	<polygon fill="#FFFFFF" points="690,302.8 690,297.4 722.7,297.4 722.7,291.9 755.5,291.9 755.5,297.4 760.9,297.4 760.9,302.8 	
		"/>
	<polygon fill="#FFFFFF" points="782.7,226.5 782.7,231.9 831.8,231.9 831.8,226.5 826.4,226.5 826.4,221 804.5,221 804.5,226.5 	
		"/>
	<path fill="#FFFFFF" d="M771.8,253.7h-32.7v5.5c0,0-21.5,0-21.8,0v5.5h54.5v-5.5l0,0V253.7z"/>
	<g>
		<polygon fill="#FFFFFF" points="117.3,499.2 117.3,488.3 111.8,488.3 111.8,455.5 106.4,455.5 106.4,428.3 100.9,428.3 
			100.9,395.5 95.5,395.5 95.5,362.8 68.2,362.8 68.2,395.5 73.6,395.5 73.6,422.8 79.1,422.8 79.1,455.5 84.5,455.5 84.5,488.3 
			90,488.3 90,499.2 		"/>
		<polygon fill="#FFFFFF" points="155.5,362.8 155.5,395.5 150,395.5 150,428.3 144.5,428.3 144.5,455.5 139.1,455.5 139.1,488.3 
			133.6,488.3 133.6,499.2 160.9,499.2 160.9,488.3 166.4,488.3 166.4,455.5 171.8,455.5 171.8,422.8 177.3,422.8 177.3,395.5 
			182.7,395.5 182.7,362.8 		"/>
	</g>
	<path fill="#FFFFFF" d="M433.6,395.5v-10.9h-5.5v-5.5h-5.5v-5.5h-5.5v-5.5h-10.9v-5.5H330v136.4h98.2v-5.5h5.5v-10.9h5.5v-87.3
		H433.6z M411.8,477.4h-5.5v5.5h-10.9v5.5h-38.2v-98.2h38.2v5.5h10.9v5.5h5.5V477.4z"/>
	<rect x="455.5" y="362.8" fill="#FFFFFF" width="27.3" height="136.4"/>
	<rect x="788.2" y="362.8" fill="#FFFFFF" width="27.3" height="136.4"/>
	<polygon fill="#FFFFFF" points="722.7,362.8 722.7,379.2 728.2,379.2 728.2,395.5 733.6,395.5 733.6,411.9 739.1,411.9 
		739.1,428.3 744.5,428.3 744.5,444.6 750,444.6 750,461 755.5,461 755.5,477.4 760.9,477.4 760.9,493.7 766.4,493.7 766.4,499.2 
		739.1,499.2 739.1,488.3 733.6,488.3 733.6,471.9 728.2,471.9 728.2,455.5 722.7,455.5 722.7,499.2 695.5,499.2 695.5,362.8 	"/>
	<polygon fill="#FFFFFF" points="1082.7,499.2 1082.7,493.7 1077.3,493.7 1077.3,488.3 1071.8,488.3 1071.8,482.8 1066.4,482.8 
		1066.4,477.4 1060.9,477.4 1060.9,471.9 1055.5,471.9 1055.5,461 1050,461 1050,450.1 1044.5,450.1 1044.5,439.2 1039.1,439.2 
		1039.1,406.5 1044.5,406.5 1044.5,401 1050,401 1050,395.5 1060.9,395.5 1060.9,390.1 1077.3,390.1 1077.3,395.5 1088.2,395.5 
		1088.2,401 1093.6,401 1093.6,406.5 1099.1,406.5 1099.1,417.4 1104.5,417.4 1104.5,461 1131.8,461 1131.8,417.4 1126.4,417.4 
		1126.4,401 1120.9,401 1120.9,390.1 1115.5,390.1 1115.5,384.6 1110,384.6 1110,379.2 1104.5,379.2 1104.5,373.7 1093.6,373.7 
		1093.6,368.3 1082.7,368.3 1082.7,362.8 1055.5,362.8 1055.5,368.3 1044.5,368.3 1044.5,373.7 1033.6,373.7 1033.6,379.2 
		1028.2,379.2 1028.2,384.6 1022.7,384.6 1022.7,390.1 1017.3,390.1 1017.3,401 1011.8,401 1011.8,444.6 1017.3,444.6 1017.3,455.5 
		1022.7,455.5 1022.7,466.5 1028.2,466.5 1028.2,477.4 1033.6,477.4 1033.6,488.3 1039.1,488.3 1039.1,493.7 1044.5,493.7 
		1044.5,499.2 1050,499.2 	"/>
	<rect x="962.7" y="362.8" fill="#FFFFFF" width="27.3" height="136.4"/>
	<polygon fill="#FFFFFF" points="215.5,499.2 215.5,417.4 220.9,417.4 220.9,406.5 226.4,406.5 226.4,401 231.8,401 231.8,395.5 
		234.5,395.5 242.7,395.5 242.7,390.1 259.1,390.1 259.1,395.5 261.8,395.5 270,395.5 270,401 275.5,401 275.5,406.5 280.9,406.5 
		280.9,417.4 286.4,417.4 286.4,499.2 313.6,499.2 313.6,411.9 308.2,411.9 308.2,401 302.7,401 302.7,390.1 297.3,390.1 
		297.3,384.6 291.8,384.6 291.8,379.2 286.4,379.2 286.4,373.7 275.5,373.7 275.5,368.3 264.5,368.3 264.5,362.8 237.3,362.8 
		237.3,368.3 226.4,368.3 226.4,373.7 215.5,373.7 215.5,379.2 210,379.2 210,384.6 204.5,384.6 204.5,390.1 199.1,390.1 199.1,401 
		193.6,401 193.6,411.9 188.2,411.9 188.2,499.2 	"/>
	<polygon fill="#FFFFFF" points="580.9,499.2 580.9,417.4 586.4,417.4 586.4,406.5 591.8,406.5 591.8,401 597.3,401 597.3,395.5 
		600,395.5 608.2,395.5 608.2,390.1 624.5,390.1 624.5,395.5 627.3,395.5 635.5,395.5 635.5,401 640.9,401 640.9,406.5 646.4,406.5 
		646.4,417.4 651.8,417.4 651.8,499.2 679.1,499.2 679.1,411.9 673.6,411.9 673.6,401 668.2,401 668.2,390.1 662.7,390.1 
		662.7,384.6 657.3,384.6 657.3,379.2 651.8,379.2 651.8,373.7 640.9,373.7 640.9,368.3 630,368.3 630,362.8 602.7,362.8 
		602.7,368.3 591.8,368.3 591.8,373.7 580.9,373.7 580.9,379.2 575.5,379.2 575.5,384.6 570,384.6 570,390.1 564.5,390.1 564.5,401 
		559.1,401 559.1,411.9 553.6,411.9 553.6,499.2 	"/>
	<g>
		<rect x="930" y="231.9" fill="#FFFFFF" width="5.5" height="10.9"/>
		<path fill="#FFFFFF" d="M984.5,253.7v-5.5h-27.3v-5.5h-21.8v10.9H930v5.5h-10.9v5.5h-21.8v5.5h-32.7v-5.5h-10.9v-5.5h-5.5v-5.5
			h-21.8v5.5H810v5.5h-10.9v5.5h-10.9V281h5.5v5.5h10.9v5.5h32.7v5.5h70.9v-5.5h32.7v-5.5h16.4V281h21.8v-5.5H990v-5.5h5.5v-5.5h5.5
			v-10.9H984.5z M820.9,275.5h-5.5v-5.5h5.5V275.5z M842.7,286.5h-10.9v-10.9h10.9V286.5z M870,291.9h-10.9V281H870V291.9z
			 M902.7,291.9h-16.4V281h16.4V291.9z M930,286.5h-10.9v-10.9H930V286.5z M957.3,275.5h-10.9v-10.9h10.9V275.5z M973.6,264.6h-5.5
			v-5.5h5.5V264.6z"/>
		<rect x="924.5" y="226.5" fill="#FFFFFF" width="5.5" height="5.5"/>
		<rect x="919.1" y="221" fill="#FFFFFF" width="5.5" height="5.5"/>
		<rect x="908.2" y="215.5" fill="#FFFFFF" width="10.9" height="5.5"/>
		<rect x="897.3" y="226.5" fill="#FFFFFF" width="5.5" height="5.5"/>
		<polygon fill="#FFFFFF" points="913.6,253.7 919.1,253.7 919.1,242.8 913.6,242.8 913.6,237.4 908.2,237.4 908.2,248.3 
			913.6,248.3 		"/>
		<rect x="880.9" y="210.1" fill="#FFFFFF" width="27.3" height="5.5"/>
		<rect x="870" y="215.5" fill="#FFFFFF" width="10.9" height="5.5"/>
		<rect x="859.1" y="221" fill="#FFFFFF" width="10.9" height="5.5"/>
		<rect x="853.6" y="226.5" fill="#FFFFFF" width="5.5" height="10.9"/>
		<rect x="848.2" y="237.4" fill="#FFFFFF" width="5.5" height="16.4"/>
	</g>
</g>
</svg>
