<?xml version="1.0" encoding="utf-8"?>
<!-- Generator: Adobe Illustrator 18.1.1, SVG Export Plug-In . SVG Version: 6.00 Build 0)  -->
<svg version="1.1" id="Layer_1" xmlns="http://www.w3.org/2000/svg" xmlns:xlink="http://www.w3.org/1999/xlink" x="0px" y="0px"
	 viewBox="0 0 82 16" enable-background="new 0 0 82 16" xml:space="preserve">
<g>
	<rect fill="#FFFFFF" width="2" height="6"/>
	<rect x="2" y="6" fill="#FFFFFF" width="2" height="6"/>
	<rect x="6" y="6" fill="#FFFFFF" width="2" height="6"/>
	<rect x="8" fill="#FFFFFF" width="2" height="6"/>
	<rect x="4" y="12" fill="#FFFFFF" width="2" height="4"/>
	<rect x="12" y="2" fill="#FFFFFF" width="2" height="12"/>
	<rect x="18" y="2" fill="#FFFFFF" width="2" height="12"/>
	<rect x="14" y="14" fill="#FFFFFF" width="4" height="2"/>
	<rect x="14" fill="#FFFFFF" width="4" height="2"/>
	<rect x="28" y="12" fill="#FFFFFF" width="2" height="4"/>
	<polygon fill="#FFFFFF" points="28,7.4 26,7.4 24,7.4 24,2 28,2 28,0 24,0 22,0 22,16 24,16 24,9.4 26,9.4 26,11.4 28,11.4 28,9.4 
		28,8 30,8 30,2 28,2 	"/>
	<polygon fill="#FFFFFF" points="34,0 32,0 32,16 34,16 38,16 38,14 34,14 	"/>
	<rect x="40" y="2" fill="#FFFFFF" width="2" height="12"/>
	<rect x="46" y="2" fill="#FFFFFF" width="2" height="12"/>
	<rect x="42" y="14" fill="#FFFFFF" width="4" height="2"/>
	<rect x="42" fill="#FFFFFF" width="4" height="2"/>
	<polygon fill="#FFFFFF" points="56,8 54,8 54,12 56,12 56,16 58,16 58,0 56,0 	"/>
	<polygon fill="#FFFFFF" points="52,4 52,0 50,0 50,16 52,16 52,8 54,8 54,4 	"/>
	<rect x="64" y="10" fill="#FFFFFF" width="2" height="4"/>
	<rect x="70" fill="#FFFFFF" width="2" height="14"/>
	<rect x="66" y="14" fill="#FFFFFF" width="4" height="2"/>
	<rect x="60" y="13.4" fill="#FFFFFF" width="2" height="2"/>
	<rect x="74" y="10" fill="#FFFFFF" width="2" height="4"/>
	<rect x="80" y="10" fill="#FFFFFF" width="2" height="4"/>
	<rect x="76" y="14" fill="#FFFFFF" width="4" height="2"/>
	<polygon fill="#FFFFFF" points="74,6 76,6 76,7.4 78,7.4 78,5.4 76,5.4 76,2 74,2 	"/>
	<rect x="80" y="2" fill="#FFFFFF" width="2" height="4"/>
	<rect x="76" fill="#FFFFFF" width="4" height="2"/>
	<rect x="78" y="7.4" fill="#FFFFFF" width="2" height="2"/>
</g>
</svg>
