<?xml version="1.0" encoding="utf-8"?>
<!-- Generator: Adobe Illustrator 18.1.1, SVG Export Plug-In . SVG Version: 6.00 Build 0)  -->
<svg version="1.1" id="Layer_1" xmlns="http://www.w3.org/2000/svg" xmlns:xlink="http://www.w3.org/1999/xlink" x="0px" y="0px"
	 viewBox="0 0 410.4 171.2" enable-background="new 0 0 410.4 171.2" xml:space="preserve">
<g>
	<g>
		<rect x="261.9" y="13" fill="#5B3B5E" width="9.9" height="2"/>
		<rect x="271.9" y="11" fill="#5B3B5E" width="8" height="2"/>
		<rect x="287.8" y="11" fill="#5B3B5E" width="2" height="2"/>
		<polygon fill="#5B3B5E" points="291.8,13 289.8,13 289.8,14.9 271.9,14.9 271.9,16.9 291.8,16.9 291.8,14.9 		"/>
		<rect x="248" y="22.9" fill="#5B3B5E" width="8" height="2"/>
		<rect x="240" y="24.9" fill="#5B3B5E" width="8" height="2"/>
		<rect x="248" y="26.9" fill="#5B3B5E" width="19.9" height="2"/>
		<rect x="250" y="34.8" fill="#5B3B5E" width="11.9" height="2"/>
		<rect x="261.9" y="36.8" fill="#5B3B5E" width="2" height="2"/>
		<rect x="263.9" y="38.8" fill="#5B3B5E" width="2" height="2"/>
		<polygon fill="#5B3B5E" points="238,40.8 238,42.8 257.9,42.8 263.9,42.8 263.9,40.8 257.9,40.8 		"/>
		<rect x="238" y="36.8" fill="#5B3B5E" width="11.9" height="2"/>
		<polygon fill="#5B3B5E" points="238,38.8 228.1,38.8 228.1,39.8 228.1,40.8 238,40.8 		"/>
		<rect x="279.8" y="9" fill="#5B3B5E" width="8" height="2"/>
		<polygon fill="#5B3B5E" points="265.9,24.9 267.9,24.9 267.9,26.9 269.9,26.9 269.9,22.9 267.9,22.9 267.9,20.9 255.9,20.9 
			255.9,22.9 265.9,22.9 		"/>
		<path fill="#5B3B5E" d="M271.9,34.8v2h2v2h4v2h4v2h2c0,2.1,0,1,0,2h4v2h4v2h35.8v-2h6v-2h4v-2h4v-2h2v-2h2v-4h2h2v-2h2v-2h2v-2h2
			v-6v-2h-2v-2h-6v-2h-9.9v-2h-8v-2v-2h-2V9h-2l0-2l-4,0v2h2v2h2v2h2v4h8v2h9.9v2h6v2h2v4h-2v2h-2v2h-2v2h-4v4h-2v2h-2v2h-4v2h-4v2
			h-6v2h-31.8v-2h-4v-2h-2v-2h-2v-2h-6v-2h-4v-2h-2v-2h-2v-4h2v-2h4v-2h4v-2h6v-2h6v-2h2v-4h2v-4h2V9h4V7h4V5h9.9v2h4h2V5h-4V3
			h-13.9v2h-4v2h-2h-2v2h-2v4h-2v4h-2v2h-6v2h-6v2h-4v2h-4v2h-2v8H271.9z"/>
		<path fill="#5B3B5E" d="M401.2,131.4L401.2,131.4C401.4,131.4,401.5,131.4,401.2,131.4z"/>
		<path fill="#5B3B5E" d="M202.2,148.3h2v2h4v2h6v-2h4v-2h2v-4h2V98.5v-2V82.6h-2v-4h-2v-2h-4v-2h-6v2h-4v2h-2v4h-2v45.8v8v8h2
			V148.3z M202.2,84.6h2v-4h2v-2h4v-2h2v2h4v2h2v4h2v57.7h-2v4h-2v2h-4v2h-2v-2h-4v-2h-2v-4h-2V84.6z"/>
		<path fill="#5B3B5E" d="M401.2,102.5v-2h2V80.6h-2v-6h-2v-4h-2v-2h-2v-2h-2v-2h-2v-2h-4v-2h-4v-2h-13.9v2h-4v2h-4v2h-2v2h-2v2h-2
			v2h-2v4h-2V60.7h-2v-2h-13.9v2h-2v81.6h-2v4h-2v2h-4v2h-2v-2h-4v-2h-2v-4h-2v-15.9h-2v-2h-13.9v2h-2v21.9h-9.9V60.7h-2v-2h-13.9v2
			h-2v47.8h-2v-6h-2v-6h-2v-6h-2v-6h-2v-6h-2v-6h-2v-6h-2v-6h-2v-2H238v2h-2v11.9h-2v-2h-2v-2h-2v-2h-2v-2h-2v-2h-4v-2h-4v-2h-13.9
			v2h-4v2h-4v2h-2v2h-2v2h-2v2h-2v4h-2v4h-2v67.7h2v-9.9v-8V80.6h2v-4h2v-4h2v-2h2v-2h2v-2h2v-2h4v-2h4v-2h9.9v2h4v2h4v2h2v2h2v2h2
			v2h2v4h2v4h2v15.9v2v47.8h-2v4h-2v4h-2v2h-2v2h-2v2h-2v2h-4v2h-4v2h-9.9v-2h-4v-2h-4v-2h-2v-2h-2v-2h-2v-2h-2v-4h-2v-4h-2v2h-19.9
			V60.7h-2v-2h-13.9v2h-2v8h-2v-2h-2v-2h-2v-2h-2v-2h-4v-2h-31.8v2h-2v11.9h-2v-2h-2v-2h-2v-2h-2v-2h-2v-2h-4v-2h-4v-2H70.9v2h-4v2
			h-4v2h-2v2h-2v2h-2v-2v-6h-2v-2H41v2h-2v11.9h-2v11.9h-2v9.9h-2v11.9h-2V94.5h-2v-9.9h-2V72.7h-2V60.7h-2v-2H9.2v2h-2v15.9h2v9.9
			h2v11.9h2v11.9h2v11.9h2v11.9h2v9.9h2v9.9h2v11.9h2v2H39v-2h2v-11.9h2v-9.9h2v-9.9h2v-11.9h2v-11.9h2v35.8h2v-9.9v-8V84.6h-2v11.9
			h-2v11.9h-2v11.9h-2v11.9h-2v9.9h-2v9.9h-2v11.9h-2v2h-9.9v-2h-2v-11.9h-2v-9.9h-2v-9.9h-2v-11.9h-2v-11.9h-2V96.5h-2V84.6h-2
			v-9.9h-2V62.7h2v-2h9.9v2h2v11.9h2v11.9h2v9.9h2v11.9h2v11.9h2v-11.9h2V96.5h2v-9.9h2V74.6h2V62.7h2v-2H53v2h2v11.9h-2v6h2v-4h2
			v-4h2v-2h2v-2h2v-2h2v-2h4v-2h4v-2h9.9v2h4v2h4v2h2v2h2v2h2v2h2v4h2v4h2v15.9v2v47.8h-2v4h-2v4h-2v2h-2v2h-2v2h-2v2h-4v2h-4v2
			h-9.9v-2h-4v-2h-4v-2h-2v-2h-2v-2h-2v-2h-2v-4h-2v-4h-2v6h2v4h2v2h2v2h2v2h2v2h4v2h4v2h13.9v-2h4v-2h4v-2h2v-2h2v-2h2v-2h2v-4h2
			v11.9h2v2h13.9v-2h2v-37.8h2v6h2v6h2v8h2v6h2v6h2v6h2v2h13.9v-2h2v2h37.8v-2h2v-6h2v2h2v2h2v2h4v2h4v2h13.9v-2h4v-2h4v-2h2v-2h2
			v-2h2v-2h2v-4h2v11.9h2v2H252v-2h2v-41.8h2v6h2v6h2v6h2v6h2v6h2v6h2v6h2v2h15.9v-2h2v2h11.9v-2h2v-8h2v2h2v2h2v2h2v2h4v2h4v2h13.9
			v-2h4v-2h4v-2h2v-2h2v-2h2v-2h2v-4h2v-2h2v2h2v4h2v2h2v2h2v2h2v2h4v2h4v2h13.9v-2h4v-2h4v-2h2v-2h2v-2h2v-2h2v-4h2v-20.8
			c-0.5,0-2-0.1-2-0.1v-3h-2v-4h-2v-4h-2v-4h-2v-2h-2v-2h-2v-2h-2v-2h-2v-2h-2v-2h-2v-2h-2v-2h-2v-4h-2v-4h-2v-4h-2v-8h2v-2h4v-2h2
			v2h4v2h2v4h2v15.9h2v2H401.2z M148.5,162.2h-2v2h-9.9v-2h-2v-6h-2v-6h-2v-6h-2v-8h-2v-6h-2v-6h-2v-6h-4v43.8h-2v2h-9.9v-2h-2V62.7
			h2v-2h27.9v2h4v2h2v2h2v2h2v2h2v4h2v31.8h-2v4h-2v2h-2v2h-2v2h-4v9.9h2v6h2v6h2v6h2v6h2v6h2V162.2z M146.5,147.3v-5h-2v-6h-2v-6
			h-2v-6h-2v-6h4v-2h2v-2h2v-2h2v34.8C149.5,147.5,146.5,147.3,146.5,147.3z M188.3,162.2h-2v2h-33.8v-2h-2V62.7h2v-2h9.9v2h2v87.6
			h21.9v2h2V162.2z M285.8,162.2h-2v2h-11.9v-2h-2v-6h-2v-6h-2v-6h-2v-6h-2v-6h-2v-6h-2v-6h-2v-6h-2v-6h-2v53.7h-2v2H240v-2h-2V62.7
			h2v-2h9.9v2h2v6h2v6h2v6h2v6h2v6h2v6h2v6h2v6h2v6h2v6h2V62.7h2v-2h9.9v2h2V162.2z M299.7,162.2h-2v2h-8v-2h-2v-9.9h2v-2h8v2h2
			V162.2z M349.5,146.3h-2v4h-2v4h-2v2h-2v2h-2v2h-2v2h-4v2h-4v2h-9.9v-2h-4v-2h-4v-2h-2v-2h-2v-2h-2v-2h-2v-4h-2v-4h-2v-17.9h2v-2
			h9.9v2h2v15.9h2v4h2v2h4v2h6v-2h4v-2h2v-4h2V62.7h2v-2h9.9v2h2V146.3z M351.5,94.5h2v4h2v4h2v4h2v4h2v2h2v2h2v2h2v2h2c1,0,0,2,0,2
			h2v2h2v2h2v2h2v4h2v4h2v4h2v8h-2v2h-4v2h-2v-2h-4v-2h-2v-4h-2v-15.9h-2v-2h-13.9V94.5z M385.3,82.6v-4h-2v-2h-4v-2h-6v2h-4v2h-2
			v11.9h2v4h2v4h2v4h2v2h2v2h2v2h2v2h2v2h2v2h2v2h2v2h2v4h2v4h2v4h2v4h2v15.9h-2v4h-2v2h-2v2h-2v2h-2v2h-4v2h-4v2h-9.9v-2h-4v-2h-4
			v-2h-2v-2h-2v-2h-2v-2h-2v-4h-2v-6h-2v-15.9h2v-2h9.9v2h2v15.9h2v4h2v2h4v2h6v-2h4v-2h2v-11.9h-2v-4h-2v-4h-2v-4h-2v-2h-2v-2h-2
			v-2h-2v-2h-2v-2h-2v-2h-2v-2h-2v-2h-2v-4h-2v-4h-2v-4h-2v-4h-2V76.6h2v-4h2v-2h2v-2h2v-2h2v-2h4v-2h4v-2h9.9v2h4v2h4v2h2v2h2v2h2
			v2h2v4h2v6h2v15.9h-2v2h-9.9v-2h-2V82.6H385.3z"/>
		<path fill="#5B3B5E" d="M130.6,74.6h-11.9v31.8h11.9v-2h4V76.6h-4V74.6z M132.6,78.6v23.9h-4v2h-8V76.6h8v2H132.6z"/>
		<path fill="#5B3B5E" d="M68.9,148.3h2v2h4v2h6v-2h4v-2h2v-4h2V98.5v-2V82.6h-2v-4h-2v-2h-4v-2h-6v2h-4v2h-2v4h-2v45.8v8v8h2V148.3
			z M68.9,84.6h2v-4h2v-2h4v-2h2v2h4v2h2v4h2v57.7h-2v4h-2v2h-4v2h-2v-2h-4v-2h-2v-4h-2V84.6z"/>
	</g>
	<g>
		<rect x="371.4" y="60.7" fill="#3C1942" width="9.9" height="2"/>
		<rect x="381.3" y="62.7" fill="#3C1942" width="4" height="2"/>
		<rect x="385.3" y="64.7" fill="#3C1942" width="4" height="2"/>
		<rect x="393.3" y="70.7" fill="#3C1942" width="2" height="2"/>
		<rect x="391.3" y="68.7" fill="#3C1942" width="2" height="2"/>
		<rect x="389.3" y="66.7" fill="#3C1942" width="2" height="2"/>
		<rect x="395.2" y="72.7" fill="#3C1942" width="2" height="4"/>
		<rect x="397.2" y="76.6" fill="#3C1942" width="2" height="6"/>
		<rect x="399.2" y="82.6" fill="#3C1942" width="2" height="15.9"/>
		<rect x="389.3" y="98.5" fill="#3C1942" width="9.9" height="2"/>
		<rect x="387.3" y="82.6" fill="#3C1942" width="2" height="15.9"/>
		<rect x="385.3" y="78.6" fill="#3C1942" width="2" height="4"/>
		<rect x="383.3" y="76.6" fill="#3C1942" width="2" height="2"/>
		<rect x="379.3" y="74.6" fill="#3C1942" width="4" height="2"/>
		<rect x="373.4" y="72.7" fill="#3C1942" width="6" height="2"/>
		<rect x="369.4" y="74.6" fill="#3C1942" width="4" height="2"/>
		<rect x="367.4" y="76.6" fill="#3C1942" width="2" height="2"/>
		<rect x="365.4" y="78.6" fill="#3C1942" width="2" height="11.9"/>
		<rect x="367.4" y="90.6" fill="#3C1942" width="2" height="4"/>
		<rect x="369.4" y="94.5" fill="#3C1942" width="2" height="4"/>
		<rect x="371.4" y="98.5" fill="#3C1942" width="2" height="4"/>
		<rect x="373.4" y="102.5" fill="#3C1942" width="2" height="2"/>
		<rect x="375.3" y="104.5" fill="#3C1942" width="2" height="2"/>
		<rect x="377.3" y="106.5" fill="#3C1942" width="2" height="2"/>
		<rect x="379.3" y="108.5" fill="#3C1942" width="2" height="2"/>
		<rect x="381.3" y="110.5" fill="#3C1942" width="2" height="2"/>
		<rect x="389.3" y="118.4" fill="#3C1942" width="2" height="4"/>
		<rect x="387.3" y="116.4" fill="#3C1942" width="2" height="2"/>
		<rect x="385.3" y="114.4" fill="#3C1942" width="2" height="2"/>
		<rect x="383.3" y="112.5" fill="#3C1942" width="2" height="2"/>
		<rect x="391.3" y="122.4" fill="#3C1942" width="2" height="4"/>
		<rect x="393.3" y="126.4" fill="#3C1942" width="2" height="4"/>
		<rect x="395.2" y="130.4" fill="#3C1942" width="2" height="4"/>
		<rect x="397.2" y="134.3" fill="#3C1942" width="2" height="15.9"/>
		<rect x="395.2" y="150.3" fill="#3C1942" width="2" height="4"/>
		<rect x="393.3" y="154.2" fill="#3C1942" width="2" height="2"/>
		<rect x="391.3" y="156.2" fill="#3C1942" width="2" height="2"/>
		<rect x="389.3" y="158.2" fill="#3C1942" width="2" height="2"/>
		<rect x="383.3" y="148.3" fill="#3C1942" width="2" height="2"/>
		<rect x="367.4" y="148.3" fill="#3C1942" width="2" height="2"/>
		<rect x="369.4" y="150.3" fill="#3C1942" width="4" height="2"/>
		<rect x="373.4" y="152.2" fill="#3C1942" width="6" height="2"/>
		<rect x="379.3" y="150.3" fill="#3C1942" width="4" height="2"/>
		<rect x="365.4" y="144.3" fill="#3C1942" width="2" height="4"/>
		<rect x="363.4" y="128.4" fill="#3C1942" width="2" height="15.9"/>
		<rect x="353.5" y="126.4" fill="#3C1942" width="9.9" height="2"/>
		<rect x="351.5" y="128.4" fill="#3C1942" width="2" height="15.9"/>
		<rect x="353.5" y="144.3" fill="#3C1942" width="2" height="6"/>
		<rect x="355.4" y="150.3" fill="#3C1942" width="2" height="4"/>
		<rect x="357.4" y="154.2" fill="#3C1942" width="2" height="2"/>
		<rect x="359.4" y="156.2" fill="#3C1942" width="2" height="2"/>
		<rect x="361.4" y="158.2" fill="#3C1942" width="2" height="2"/>
		<rect x="363.4" y="160.2" fill="#3C1942" width="4" height="2"/>
		<rect x="367.4" y="162.2" fill="#3C1942" width="4" height="2"/>
		<rect x="381.3" y="162.2" fill="#3C1942" width="4" height="2"/>
		<rect x="385.3" y="160.2" fill="#3C1942" width="4" height="2"/>
		<rect x="371.4" y="164.2" fill="#3C1942" width="9.9" height="2"/>
		<rect x="385.3" y="136.3" fill="#3C1942" width="2" height="11.9"/>
		<rect x="383.3" y="132.3" fill="#3C1942" width="2" height="4"/>
		<rect x="381.3" y="128.4" fill="#3C1942" width="2" height="4"/>
		<rect x="379.3" y="124.4" fill="#3C1942" width="2" height="4"/>
		<rect x="377.3" y="122.4" fill="#3C1942" width="2" height="2"/>
		<rect x="375.3" y="120.4" fill="#3C1942" width="2" height="2"/>
		<rect x="373.4" y="118.4" fill="#3C1942" width="2" height="2"/>
		<rect x="371.4" y="116.4" fill="#3C1942" width="2" height="2"/>
		<rect x="369.4" y="114.4" fill="#3C1942" width="2" height="2"/>
		<rect x="367.4" y="112.5" fill="#3C1942" width="2" height="2"/>
		<rect x="365.4" y="110.5" fill="#3C1942" width="2" height="2"/>
		<rect x="363.4" y="108.5" fill="#3C1942" width="2" height="2"/>
		<rect x="361.4" y="104.5" fill="#3C1942" width="2" height="4"/>
		<rect x="359.4" y="100.5" fill="#3C1942" width="2" height="4"/>
		<rect x="357.4" y="96.5" fill="#3C1942" width="2" height="4"/>
		<rect x="355.4" y="92.6" fill="#3C1942" width="2" height="4"/>
		<rect x="353.5" y="76.6" fill="#3C1942" width="2" height="15.9"/>
		<rect x="355.4" y="72.7" fill="#3C1942" width="2" height="4"/>
		<rect x="357.4" y="70.7" fill="#3C1942" width="2" height="2"/>
		<rect x="359.4" y="68.7" fill="#3C1942" width="2" height="2"/>
		<rect x="361.4" y="66.7" fill="#3C1942" width="2" height="2"/>
		<rect x="363.4" y="64.7" fill="#3C1942" width="4" height="2"/>
		<rect x="367.4" y="62.7" fill="#3C1942" width="4" height="2"/>
		<rect x="297.7" y="152.2" fill="#3C1942" width="2" height="9.9"/>
		<rect x="289.8" y="162.2" fill="#3C1942" width="8" height="2"/>
		<rect x="289.8" y="150.3" fill="#3C1942" width="8" height="2"/>
		<rect x="287.8" y="152.2" fill="#3C1942" width="2" height="9.9"/>
		<rect x="9.2" y="62.7" fill="#3C1942" width="2" height="11.9"/>
		<rect x="21.1" y="62.7" fill="#3C1942" width="2" height="11.9"/>
		<rect x="41" y="62.7" fill="#3C1942" width="2" height="11.9"/>
		<rect x="53" y="62.7" fill="#3C1942" width="2" height="11.9"/>
		<rect x="39" y="74.6" fill="#3C1942" width="2" height="11.9"/>
		<rect x="23.1" y="74.6" fill="#3C1942" width="2" height="11.9"/>
		<rect x="11.2" y="74.6" fill="#3C1942" width="2" height="9.9"/>
		<rect x="37" y="86.6" fill="#3C1942" width="2" height="9.9"/>
		<rect x="25.1" y="86.6" fill="#3C1942" width="2" height="9.9"/>
		<rect x="49" y="84.6" fill="#3C1942" width="2" height="11.9"/>
		<rect x="13.2" y="84.6" fill="#3C1942" width="2" height="11.9"/>
		<rect x="35.1" y="96.5" fill="#3C1942" width="2" height="11.9"/>
		<rect x="47" y="96.5" fill="#3C1942" width="2" height="11.9"/>
		<rect x="15.2" y="96.5" fill="#3C1942" width="2" height="11.9"/>
		<rect x="27.1" y="96.5" fill="#3C1942" width="2" height="11.9"/>
		<rect x="33.1" y="108.5" fill="#3C1942" width="2" height="11.9"/>
		<rect x="29.1" y="108.5" fill="#3C1942" width="2" height="11.9"/>
		<rect x="45" y="108.5" fill="#3C1942" width="2" height="11.9"/>
		<rect x="17.1" y="108.5" fill="#3C1942" width="2" height="11.9"/>
		<rect x="31.1" y="120.4" fill="#3C1942" width="2" height="9.9"/>
		<rect x="43" y="120.4" fill="#3C1942" width="2" height="11.9"/>
		<rect x="19.1" y="120.4" fill="#3C1942" width="2" height="11.9"/>
		<rect x="37" y="152.2" fill="#3C1942" width="2" height="11.9"/>
		<rect x="25.1" y="152.2" fill="#3C1942" width="2" height="11.9"/>
		<rect x="39" y="142.3" fill="#3C1942" width="2" height="9.9"/>
		<rect x="23.1" y="142.3" fill="#3C1942" width="2" height="9.9"/>
		<rect x="41" y="132.3" fill="#3C1942" width="2" height="9.9"/>
		<rect x="21.1" y="132.3" fill="#3C1942" width="2" height="9.9"/>
		<rect x="27.1" y="164.2" fill="#3C1942" width="9.9" height="2"/>
		<rect x="11.2" y="60.7" fill="#3C1942" width="9.9" height="2"/>
		<rect x="43" y="60.7" fill="#3C1942" width="9.9" height="2"/>
		<rect x="186.3" y="152.2" fill="#3C1942" width="2" height="9.9"/>
		<rect x="152.5" y="162.2" fill="#3C1942" width="33.8" height="2"/>
		<rect x="152.5" y="60.7" fill="#3C1942" width="9.9" height="2"/>
		<polygon fill="#3C1942" points="162.4,152.2 164.4,152.2 186.3,152.2 186.3,150.3 164.4,150.3 164.4,62.7 162.4,62.7 162.4,150.3 
					"/>
		<rect x="150.5" y="62.7" fill="#3C1942" width="2" height="99.5"/>
		<rect x="106.7" y="162.2" fill="#3C1942" width="9.9" height="2"/>
		<polygon fill="#3C1942" points="124.6,116.4 122.6,116.4 118.6,116.4 116.6,116.4 116.6,118.4 116.6,162.2 118.6,162.2 
			118.6,118.4 122.6,118.4 122.6,124.4 124.6,124.4 124.6,118.4 		"/>
		<rect x="130.6" y="104.5" fill="#3C1942" width="4" height="2"/>
		<rect x="134.6" y="76.6" fill="#3C1942" width="2" height="27.9"/>
		<rect x="130.6" y="74.6" fill="#3C1942" width="4" height="2"/>
		<rect x="104.7" y="62.7" fill="#3C1942" width="2" height="99.5"/>
		<rect x="106.7" y="60.7" fill="#3C1942" width="27.9" height="2"/>
		<rect x="134.6" y="62.7" fill="#3C1942" width="4" height="2"/>
		<rect x="138.5" y="64.7" fill="#3C1942" width="2" height="2"/>
		<rect x="140.5" y="66.7" fill="#3C1942" width="2" height="2"/>
		<rect x="142.5" y="68.7" fill="#3C1942" width="2" height="2"/>
		<rect x="144.5" y="70.7" fill="#3C1942" width="2" height="4"/>
		<rect x="146.5" y="74.6" fill="#3C1942" width="2" height="31.8"/>
		<rect x="144.5" y="106.5" fill="#3C1942" width="2" height="4"/>
		<rect x="142.5" y="110.5" fill="#3C1942" width="2" height="2"/>
		<rect x="140.5" y="112.5" fill="#3C1942" width="2" height="2"/>
		<rect x="136.5" y="114.4" fill="#3C1942" width="4" height="2"/>
		<rect x="134.6" y="116.4" fill="#3C1942" width="2" height="9.9"/>
		<rect x="136.5" y="126.4" fill="#3C1942" width="2" height="6"/>
		<rect x="138.5" y="132.3" fill="#3C1942" width="2" height="6"/>
		<rect x="140.5" y="138.3" fill="#3C1942" width="2" height="6"/>
		<rect x="142.5" y="144.3" fill="#3C1942" width="2" height="6"/>
		<rect x="136.5" y="162.2" fill="#3C1942" width="9.9" height="2"/>
		<rect x="146.5" y="156.2" fill="#3C1942" width="2" height="6"/>
		<rect x="144.5" y="150.3" fill="#3C1942" width="2" height="6"/>
		<rect x="134.6" y="156.2" fill="#3C1942" width="2" height="6"/>
		<rect x="132.6" y="150.3" fill="#3C1942" width="2" height="6"/>
		<rect x="130.6" y="144.3" fill="#3C1942" width="2" height="6"/>
		<rect x="128.6" y="136.3" fill="#3C1942" width="2" height="8"/>
		<rect x="126.6" y="130.4" fill="#3C1942" width="2" height="6"/>
		<rect x="124.6" y="124.4" fill="#3C1942" width="2" height="6"/>
		<rect x="273.9" y="60.7" fill="#3C1942" width="9.9" height="2"/>
		<rect x="265.9" y="110.5" fill="#3C1942" width="2" height="6"/>
		<rect x="255.9" y="114.4" fill="#3C1942" width="2" height="6"/>
		<rect x="254" y="108.5" fill="#3C1942" width="2" height="6"/>
		<rect x="240" y="60.7" fill="#3C1942" width="9.9" height="2"/>
		<rect x="238" y="62.7" fill="#3C1942" width="2" height="99.5"/>
		<polygon fill="#3C1942" points="252,102.5 252,96.5 250,96.5 250,162.2 252,162.2 252,108.5 254,108.5 254,102.5 		"/>
		<polygon fill="#3C1942" points="271.9,128.4 271.9,134.3 273.9,134.3 273.9,128.4 273.9,122.4 273.9,62.7 271.9,62.7 271.9,122.4 
			269.9,122.4 269.9,128.4 		"/>
		<rect x="267.9" y="116.4" fill="#3C1942" width="2" height="6"/>
		<rect x="271.9" y="162.2" fill="#3C1942" width="11.9" height="2"/>
		<rect x="283.8" y="62.7" fill="#3C1942" width="2" height="99.5"/>
		<rect x="269.9" y="156.2" fill="#3C1942" width="2" height="6"/>
		<rect x="267.9" y="150.3" fill="#3C1942" width="2" height="6"/>
		<rect x="263.9" y="104.5" fill="#3C1942" width="2" height="6"/>
		<rect x="261.9" y="98.5" fill="#3C1942" width="2" height="6"/>
		<rect x="259.9" y="92.6" fill="#3C1942" width="2" height="6"/>
		<rect x="257.9" y="86.6" fill="#3C1942" width="2" height="6"/>
		<rect x="255.9" y="80.6" fill="#3C1942" width="2" height="6"/>
		<rect x="254" y="74.6" fill="#3C1942" width="2" height="6"/>
		<rect x="252" y="68.7" fill="#3C1942" width="2" height="6"/>
		<rect x="250" y="62.7" fill="#3C1942" width="2" height="6"/>
		<rect x="240" y="162.2" fill="#3C1942" width="9.9" height="2"/>
		<rect x="265.9" y="144.3" fill="#3C1942" width="2" height="6"/>
		<rect x="263.9" y="138.3" fill="#3C1942" width="2" height="6"/>
		<rect x="261.9" y="132.3" fill="#3C1942" width="2" height="6"/>
		<rect x="259.9" y="126.4" fill="#3C1942" width="2" height="6"/>
		<rect x="257.9" y="120.4" fill="#3C1942" width="2" height="6"/>
		<polygon fill="#3C1942" points="118.6,74.6 130.6,74.6 130.6,72.7 118.6,72.7 116.6,72.7 116.6,74.6 116.6,106.5 116.6,108.5 
			130.6,108.5 130.6,106.5 118.6,106.5 		"/>
		<rect x="317.6" y="150.3" fill="#3C1942" width="4" height="2"/>
		<rect x="315.6" y="148.3" fill="#3C1942" width="2" height="2"/>
		<rect x="313.7" y="144.3" fill="#3C1942" width="2" height="4"/>
		<rect x="333.6" y="144.3" fill="#3C1942" width="2" height="4"/>
		<rect x="345.5" y="146.3" fill="#3C1942" width="2" height="4"/>
		<rect x="301.7" y="146.3" fill="#3C1942" width="2" height="4"/>
		<rect x="303.7" y="150.3" fill="#3C1942" width="2" height="4"/>
		<rect x="305.7" y="154.2" fill="#3C1942" width="2" height="2"/>
		<rect x="307.7" y="156.2" fill="#3C1942" width="2" height="2"/>
		<rect x="309.7" y="158.2" fill="#3C1942" width="2" height="2"/>
		<rect x="311.7" y="160.2" fill="#3C1942" width="4" height="2"/>
		<rect x="315.6" y="162.2" fill="#3C1942" width="4" height="2"/>
		<rect x="319.6" y="164.2" fill="#3C1942" width="9.9" height="2"/>
		<rect x="335.5" y="62.7" fill="#3C1942" width="2" height="81.6"/>
		<rect x="301.7" y="126.4" fill="#3C1942" width="9.9" height="2"/>
		<rect x="299.7" y="128.4" fill="#3C1942" width="2" height="17.9"/>
		<rect x="311.7" y="128.4" fill="#3C1942" width="2" height="15.9"/>
		<rect x="321.6" y="152.2" fill="#3C1942" width="6" height="2"/>
		<rect x="327.6" y="150.3" fill="#3C1942" width="4" height="2"/>
		<rect x="331.6" y="148.3" fill="#3C1942" width="2" height="2"/>
		<rect x="347.5" y="62.7" fill="#3C1942" width="2" height="83.6"/>
		<rect x="329.6" y="162.2" fill="#3C1942" width="4" height="2"/>
		<rect x="333.6" y="160.2" fill="#3C1942" width="4" height="2"/>
		<rect x="337.5" y="158.2" fill="#3C1942" width="2" height="2"/>
		<rect x="339.5" y="156.2" fill="#3C1942" width="2" height="2"/>
		<rect x="341.5" y="154.2" fill="#3C1942" width="2" height="2"/>
		<rect x="343.5" y="150.3" fill="#3C1942" width="2" height="4"/>
		<rect x="337.5" y="60.7" fill="#3C1942" width="9.9" height="2"/>
		<rect x="70.9" y="150.3" fill="#3C1942" width="4" height="2"/>
		<rect x="68.9" y="148.3" fill="#3C1942" width="2" height="2"/>
		<rect x="66.9" y="144.3" fill="#3C1942" width="2" height="4"/>
		<rect x="86.8" y="144.3" fill="#3C1942" width="2" height="4"/>
		<rect x="98.7" y="146.3" fill="#3C1942" width="2" height="4"/>
		<rect x="55" y="146.3" fill="#3C1942" width="2" height="4"/>
		<rect x="56.9" y="150.3" fill="#3C1942" width="2" height="4"/>
		<rect x="58.9" y="154.2" fill="#3C1942" width="2" height="2"/>
		<rect x="60.9" y="156.2" fill="#3C1942" width="2" height="2"/>
		<rect x="62.9" y="158.2" fill="#3C1942" width="2" height="2"/>
		<rect x="64.9" y="160.2" fill="#3C1942" width="4" height="2"/>
		<rect x="68.9" y="162.2" fill="#3C1942" width="4" height="2"/>
		<rect x="72.9" y="164.2" fill="#3C1942" width="9.9" height="2"/>
		<rect x="74.9" y="152.2" fill="#3C1942" width="6" height="2"/>
		<rect x="80.8" y="150.3" fill="#3C1942" width="4" height="2"/>
		<rect x="84.8" y="148.3" fill="#3C1942" width="2" height="2"/>
		<rect x="82.8" y="162.2" fill="#3C1942" width="4" height="2"/>
		<rect x="86.8" y="160.2" fill="#3C1942" width="4" height="2"/>
		<rect x="90.8" y="158.2" fill="#3C1942" width="2" height="2"/>
		<rect x="92.8" y="156.2" fill="#3C1942" width="2" height="2"/>
		<rect x="94.8" y="154.2" fill="#3C1942" width="2" height="2"/>
		<rect x="96.7" y="150.3" fill="#3C1942" width="2" height="4"/>
		<rect x="80.8" y="74.6" fill="#3C1942" width="4" height="2"/>
		<rect x="84.8" y="76.6" fill="#3C1942" width="2" height="2"/>
		<rect x="86.8" y="78.6" fill="#3C1942" width="2" height="4"/>
		<rect x="66.9" y="78.6" fill="#3C1942" width="2" height="4"/>
		<rect x="55" y="76.6" fill="#3C1942" width="2" height="4"/>
		<rect x="98.7" y="76.6" fill="#3C1942" width="2" height="4"/>
		<rect x="96.7" y="72.7" fill="#3C1942" width="2" height="4"/>
		<rect x="94.8" y="70.7" fill="#3C1942" width="2" height="2"/>
		<rect x="92.8" y="68.7" fill="#3C1942" width="2" height="2"/>
		<rect x="90.8" y="66.7" fill="#3C1942" width="2" height="2"/>
		<rect x="86.8" y="64.7" fill="#3C1942" width="4" height="2"/>
		<rect x="82.8" y="62.7" fill="#3C1942" width="4" height="2"/>
		<rect x="72.9" y="60.7" fill="#3C1942" width="9.9" height="2"/>
		<polygon fill="#3C1942" points="66.9,128.4 66.9,82.6 64.9,82.6 64.9,128.4 64.9,136.3 64.9,144.3 66.9,144.3 66.9,136.3 		"/>
		<polygon fill="#3C1942" points="100.7,96.5 100.7,98.5 100.7,146.3 102.7,146.3 102.7,98.5 102.7,96.5 102.7,80.6 100.7,80.6 		
			"/>
		<polygon fill="#3C1942" points="88.8,96.5 88.8,98.5 88.8,144.3 90.8,144.3 90.8,98.5 90.8,96.5 90.8,82.6 88.8,82.6 		"/>
		<rect x="74.9" y="72.7" fill="#3C1942" width="6" height="2"/>
		<rect x="70.9" y="74.6" fill="#3C1942" width="4" height="2"/>
		<rect x="68.9" y="76.6" fill="#3C1942" width="2" height="2"/>
		<polygon fill="#3C1942" points="55,128.4 55,80.6 53,80.6 53,74.6 51,74.6 51,84.6 53,84.6 53,128.4 53,136.3 53,146.3 55,146.3 
			55,136.3 		"/>
		<rect x="68.9" y="62.7" fill="#3C1942" width="4" height="2"/>
		<rect x="64.9" y="64.7" fill="#3C1942" width="4" height="2"/>
		<rect x="62.9" y="66.7" fill="#3C1942" width="2" height="2"/>
		<rect x="60.9" y="68.7" fill="#3C1942" width="2" height="2"/>
		<rect x="58.9" y="70.7" fill="#3C1942" width="2" height="2"/>
		<rect x="56.9" y="72.7" fill="#3C1942" width="2" height="4"/>
		<rect x="204.2" y="150.3" fill="#3C1942" width="4" height="2"/>
		<rect x="202.2" y="148.3" fill="#3C1942" width="2" height="2"/>
		<rect x="200.2" y="144.3" fill="#3C1942" width="2" height="4"/>
		<rect x="220.1" y="144.3" fill="#3C1942" width="2" height="4"/>
		<rect x="232.1" y="146.3" fill="#3C1942" width="2" height="4"/>
		<rect x="188.3" y="146.3" fill="#3C1942" width="2" height="4"/>
		<rect x="190.3" y="150.3" fill="#3C1942" width="2" height="4"/>
		<rect x="192.3" y="154.2" fill="#3C1942" width="2" height="2"/>
		<rect x="194.3" y="156.2" fill="#3C1942" width="2" height="2"/>
		<rect x="196.2" y="158.2" fill="#3C1942" width="2" height="2"/>
		<rect x="198.2" y="160.2" fill="#3C1942" width="4" height="2"/>
		<rect x="202.2" y="162.2" fill="#3C1942" width="4" height="2"/>
		<rect x="206.2" y="164.2" fill="#3C1942" width="9.9" height="2"/>
		<rect x="208.2" y="152.2" fill="#3C1942" width="6" height="2"/>
		<rect x="214.2" y="150.3" fill="#3C1942" width="4" height="2"/>
		<rect x="218.1" y="148.3" fill="#3C1942" width="2" height="2"/>
		<rect x="216.1" y="162.2" fill="#3C1942" width="4" height="2"/>
		<rect x="220.1" y="160.2" fill="#3C1942" width="4" height="2"/>
		<rect x="224.1" y="158.2" fill="#3C1942" width="2" height="2"/>
		<rect x="226.1" y="156.2" fill="#3C1942" width="2" height="2"/>
		<rect x="228.1" y="154.2" fill="#3C1942" width="2" height="2"/>
		<rect x="230.1" y="150.3" fill="#3C1942" width="2" height="4"/>
		<rect x="214.2" y="74.6" fill="#3C1942" width="4" height="2"/>
		<rect x="218.1" y="76.6" fill="#3C1942" width="2" height="2"/>
		<rect x="220.1" y="78.6" fill="#3C1942" width="2" height="4"/>
		<rect x="200.2" y="78.6" fill="#3C1942" width="2" height="4"/>
		<rect x="188.3" y="76.6" fill="#3C1942" width="2" height="4"/>
		<rect x="232.1" y="76.6" fill="#3C1942" width="2" height="4"/>
		<rect x="230.1" y="72.7" fill="#3C1942" width="2" height="4"/>
		<rect x="228.1" y="70.7" fill="#3C1942" width="2" height="2"/>
		<rect x="226.1" y="68.7" fill="#3C1942" width="2" height="2"/>
		<rect x="224.1" y="66.7" fill="#3C1942" width="2" height="2"/>
		<rect x="220.1" y="64.7" fill="#3C1942" width="4" height="2"/>
		<rect x="216.1" y="62.7" fill="#3C1942" width="4" height="2"/>
		<rect x="206.2" y="60.7" fill="#3C1942" width="9.9" height="2"/>
		<polygon fill="#3C1942" points="200.2,128.4 200.2,82.6 198.2,82.6 198.2,128.4 198.2,136.3 198.2,144.3 200.2,144.3 200.2,136.3 
					"/>
		<polygon fill="#3C1942" points="234.1,96.5 234.1,98.5 234.1,146.3 236,146.3 236,98.5 236,96.5 236,80.6 234.1,80.6 		"/>
		<polygon fill="#3C1942" points="222.1,96.5 222.1,98.5 222.1,144.3 224.1,144.3 224.1,98.5 224.1,96.5 224.1,82.6 222.1,82.6 		
			"/>
		<rect x="208.2" y="72.7" fill="#3C1942" width="6" height="2"/>
		<rect x="204.2" y="74.6" fill="#3C1942" width="4" height="2"/>
		<rect x="202.2" y="76.6" fill="#3C1942" width="2" height="2"/>
		<polygon fill="#3C1942" points="188.3,128.4 188.3,80.6 186.3,80.6 186.3,128.4 186.3,136.3 186.3,146.3 188.3,146.3 188.3,136.3 
					"/>
		<rect x="202.2" y="62.7" fill="#3C1942" width="4" height="2"/>
		<rect x="198.2" y="64.7" fill="#3C1942" width="4" height="2"/>
		<rect x="196.2" y="66.7" fill="#3C1942" width="2" height="2"/>
		<rect x="194.3" y="68.7" fill="#3C1942" width="2" height="2"/>
		<rect x="192.3" y="70.7" fill="#3C1942" width="2" height="2"/>
		<rect x="190.3" y="72.7" fill="#3C1942" width="2" height="4"/>
		<rect x="309.7" y="32.9" fill="#3C1942" width="6" height="4"/>
		<rect x="321.6" y="30.9" fill="#3C1942" width="4" height="4"/>
		<rect x="331.6" y="26.9" fill="#3C1942" width="4" height="4"/>
		<rect x="339.5" y="24.9" fill="#3C1942" width="2" height="2"/>
		<rect x="299.7" y="32.9" fill="#3C1942" width="4" height="4"/>
		<rect x="289.8" y="30.9" fill="#3C1942" width="4" height="4"/>
		<rect x="283.8" y="28.9" fill="#3C1942" width="2" height="2"/>
		<path fill="#3C1942" d="M297.7,24.9v2h4v2h11.9v-2h8v-2h4v-2h2v-4h-2v-4h-2v-2h-2v-2h-4V9h-9.9v2h-4v2h-4v4h-2v6h-2v2H297.7z
			 M317.6,18.9v-2h2v2h2v2v2h-2v-2h-2V18.9z M313.7,13h2v2h-2V13z"/>
		<polygon fill="#3C1942" points="287.8,40.8 287.8,38.8 291.8,38.8 291.8,36.8 279.8,36.8 279.8,38.8 283.8,38.8 283.8,40.8 
			285.8,40.8 285.8,42.8 289.8,42.8 289.8,40.8 		"/>
		<rect x="291.8" y="38.8" fill="#3C1942" width="25.9" height="2"/>
		<rect x="317.6" y="36.8" fill="#3C1942" width="11.9" height="2"/>
		<rect x="329.6" y="34.8" fill="#3C1942" width="6" height="2"/>
		<polygon fill="#3C1942" points="335.5,32.9 335.5,34.8 341.5,34.8 341.5,36.8 343.5,36.8 343.5,32.9 341.5,32.9 		"/>
		<polygon fill="#3C1942" points="295.7,20.9 295.7,18.9 293.8,18.9 293.8,20.9 287.8,20.9 287.8,22.9 295.7,22.9 		"/>
		<rect x="295.7" y="14.9" fill="#3C1942" width="2" height="2"/>
		<rect x="297.7" y="11" fill="#3C1942" width="2" height="2"/>
		<rect x="299.7" y="9" fill="#3C1942" width="4" height="2"/>
		<rect x="303.7" y="7" fill="#3C1942" width="4" height="2"/>
		<rect x="307.7" y="5" fill="#3C1942" width="9.9" height="2"/>
		<rect x="317.6" y="7" fill="#3C1942" width="4" height="2"/>
		<rect x="321.6" y="9" fill="#3C1942" width="2" height="2"/>
		<rect x="323.6" y="11" fill="#3C1942" width="2" height="2"/>
		<rect x="325.6" y="13" fill="#3C1942" width="2" height="2"/>
		<rect x="327.6" y="16.9" fill="#3C1942" width="8" height="2"/>
		<rect x="335.5" y="18.9" fill="#3C1942" width="9.9" height="2"/>
		<rect x="345.5" y="20.9" fill="#3C1942" width="6" height="2"/>
		<rect x="349.5" y="26.9" fill="#3C1942" width="2" height="2"/>
		<rect x="351.5" y="22.9" fill="#3C1942" width="2" height="4"/>
		<rect x="347.5" y="28.9" fill="#3C1942" width="2" height="2"/>
		<rect x="343.5" y="30.9" fill="#3C1942" width="4" height="2"/>
		<rect x="339.5" y="36.8" fill="#3C1942" width="2" height="2"/>
		<rect x="335.5" y="38.8" fill="#3C1942" width="4" height="2"/>
		<rect x="331.6" y="40.8" fill="#3C1942" width="4" height="2"/>
		<rect x="325.6" y="42.8" fill="#3C1942" width="6" height="2"/>
		<rect x="293.8" y="44.8" fill="#3C1942" width="31.8" height="2"/>
		<rect x="275.8" y="34.8" fill="#3C1942" width="4" height="2"/>
		<rect x="273.9" y="32.9" fill="#3C1942" width="2" height="2"/>
		<rect x="271.9" y="28.9" fill="#3C1942" width="2" height="4"/>
		<rect x="273.9" y="26.9" fill="#3C1942" width="4" height="2"/>
		<rect x="277.8" y="24.9" fill="#3C1942" width="4" height="2"/>
		<rect x="281.8" y="22.9" fill="#3C1942" width="6" height="2"/>
		<rect x="289.8" y="42.8" fill="#3C1942" width="4" height="2"/>
	</g>
	<g>
		<path fill="#FFFFFF" d="M267.9,24.9v-2h-11.9v2c0,0-7.8,0-8,0v2h19.9V24.9z"/>
		<polygon fill="#FFFFFF" points="263.9,38.8 261.9,38.8 261.9,36.8 250,36.8 250,38.8 238,38.8 238,40.8 263.9,40.8 		"/>
		<polygon fill="#FFFFFF" points="289.8,13 287.8,13 287.8,11 279.8,11 279.8,13 271.9,13 271.9,14.9 289.8,14.9 		"/>
		<polygon fill="#FFFFFF" points="45,108.5 47,108.5 47,96.5 49,96.5 49,84.6 51,84.6 51,74.6 53,74.6 53,62.7 43,62.7 43,74.6 
			41,74.6 41,86.6 39,86.6 39,96.5 37,96.5 37,108.5 35.1,108.5 35.1,112.5 45,112.5 		"/>
		<polygon fill="#FFFFFF" points="29.1,108.5 27.1,108.5 27.1,96.5 25.1,96.5 25.1,86.6 23.1,86.6 23.1,74.6 21.1,74.6 21.1,62.7 
			11.2,62.7 11.2,74.6 13.2,74.6 13.2,84.6 15.2,84.6 15.2,96.5 17.1,96.5 17.1,108.5 19.1,108.5 19.1,112.5 29.1,112.5 		"/>
		<path fill="#FFFFFF" d="M142.5,110.5h2v-4h2V74.6h-2v-4h-2v-2h-2v-2h-2v-2h-4v-2h-27.9v49.7h35.8V110.5z M136.5,104.5h-2v2h-4v2
			h-13.9V72.7h13.9v2h4v2h2V104.5z"/>
		<polygon fill="#FFFFFF" points="250,96.5 252,96.5 252,102.5 254,102.5 254,108.5 255.9,108.5 255.9,112.5 265.9,112.5 
			265.9,110.5 263.9,110.5 263.9,104.5 261.9,104.5 261.9,98.5 259.9,98.5 259.9,92.6 257.9,92.6 257.9,86.6 255.9,86.6 255.9,80.6 
			254,80.6 254,74.6 252,74.6 252,68.7 250,68.7 250,62.7 240,62.7 240,112.5 250,112.5 		"/>
		<rect x="273.9" y="62.7" fill="#FFFFFF" width="9.9" height="49.7"/>
		<polygon fill="#FFFFFF" points="381.3,110.5 379.3,110.5 379.3,108.5 377.3,108.5 377.3,106.5 375.3,106.5 375.3,104.5 
			373.4,104.5 373.4,102.5 371.4,102.5 371.4,98.5 369.4,98.5 369.4,94.5 367.4,94.5 367.4,90.6 365.4,90.6 365.4,78.6 367.4,78.6 
			367.4,76.6 369.4,76.6 369.4,74.6 373.4,74.6 373.4,72.7 379.3,72.7 379.3,74.6 383.3,74.6 383.3,76.6 385.3,76.6 385.3,78.6 
			387.3,78.6 387.3,82.6 389.3,82.6 389.3,98.5 399.2,98.5 399.2,82.6 397.2,82.6 397.2,76.6 395.2,76.6 395.2,72.7 393.3,72.7 
			393.3,70.7 391.3,70.7 391.3,68.7 389.3,68.7 389.3,66.7 385.3,66.7 385.3,64.7 381.3,64.7 381.3,62.7 371.4,62.7 371.4,64.7 
			367.4,64.7 367.4,66.7 363.4,66.7 363.4,68.7 361.4,68.7 361.4,70.7 359.4,70.7 359.4,72.7 357.4,72.7 357.4,76.6 355.4,76.6 
			355.4,92.6 357.4,92.6 357.4,96.5 359.4,96.5 359.4,100.5 361.4,100.5 361.4,104.5 363.4,104.5 363.4,108.5 365.4,108.5 
			365.4,110.5 367.4,110.5 367.4,112.5 381.3,112.5 		"/>
		<rect x="337.5" y="62.7" fill="#FFFFFF" width="9.9" height="49.7"/>
		<polygon fill="#FFFFFF" points="64.9,82.6 66.9,82.6 66.9,78.6 68.9,78.6 68.9,76.6 70.9,76.6 70.9,74.6 71.9,74.6 74.9,74.6 
			74.9,72.7 80.8,72.7 80.8,74.6 81.8,74.6 84.8,74.6 84.8,76.6 86.8,76.6 86.8,78.6 88.8,78.6 88.8,82.6 90.8,82.6 90.8,112.5 
			100.7,112.5 100.7,80.6 98.7,80.6 98.7,76.6 96.7,76.6 96.7,72.7 94.8,72.7 94.8,70.7 92.8,70.7 92.8,68.7 90.8,68.7 90.8,66.7 
			86.8,66.7 86.8,64.7 82.8,64.7 82.8,62.7 72.9,62.7 72.9,64.7 68.9,64.7 68.9,66.7 64.9,66.7 64.9,68.7 62.9,68.7 62.9,70.7 
			60.9,70.7 60.9,72.7 58.9,72.7 58.9,76.6 56.9,76.6 56.9,80.6 55,80.6 55,112.5 64.9,112.5 		"/>
		<polygon fill="#FFFFFF" points="198.2,82.6 200.2,82.6 200.2,78.6 202.2,78.6 202.2,76.6 204.2,76.6 204.2,74.6 205.2,74.6 
			208.2,74.6 208.2,72.7 214.2,72.7 214.2,74.6 215.1,74.6 218.1,74.6 218.1,76.6 220.1,76.6 220.1,78.6 222.1,78.6 222.1,82.6 
			224.1,82.6 224.1,112.5 234.1,112.5 234.1,80.6 232.1,80.6 232.1,76.6 230.1,76.6 230.1,72.7 228.1,72.7 228.1,70.7 226.1,70.7 
			226.1,68.7 224.1,68.7 224.1,66.7 220.1,66.7 220.1,64.7 216.1,64.7 216.1,62.7 206.2,62.7 206.2,64.7 202.2,64.7 202.2,66.7 
			198.2,66.7 198.2,68.7 196.2,68.7 196.2,70.7 194.3,70.7 194.3,72.7 192.3,72.7 192.3,76.6 190.3,76.6 190.3,80.6 188.3,80.6 
			188.3,112.5 198.2,112.5 		"/>
		<rect x="325.6" y="14.9" fill="#FFFFFF" width="2" height="4"/>
		<path fill="#FFFFFF" d="M287.8,24.9h-6v2h-4v2h-4v4h2v2h4v2h11.9v2h25.9v-2h11.9v-2h6v-2h8v-2h4v-2h2v-2h2v-4h-6v-2h-9.9v-2h-8v4
			h-2v2h-4v2h-8v2h-11.9v-2h-4l0-2l-2,0v-2h-8V24.9z M285.8,30.9h-2v-2h2V30.9z M339.5,24.9h2v2h-2V24.9z M331.6,26.9h4v4h-4V26.9z
			 M321.6,30.9h4v4h-4V30.9z M309.7,32.9h6v4h-6V32.9z M299.7,32.9h4v4h-4V32.9z M289.8,30.9h4v4h-4V30.9z"/>
		<rect x="323.6" y="13" fill="#FFFFFF" width="2" height="2"/>
		<rect x="321.6" y="11" fill="#FFFFFF" width="2" height="2"/>
		<rect x="317.6" y="9" fill="#FFFFFF" width="4" height="2"/>
		<rect x="313.7" y="13" fill="#FFFFFF" width="2" height="2"/>
		<polygon fill="#FFFFFF" points="319.6,22.9 321.6,22.9 321.6,18.9 319.6,18.9 319.6,16.9 317.6,16.9 317.6,20.9 319.6,20.9 		"/>
		<rect x="307.7" y="7" fill="#FFFFFF" width="9.9" height="2"/>
		<rect x="303.7" y="9" fill="#FFFFFF" width="4" height="2"/>
		<rect x="299.7" y="11" fill="#FFFFFF" width="4" height="2"/>
		<rect x="297.7" y="13" fill="#FFFFFF" width="2" height="4"/>
		<rect x="295.7" y="16.9" fill="#FFFFFF" width="2" height="6"/>
		<rect x="152.5" y="62.7" fill="#FFFFFF" width="9.9" height="49.7"/>
		<polygon fill="#FFFFFF" points="329.6,36.8 329.6,38.8 317.6,38.8 317.6,40.8 293.8,40.8 291.8,40.8 291.8,38.8 285.8,38.8 
			285.8,40.8 289.8,40.8 289.8,42.8 293.8,42.8 293.8,44.8 325.6,44.8 325.6,42.8 331.6,42.8 331.6,40.8 335.5,40.8 335.5,38.8 
			339.5,38.8 339.5,36.8 341.5,36.8 341.5,34.8 335.5,34.8 335.5,36.8 		"/>
		<path fill="#FFFFFF" d="M297.7,162.2h-8v-9.9h8V162.2z"/>
	</g>
	<polygon fill="#D4D3D2" points="33.1,128.4 33.1,130.4 31.1,130.4 31.1,128.4 21.1,128.4 21.1,132.3 23.1,132.3 23.1,142.3 
		25.1,142.3 25.1,152.2 27.1,152.2 27.1,164.2 37,164.2 37,152.2 39,152.2 39,142.3 41,142.3 41,132.3 43,132.3 43,128.4 	"/>
	<rect x="106.7" y="128.4" fill="#D4D3D2" width="9.9" height="33.8"/>
	<rect x="240" y="128.4" fill="#D4D3D2" width="9.9" height="33.8"/>
	<polygon fill="#D4D3D2" points="162.4,152.2 162.4,128.4 152.5,128.4 152.5,162.2 186.3,162.2 186.3,152.2 	"/>
	<polygon fill="#D4D3D2" points="146.5,162.2 136.5,162.2 136.5,156.2 134.6,156.2 134.6,150.3 132.6,150.3 132.6,144.3 
		130.6,144.3 130.6,136.3 128.6,136.3 128.6,130.4 126.6,130.4 126.6,128.4 136.5,128.4 136.5,132.3 138.5,132.3 138.5,138.3 
		140.5,138.3 140.5,144.3 142.5,144.3 142.5,150.3 144.5,150.3 144.5,156.2 146.5,156.2 	"/>
	<polygon fill="#D4D3D2" points="273.9,128.4 273.9,134.3 271.9,134.3 271.9,128.4 261.9,128.4 261.9,132.3 263.9,132.3 
		263.9,138.3 265.9,138.3 265.9,144.3 267.9,144.3 267.9,150.3 269.9,150.3 269.9,156.2 271.9,156.2 271.9,162.2 274.8,162.2 
		276.8,162.2 283.8,162.2 283.8,128.4 	"/>
	<path fill="#D4D3D2" d="M395.2,134.3v-4h-2v-2h-8h-2c0,0-0.1,1.9,0,2v2h2v4h2v11.9h-2v2h-2v2h-4v2h-2h-4v-2h-4v-2h-2v-2h-2v-4h-2
		v-15.9h-9.9c0.2,0.2,0,15.9,0,15.9h2v6h2v4h2v2h2v2h2v2h4v2h4v2h6h4v-2h4v-2h4v-2h2v-2h2v-2h2v-4h2v-15.9H395.2z"/>
	<rect x="289.8" y="152.2" fill="#D4D3D2" width="8" height="9.9"/>
	<polygon fill="#D4D3D2" points="335.5,34.8 335.5,36.8 329.6,36.8 329.6,38.8 317.6,38.8 317.6,40.8 293.8,40.8 291.8,40.8 
		291.8,38.8 285.8,38.8 285.8,40.8 289.8,40.8 289.8,42.8 293.8,42.8 293.8,44.8 325.6,44.8 325.6,42.8 331.6,42.8 331.6,40.8 
		335.5,40.8 335.5,38.8 339.5,38.8 339.5,36.8 341.5,36.8 341.5,34.8 	"/>
	<polygon fill="#D4D3D2" points="337.5,128.4 337.5,144.3 335.5,144.3 335.5,148.3 333.6,148.3 333.6,150.3 331.6,150.3 
		331.6,152.2 330.6,152.2 327.6,152.2 327.6,154.2 321.6,154.2 321.6,152.2 320.6,152.2 317.6,152.2 317.6,150.3 315.6,150.3 
		315.6,148.3 313.7,148.3 313.7,144.3 311.7,144.3 311.7,128.4 301.7,128.4 301.7,146.3 303.7,146.3 303.7,150.3 305.7,150.3 
		305.7,154.2 307.7,154.2 307.7,156.2 309.7,156.2 309.7,158.2 311.7,158.2 311.7,160.2 315.6,160.2 315.6,162.2 319.6,162.2 
		319.6,164.2 329.6,164.2 329.6,162.2 333.6,162.2 333.6,160.2 337.5,160.2 337.5,158.2 339.5,158.2 339.5,156.2 341.5,156.2 
		341.5,154.2 343.5,154.2 343.5,150.3 345.5,150.3 345.5,146.3 347.5,146.3 347.5,128.4 	"/>
	<polygon fill="#D4D3D2" points="90.8,128.4 90.8,144.3 88.8,144.3 88.8,148.3 86.8,148.3 86.8,150.3 84.8,150.3 84.8,152.2 
		83.8,152.2 80.8,152.2 80.8,154.2 74.9,154.2 74.9,152.2 73.9,152.2 70.9,152.2 70.9,150.3 68.9,150.3 68.9,148.3 66.9,148.3 
		66.9,144.3 64.9,144.3 64.9,128.4 55,128.4 55,146.3 56.9,146.3 56.9,150.3 58.9,150.3 58.9,154.2 60.9,154.2 60.9,156.2 
		62.9,156.2 62.9,158.2 64.9,158.2 64.9,160.2 68.9,160.2 68.9,162.2 72.9,162.2 72.9,164.2 82.8,164.2 82.8,162.2 86.8,162.2 
		86.8,160.2 90.8,160.2 90.8,158.2 92.8,158.2 92.8,156.2 94.8,156.2 94.8,154.2 96.7,154.2 96.7,150.3 98.7,150.3 98.7,146.3 
		100.7,146.3 100.7,128.4 	"/>
	<polygon fill="#D4D3D2" points="224.1,128.4 224.1,144.3 222.1,144.3 222.1,148.3 220.1,148.3 220.1,150.3 218.1,150.3 
		218.1,152.2 217.1,152.2 214.2,152.2 214.2,154.2 208.2,154.2 208.2,152.2 207.2,152.2 204.2,152.2 204.2,150.3 202.2,150.3 
		202.2,148.3 200.2,148.3 200.2,144.3 198.2,144.3 198.2,128.4 188.3,128.4 188.3,146.3 190.3,146.3 190.3,150.3 192.3,150.3 
		192.3,154.2 194.3,154.2 194.3,156.2 196.2,156.2 196.2,158.2 198.2,158.2 198.2,160.2 202.2,160.2 202.2,162.2 206.2,162.2 
		206.2,164.2 216.1,164.2 216.1,162.2 220.1,162.2 220.1,160.2 224.1,160.2 224.1,158.2 226.1,158.2 226.1,156.2 228.1,156.2 
		228.1,154.2 230.1,154.2 230.1,150.3 232.1,150.3 232.1,146.3 234.1,146.3 234.1,128.4 	"/>
	<g>
		<polygon fill="#DDDDDC" points="31.1,128.4 31.1,120.4 29.1,120.4 29.1,118.4 19.1,118.4 19.1,120.4 21.1,120.4 21.1,128.4 		"/>
		<polygon fill="#DDDDDC" points="35.1,118.4 35.1,120.4 33.1,120.4 33.1,128.4 43,128.4 43,120.4 45,120.4 45,118.4 		"/>
	</g>
	<rect x="106.7" y="118.4" fill="#DDDDDC" width="9.9" height="9.9"/>
	<rect x="152.5" y="118.4" fill="#DDDDDC" width="9.9" height="9.9"/>
	<rect x="240" y="118.4" fill="#DDDDDC" width="9.9" height="9.9"/>
	<rect x="273.9" y="118.4" fill="#DDDDDC" width="9.9" height="9.9"/>
	<polygon fill="#DDDDDC" points="136.5,128.4 126.6,128.4 126.6,124.4 124.6,124.4 124.6,118.4 134.6,118.4 134.6,126.4 
		136.5,126.4 	"/>
	<path fill="#DDDDDC" d="M257.9,118.4h9.9v4h2v6h-8v-2h-2v-6h-2C257.9,120.4,257.9,117.4,257.9,118.4z"/>
	<polygon fill="#DDDDDC" points="375.3,118.4 375.3,120.4 377.3,120.4 377.3,122.4 379.3,122.4 379.3,124.4 381.3,124.4 
		381.3,128.4 393.3,128.4 393.3,126.4 391.3,126.4 391.3,122.4 389.3,122.4 389.3,118.4 	"/>
	<rect x="337.5" y="118.4" fill="#DDDDDC" width="9.9" height="9.9"/>
	<rect x="55" y="118.4" fill="#DDDDDC" width="9.9" height="9.9"/>
	<rect x="90.8" y="118.4" fill="#DDDDDC" width="9.9" height="9.9"/>
	<rect x="188.3" y="118.4" fill="#DDDDDC" width="9.9" height="9.9"/>
	<rect x="224.1" y="118.4" fill="#DDDDDC" width="9.9" height="9.9"/>
	<rect x="337.5" y="112.5" fill="#ECEBEB" width="9.9" height="6"/>
	<rect x="90.8" y="112.5" fill="#ECEBEB" width="9.9" height="6"/>
	<rect x="55" y="112.5" fill="#ECEBEB" width="9.9" height="6"/>
	<rect x="224.1" y="112.5" fill="#ECEBEB" width="9.9" height="6"/>
	<rect x="188.3" y="112.5" fill="#ECEBEB" width="9.9" height="6"/>
	<rect x="19.1" y="112.5" fill="#ECEBEB" width="9.9" height="6"/>
	<rect x="35.1" y="112.5" fill="#ECEBEB" width="9.9" height="6"/>
	<rect x="152.5" y="112.5" fill="#ECEBEB" width="9.9" height="6"/>
	<rect x="240" y="112.5" fill="#ECEBEB" width="9.9" height="6"/>
	<rect x="273.9" y="112.5" fill="#ECEBEB" width="9.9" height="6"/>
	<polygon fill="#ECEBEB" points="117.6,112.5 115.7,112.5 106.7,112.5 106.7,118.4 116.6,118.4 116.6,116.4 124.6,116.4 
		124.6,118.4 134.6,118.4 134.6,116.4 136.5,116.4 136.5,114.4 140.5,114.4 140.5,112.5 	"/>
	<path fill="#ECEBEB" d="M256.9,112.5h9v4h2v2h-9.9v-4h-1C256.9,114.4,256.7,111.5,256.9,112.5z"/>
	<polygon fill="#ECEBEB" points="369.4,112.5 383.3,112.5 383.3,114.4 385.3,114.4 385.3,116.4 387.3,116.4 387.3,118.4 
		373.4,118.4 373.4,116.4 371.4,116.4 371.4,114.4 369.4,114.4 	"/>
</g>
</svg>
