<?xml version="1.0" encoding="utf-8"?>
<!-- Generator: Adobe Illustrator 18.1.1, SVG Export Plug-In . SVG Version: 6.00 Build 0)  -->
<svg version="1.1" id="Layer_1" xmlns="http://www.w3.org/2000/svg" xmlns:xlink="http://www.w3.org/1999/xlink" x="0px" y="0px"
	 viewBox="0 0 410.4 171.2" enable-background="new 0 0 410.4 171.2" xml:space="preserve">
<g>
	<polygon fill="#3C1942" points="189,154.7 165.6,154.7 165.6,65 154.2,65 154.2,166.2 189,166.2 	"/>
	<path fill="#3C1942" d="M100.2,144.9V86.2c0-12.6-10.2-22.8-22.8-22.8c-12.6,0-22.8,10.2-22.8,22.8v58.7
		c0,12.6,10.2,22.8,22.8,22.8C90,167.7,100.2,157.5,100.2,144.9 M66.1,144.9V86.2c0-6.2,5.1-11.3,11.3-11.3S88.7,80,88.7,86.2v58.7
		c0,6.2-5.1,11.3-11.3,11.3S66.1,151.2,66.1,144.9"/>
	<path fill="#3C1942" d="M215.2,167.7c12.6,0,22.8-10.2,22.8-22.8V86.2c0-12.6-10.2-22.8-22.8-22.8c-12.6,0-22.8,10.2-22.8,22.8
		v58.7C192.4,157.5,202.6,167.7,215.2,167.7 M203.8,86.2c0-6.2,5.1-11.3,11.3-11.3s11.3,5.1,11.3,11.3v58.7
		c0,6.2-5.1,11.3-11.3,11.3s-11.3-5.1-11.3-11.3V86.2z"/>
	<polygon fill="#3C1942" points="28.9,133.6 15.9,65 4.2,65 23.5,166.1 34.8,166.1 52.7,65 41,65 	"/>
	<polygon fill="#3C1942" points="255,65 244.2,65 244.2,166.1 255.7,166.1 255.7,101.3 277.5,166.1 289.7,166.1 289.7,65.3 
		278.2,65.3 278.2,133.6 255.2,65.5 	"/>
	<path fill="#3C1942" d="M117.9,121.1h5.6l13.4,44.5l0.2,0.5h12.1l-13.8-45.8c2.9-0.9,5.6-2.5,7.7-4.6c3.2-3.3,5-7.8,5-12.6V83.3
		c0-5.4-1.8-10.1-5.2-13.5c-2.3-2.3-5.3-3.9-8.8-4.8l-27.7,0v101.1h11.5V121.1z M117.9,75.7h10.4c1.2,0,4.6,0.4,6.6,2.4
		c1.2,1.2,1.8,2.9,1.8,5.2v19.8c0,4.3-3.3,6.5-6.6,6.5l-12.1,0V75.7z"/>
	<path fill="#3C1942" d="M343,144.9c0,6.2-5.1,11.3-11.3,11.3s-11.3-5.1-11.3-11.3v-14.7h-11.5v14.7c0,12.6,10.2,22.8,22.8,22.8
		c12.6,0,22.8-10.2,22.8-22.8V65H343V144.9z"/>
	<path fill="#3C1942" d="M383.6,63.5c-12.6,0-22.8,10.2-22.8,22.7c0,8.7,8.1,19.2,17.5,31.3c7.4,9.5,16.6,21.4,16.6,27.5
		c0,6.3-5,11.3-11.3,11.3c-6.2,0-11.3-5.1-11.3-11.3V130h-11.5V145c0,12.5,10.2,22.7,22.8,22.7c6.1,0,11.8-2.3,16.1-6.5
		c4.3-4.3,6.7-10,6.7-16.2c0-10-9.2-21.8-19-34.4c-6.4-8.2-15.1-19.5-15.1-24.3c0-6.2,5.1-11.3,11.3-11.3c6.2,0,11.3,5.1,11.3,11.3
		v14.9h11.5V86.2C406.4,73.7,396.2,63.5,383.6,63.5"/>
	<rect x="295" y="155.1" fill="#3C1942" width="11" height="11"/>
	<g>
		<path fill="#3C1942" d="M357.9,25c0-0.1-0.1-0.1-0.2-0.2c-6.7-3.3-16.4-3.6-21.9-4.3l0,0c0,0,0,0,0,0c-0.8-5.4-3.5-9-7.5-12.4
			c-4.3-3.7-9.7-5.3-15.1-4.6c-10.9,1.4-18.8,10.5-18,22.2c-5.2,2-14.4,4.7-20.1,9.6c-0.1,0.1-0.1,0.1-0.1,0.2
			c-0.1,0.2-0.1,0.5,0.1,0.9c0.4,0.7,1.9,1.8,4.6,2.7c0,0,5.9,6.7,7.4,7.5c6.2,3,18.3,5.2,31.3,3.5c1.5-0.2,2.9-0.4,4.4-0.7
			c11.4-2,21.1-6.8,25.8-10.9c1.2-1,5.6-8.9,5.6-8.9c2.4-1.6,3.6-3,3.9-3.8C358.1,25.5,358,25.2,357.9,25 M343,26
			c0.8-0.4,1.7-0.2,2,0.5c0.3,0.7,0,1.7-0.8,2.1c-0.8,0.4-1.7,0.2-2-0.5C342,27.5,342.2,26.5,343,26 M336,30c0.9-0.4,1.8,0,2.1,0.9
			c0.3,0.8-0.2,1.8-1.1,2.2c-0.9,0.4-1.8,0-2.1-0.9C334.6,31.3,335.1,30.3,336,30 M302.8,15.5c0.1-0.1,0.2-0.3,0.3-0.4
			c0.2-0.2,0.3-0.4,0.5-0.7c0.2-0.3,0.4-0.5,0.6-0.7c0.1-0.1,0.2-0.2,0.3-0.3c2.4-2.6,5.6-4.4,9.3-4.9c0.6-0.1,1.1-0.1,1.7-0.1
			c8-0.2,15,4.7,16.2,13.3c0,0.2,0.1,0.8,0.2,0.9c0.2,1.7-6.1,4.5-15.5,5.7l-0.1,0c-4.3,0.5-8.5,0.6-11.6,0.2
			c-3.4-0.4-4.7-1.3-4.8-1.9c0-0.1,0-0.8,0-1C299.5,21.4,300.6,18.7,302.8,15.5 M328.1,36.1c-1.1,0.3-2.1-0.3-2.3-1.3
			c-0.2-1,0.5-2,1.5-2.3c1.1-0.3,2.1,0.3,2.3,1.3C329.8,34.8,329.1,35.8,328.1,36.1 M317.2,38.6c-1.2,0.2-2.3-0.7-2.5-1.8
			c-0.1-1.2,0.8-2.2,2-2.4c1.2-0.2,2.3,0.7,2.5,1.8C319.3,37.4,318.4,38.4,317.2,38.6 M308,37.1c0,1-0.9,1.8-2,1.8
			c-1.1,0-2-0.8-2-1.8c0-1,0.9-1.8,2-1.8C307.1,35.3,308,36.1,308,37.1 M297,34.9c1,0.1,1.7,0.9,1.6,1.8s-0.9,1.5-1.9,1.4
			s-1.7-0.9-1.6-1.8C295.2,35.4,296.1,34.8,297,34.9 M289.4,32.9c0.9,0.2,1.3,1.2,1.2,1.8c-0.2,0.8-0.9,1.2-1.8,1
			c-0.8-0.2-1.4-1-1.2-1.8C287.8,33.1,288.6,32.6,289.4,32.9 M344.6,36.2c-0.8,0.4-1.8,0.9-2.9,1.3c-1.1,0.5-2.4,1-3.8,1.5
			c-1.4,0.5-3,1-4.6,1.5c-1.7,0.4-3.4,1-5.3,1.4c-1.8,0.4-3.7,0.8-5.7,1.1c-1,0.2-2,0.3-2.9,0.5c-1,0.1-2,0.2-3,0.4
			c-1,0.1-2,0.2-3,0.3c-1,0.1-2,0.1-3,0.2c-2,0.1-3.9,0.2-5.8,0.1c-1.9,0-3.7-0.1-5.4-0.2c-0.9,0-1.7-0.1-2.5-0.2
			c-0.8-0.1-1.6-0.1-2.3-0.2c-0.7-0.1-1.5-0.2-2.1-0.3c-0.7-0.1-1.3-0.2-1.9-0.3c-1.2-0.2-2.2-0.5-3.1-0.6c-0.9-0.2-1.5-0.4-2-0.5
			c-0.5-0.1-0.7-0.2-0.7-0.2s0.2,0.1,0.7,0.2c0.5,0.1,1.1,0.3,2,0.4c0.9,0.1,1.9,0.4,3.1,0.5c1.2,0.2,2.6,0.3,4.1,0.4
			c0.7,0.1,1.5,0.1,2.3,0.2c0.8,0,1.6,0.1,2.5,0.1c1.7,0,3.5,0.1,5.4,0.1c1.9,0,3.8-0.1,5.8-0.2c1-0.1,2-0.1,3-0.2
			c1-0.1,2-0.2,3-0.3c1-0.1,2-0.2,3-0.3c1-0.1,2-0.3,2.9-0.4c1.9-0.3,3.8-0.7,5.7-1.1c1.8-0.4,3.6-0.9,5.3-1.3
			c1.6-0.5,3.2-1,4.6-1.4c1.4-0.5,2.7-1,3.9-1.4c1.2-0.4,2.1-0.9,2.9-1.2c1.6-0.7,2.6-1.1,2.6-1.1S346.2,35.5,344.6,36.2"/>
		<path fill="#3C1942" d="M325.9,23.1c0,0,0.1,0,0.1,0l0,0c0,0,0.1,0,0.1,0c0,0,0,0,0,0c0.1,0,0.2-0.1,0.3-0.2
			c1.5-2,1.1-3.6,0.3-5.1c-0.8-1.5-1.8-2.7-2.9-3.6c0,0,0,0,0,0c0,0,0,0,0,0c-0.4,1.2-1,2.8-1.9,4c1.5,1.8,2.9,2.6,3.6,4.6
			C325.6,22.9,325.7,23.1,325.9,23.1"/>
		<path fill="#3C1942" d="M315.7,11.8C315.7,11.8,315.7,11.8,315.7,11.8C315.7,11.8,315.7,11.8,315.7,11.8c0.1,0.1,0.1,0.2,0.1,0.2
			c0,0,0,0,0,0c0,0,0,0,0,0.1c0,0,0.7,0.6,1.6,1.4c0.7,0.7,1.6,1.5,2.5,2.5c0,0,0,0,0,0c0,0,0,0,0.1,0.1c0.5-1,1-2.3,1.3-3.4
			c0,0-0.1,0-0.1,0c-2.3-1.1-4.4-1.4-5-1.5c-0.1,0-0.2,0-0.3,0C315.8,11.2,315.6,11.5,315.7,11.8C315.7,11.7,315.7,11.7,315.7,11.8"
			/>
		<path fill="#3C1942" d="M224.3,42.4c0,0,43.3,4.6,43.3,0C267.6,37.9,224.3,42.4,224.3,42.4"/>
		<path fill="#3C1942" d="M274.8,28c0-4.6-34.4,0-34.4,0S274.8,32.5,274.8,28"/>
		<path fill="#3C1942" d="M290.4,15.3c0-4.6-26.7,0-26.7,0S290.4,19.8,290.4,15.3"/>
	</g>
</g>
</svg>
