<?xml version="1.0" encoding="utf-8"?><svg version="1.1" id="Layer_1" xmlns="http://www.w3.org/2000/svg" xmlns:xlink="http://www.w3.org/1999/xlink" x="0px" y="0px" viewBox="0 0 234.5 125.5" enable-background="new 0 0 234.5 125.5" xml:space="preserve"><g id="Medium_purple"><g><g><rect x="207.3" y="43.6" fill="#5A3A5E" width="21.8" height="5.5"/><rect x="43.6" y="43.6" fill="#5A3A5E" width="21.8" height="5.5"/><rect x="65.5" y="27.3" fill="#5A3A5E" width="5.5" height="16.4"/><rect x="27.3" y="49.1" fill="#5A3A5E" width="21.8" height="5.5"/><rect x="16.4" y="54.5" fill="#5A3A5E" width="16.4" height="5.5"/><rect x="5.5" y="60" fill="#5A3A5E" width="16.4" height="5.5"/><polygon fill="#5A3A5E" points="10.9,87.3 10.9,81.8 5.5,81.8 5.5,92.7 16.4,92.7 16.4,87.3 "/><polygon fill="#5A3A5E" points="10.9,70.9 10.9,65.5 0,65.5 0,87.3 5.5,87.3 5.5,70.9 "/><polygon fill="#5A3A5E" points="185.5,38.2 185.5,32.7 163.6,32.7 163.6,27.3 158.2,27.3 158.2,38.2 "/><rect x="70.9" y="16.4" fill="#5A3A5E" width="5.5" height="16.4"/><polygon fill="#5A3A5E" points="147.3,16.4 147.3,21.8 152.7,21.8 152.7,27.3 163.6,27.3 163.6,21.8 158.2,21.8 158.2,16.4 152.7,16.4 152.7,10.9 141.8,10.9 141.8,16.4 "/><rect x="10.9" y="92.7" fill="#5A3A5E" width="16.4" height="5.5"/><rect x="180" y="38.2" fill="#5A3A5E" width="32.7" height="5.5"/><rect x="81.8" y="10.9" fill="#5A3A5E" width="10.9" height="5.5"/><rect x="76.4" y="10.9" fill="#5A3A5E" width="5.5" height="10.9"/><rect x="87.3" y="5.5" fill="#5A3A5E" width="16.4" height="5.5"/><rect x="130.9" y="5.5" fill="#5A3A5E" width="16.4" height="5.5"/><rect x="223.6" y="49.1" fill="#5A3A5E" width="10.9" height="5.5"/><polygon fill="#5A3A5E" points="201.8,98.2 207.3,98.2 207.3,87.3 212.7,87.3 212.7,81.8 201.8,81.8 "/><polygon fill="#5A3A5E" points="196.4,98.2 190.9,98.2 190.9,103.6 201.8,103.6 201.8,92.7 196.4,92.7 "/><rect x="180" y="103.6" fill="#5A3A5E" width="16.4" height="5.5"/><polygon fill="#5A3A5E" points="229.1,54.5 229.1,65.5 223.6,65.5 223.6,70.9 234.5,70.9 234.5,54.5 "/><rect x="60" y="120" fill="#5A3A5E" width="98.2" height="5.5"/><rect x="98.2" y="0" fill="#5A3A5E" width="38.2" height="5.5"/><rect x="218.2" y="70.9" fill="#5A3A5E" width="10.9" height="5.5"/><polygon fill="#5A3A5E" points="212.7,76.4 212.7,87.3 218.2,87.3 218.2,76.4 218.2,76.4 "/><polygon fill="#5A3A5E" points="43.6,98.2 21.8,98.2 21.8,103.6 32.7,103.6 32.7,109.1 49.1,109.1 49.1,103.6 43.6,103.6 "/><rect x="169.1" y="109.1" fill="#5A3A5E" width="16.4" height="5.5"/><path fill="#5A3A5E" d="M38.2,109.1c0,5.7,0,2.7,0,5.5h16.4v-5.5H38.2z"/><rect x="152.7" y="114.5" fill="#5A3A5E" width="21.8" height="5.5"/><rect x="49.1" y="114.5" fill="#5A3A5E" width="16.4" height="5.5"/></g><rect x="218.2" y="76.4" fill="#5A3A5E" width="5.5" height="5.5"/></g><rect x="60" y="38.2" fill="#5A3A5E" width="5.5" height="5.5"/></g><g><rect x="109.1" y="81.8" fill="#3C1942" width="16.4" height="10.9"/><rect x="141.8" y="76.4" fill="#3C1942" width="10.9" height="10.9"/><rect x="169.1" y="65.5" fill="#3C1942" width="10.9" height="10.9"/><rect x="190.9" y="60" fill="#3C1942" width="5.5" height="5.5"/><rect x="81.8" y="81.8" fill="#3C1942" width="10.9" height="10.9"/><rect x="54.5" y="76.4" fill="#3C1942" width="10.9" height="10.9"/><rect x="38.2" y="70.9" fill="#3C1942" width="5.5" height="5.5"/><path fill="#3C1942" d="M76.4,60v5.5h10.9v5.5H120v-5.5h21.8V60h10.9v-5.5h5.5V43.6h-5.5V32.7h-5.5v-5.5h-5.5v-5.5h-10.9v-5.5h-27.3v5.5H92.7v5.5H81.8v10.9h-5.5v16.4h-5.5V60H76.4z M130.9,43.6v-5.5h5.5v5.5h5.5v5.5v5.5h-5.5v-5.5h-5.5V43.6z M120,27.3h5.5v5.5H120V27.3z"/><polygon fill="#3C1942" points="49.1,103.6 49.1,98.2 60,98.2 60,92.7 27.3,92.7 27.3,98.2 38.2,98.2 38.2,103.6 43.6,103.6 43.6,109.1 54.5,109.1 54.5,103.6 "/><rect x="60" y="98.2" fill="#3C1942" width="70.9" height="5.5"/><rect x="130.9" y="92.7" fill="#3C1942" width="32.7" height="5.5"/><rect x="163.6" y="87.3" fill="#3C1942" width="16.4" height="5.5"/><polygon fill="#3C1942" points="180,81.8 180,87.3 196.4,87.3 196.4,92.7 201.8,92.7 201.8,81.8 196.4,81.8 "/><polygon fill="#3C1942" points="70.9,49.1 70.9,43.6 65.5,43.6 65.5,49.1 49.1,49.1 49.1,54.5 70.9,54.5 "/><rect x="70.9" y="32.7" fill="#3C1942" width="5.5" height="5.5"/><rect x="76.4" y="21.8" fill="#3C1942" width="5.5" height="5.5"/><rect x="81.8" y="16.4" fill="#3C1942" width="10.9" height="5.5"/><rect x="92.7" y="10.9" fill="#3C1942" width="10.9" height="5.5"/><rect x="103.6" y="5.5" fill="#3C1942" width="27.3" height="5.5"/><rect x="130.9" y="10.9" fill="#3C1942" width="10.9" height="5.5"/><rect x="141.8" y="16.4" fill="#3C1942" width="5.5" height="5.5"/><rect x="147.3" y="21.8" fill="#3C1942" width="5.5" height="5.5"/><rect x="152.7" y="27.3" fill="#3C1942" width="5.5" height="5.5"/><rect x="158.2" y="38.2" fill="#3C1942" width="21.8" height="5.5"/><rect x="180" y="43.6" fill="#3C1942" width="27.3" height="5.5"/><rect x="207.3" y="49.1" fill="#3C1942" width="16.4" height="5.5"/><rect x="218.2" y="65.5" fill="#3C1942" width="5.5" height="5.5"/><rect x="223.6" y="54.5" fill="#3C1942" width="5.5" height="10.9"/><rect x="212.7" y="70.9" fill="#3C1942" width="5.5" height="5.5"/><rect x="201.8" y="76.4" fill="#3C1942" width="10.9" height="5.5"/><rect x="190.9" y="92.7" fill="#3C1942" width="5.5" height="5.5"/><rect x="180" y="98.2" fill="#3C1942" width="10.9" height="5.5"/><rect x="169.1" y="103.6" fill="#3C1942" width="10.9" height="5.5"/><rect x="152.7" y="109.1" fill="#3C1942" width="16.4" height="5.5"/><rect x="65.5" y="114.5" fill="#3C1942" width="87.3" height="5.5"/><rect x="16.4" y="87.3" fill="#3C1942" width="10.9" height="5.5"/><rect x="10.9" y="81.8" fill="#3C1942" width="5.5" height="5.5"/><rect x="5.5" y="70.9" fill="#3C1942" width="5.5" height="10.9"/><rect x="10.9" y="65.5" fill="#3C1942" width="10.9" height="5.5"/><rect x="21.8" y="60" fill="#3C1942" width="10.9" height="5.5"/><rect x="32.7" y="54.5" fill="#3C1942" width="16.4" height="5.5"/><rect x="54.5" y="109.1" fill="#3C1942" width="10.9" height="5.5"/></g><polygon fill="#D6D5D5" points="180,87.3 180,92.7 163.6,92.7 163.6,98.2 130.9,98.2 130.9,103.6 65.5,103.6 60,103.6 60,98.2 43.6,98.2 43.6,103.6 54.5,103.6 54.5,109.1 65.5,109.1 65.5,114.5 152.7,114.5 152.7,109.1 169.1,109.1 169.1,103.6 180,103.6 180,98.2 190.9,98.2 190.9,92.7 196.4,92.7 196.4,87.3 "/><g><rect x="147.3" y="27.3" fill="#FFFFFF" width="5.5" height="5.5"/><rect x="141.8" y="21.8" fill="#FFFFFF" width="5.5" height="5.5"/><rect x="130.9" y="16.4" fill="#FFFFFF" width="10.9" height="5.5"/><rect x="120" y="27.3" fill="#FFFFFF" width="5.5" height="5.5"/><polygon fill="#FFFFFF" points="136.4,54.5 141.8,54.5 141.8,43.6 136.4,43.6 136.4,38.2 130.9,38.2 130.9,49.1 136.4,49.1 "/><rect x="103.6" y="10.9" fill="#FFFFFF" width="27.3" height="5.5"/><rect x="92.7" y="16.4" fill="#FFFFFF" width="10.9" height="5.5"/><rect x="81.8" y="21.8" fill="#FFFFFF" width="10.9" height="5.5"/><rect x="76.4" y="27.3" fill="#FFFFFF" width="5.5" height="10.9"/><rect x="70.9" y="38.2" fill="#FFFFFF" width="5.5" height="16.4"/></g><g><rect x="152.7" y="32.7" fill="#FFFFFF" width="5.5" height="10.9"/><path fill="#FFFFFF" d="M207.3,54.5v-5.5H180v-5.5h-21.8v10.9h-5.5V60h-10.9v5.5H120v5.5H87.3v-5.5H76.4V60h-5.5v-5.5H49.1V60H32.7v5.5H21.8v5.5H10.9v10.9h5.5v5.5h10.9v5.5H60v5.5h70.9v-5.5h32.7v-5.5H180v-5.5h21.8v-5.5h10.9v-5.5h5.5v-5.5h5.5V54.5H207.3z M43.6,76.4h-5.5v-5.5h5.5V76.4z M65.5,87.3H54.5V76.4h10.9V87.3z M92.7,92.7H81.8V81.8h10.9V92.7z M125.5,92.7h-16.4V81.8h16.4V92.7z M152.7,87.3h-10.9V76.4h10.9V87.3z M180,76.4h-10.9V65.5H180V76.4z M196.4,65.5h-5.5V60h5.5V65.5z"/><rect x="147.3" y="27.3" fill="#FFFFFF" width="5.5" height="5.5"/><rect x="141.8" y="21.8" fill="#FFFFFF" width="5.5" height="5.5"/><rect x="130.9" y="16.4" fill="#FFFFFF" width="10.9" height="5.5"/><rect x="120" y="27.3" fill="#FFFFFF" width="5.5" height="5.5"/><polygon fill="#FFFFFF" points="136.4,54.5 141.8,54.5 141.8,43.6 136.4,43.6 136.4,38.2 130.9,38.2 130.9,49.1 136.4,49.1 "/><rect x="103.6" y="10.9" fill="#FFFFFF" width="27.3" height="5.5"/><rect x="92.7" y="16.4" fill="#FFFFFF" width="10.9" height="5.5"/><rect x="81.8" y="21.8" fill="#FFFFFF" width="10.9" height="5.5"/><rect x="76.4" y="27.3" fill="#FFFFFF" width="5.5" height="10.9"/><rect x="70.9" y="38.2" fill="#FFFFFF" width="5.5" height="16.4"/></g></svg>